<svg width="23" height="16" viewBox="0 0 23 16" fill="none" xmlns="http://www.w3.org/2000/svg">
<path d="M20.2295 0.236328H1.94931C0.876668 0.236328 0 1.07587 0 2.11133V13.3613C0 14.3972 0.877231 15.2363 1.94931 15.2363H20.2295C21.3021 15.2363 22.1788 14.3968 22.1788 13.3613V2.11133C22.1788 1.07562 21.3017 0.236328 20.2295 0.236328ZM19.9301 1.48633C19.2999 2.09454 11.897 9.23841 11.5929 9.53191C11.3389 9.77699 10.84 9.77716 10.5859 9.53191L2.24863 1.48633H19.9301ZM1.29954 13.1315V2.34112L6.89037 7.73633L1.29954 13.1315ZM2.24863 13.9863L7.8078 8.62166L9.66548 10.4144C10.4268 11.149 11.7523 11.1487 12.5133 10.4144L14.371 8.6217L19.9301 13.9863H2.24863ZM20.8792 13.1315L15.2884 7.73633L20.8792 2.34112V13.1315Z" fill="#003671"/>
</svg>
