<svg width="25" height="25" viewBox="0 0 25 25" fill="none" xmlns="http://www.w3.org/2000/svg">
<path d="M11.3634 9.65898V10.7954H10.2271V12.4999H11.3634V17.6135H13.6361V12.4999H15.1475L15.3407 10.7954H13.6361V9.80103C13.6361 9.34082 13.6816 9.09648 14.3918 9.09648H15.3407V7.38623H13.818C11.9998 7.38628 11.3634 8.23852 11.3634 9.65898Z" fill="#212321"/>
<path d="M12.5 0C5.59644 0 0 5.59644 0 12.5C0 19.4036 5.59644 25 12.5 25C19.4036 25 25 19.4036 25 12.5C25 5.59644 19.4036 0 12.5 0ZM12.5 23.8636C6.22402 23.8636 1.13638 18.776 1.13638 12.5C1.13638 6.22402 6.22402 1.13638 12.5 1.13638C18.776 1.13638 23.8636 6.22402 23.8636 12.5C23.8636 18.776 18.776 23.8636 12.5 23.8636Z" fill="#212321"/>
</svg>
