<svg width="10" height="6" viewBox="0 0 10 6" fill="none" xmlns="http://www.w3.org/2000/svg">
<path d="M4.04654 5.72652L0.199988 1.32977C-0.253963 0.812461 0.114972 2.94913e-07 0.803919 2.94913e-07H8.49703C8.65122 -0.000131902 8.80217 0.0441823 8.93182 0.127636C9.06147 0.211091 9.16432 0.330147 9.22804 0.470548C9.29177 0.610949 9.31367 0.766743 9.29114 0.919273C9.2686 1.0718 9.20257 1.2146 9.10096 1.33057L5.25441 5.72572C5.17913 5.81187 5.08629 5.88091 4.98212 5.92822C4.87796 5.97552 4.76488 6 4.65047 6C4.53607 6 4.42299 5.97552 4.31883 5.92822C4.21466 5.88091 4.12182 5.81267 4.04654 5.72652Z" fill="white"/>
</svg>
