<svg width="26" height="25" viewBox="0 0 26 25" fill="none" xmlns="http://www.w3.org/2000/svg">
<path d="M9.45455 10.2273C10.1073 10.2273 10.6364 9.71857 10.6364 9.09097C10.6364 8.46336 10.1073 7.95459 9.45455 7.95459C8.80185 7.95459 8.27272 8.46336 8.27272 9.09097C8.27272 9.71857 8.80185 10.2273 9.45455 10.2273Z" fill="#212321"/>
<path d="M10.6363 10.7954H8.27272V17.0454H10.6363V10.7954Z" fill="#212321"/>
<path d="M13 0C5.82029 0 0 5.59644 0 12.5C0 19.4036 5.82029 25 13 25C20.1797 25 26 19.4036 26 12.5C26 5.59644 20.1797 0 13 0ZM13 23.8636C6.47298 23.8636 1.18183 18.776 1.18183 12.5C1.18183 6.22402 6.47298 1.13638 13 1.13638C19.527 1.13638 24.8182 6.22402 24.8182 12.5C24.8182 18.776 19.527 23.8636 13 23.8636Z" fill="#212321"/>
<path d="M16.1673 10.7954C14.3946 10.7954 14.1818 11.8068 14.1818 11.8068V10.7954H11.8182V17.0454H14.1818V13.6363C14.1818 13.6363 14.1818 12.5 15.1864 12.5C15.7773 12.5 15.9546 13.0056 15.9546 13.6363V17.0454H18.3182V13.6363C18.3182 11.8579 17.5146 10.7954 16.1673 10.7954Z" fill="#212321"/>
</svg>
