<svg width="52" height="52" viewBox="0 0 52 52" fill="none" xmlns="http://www.w3.org/2000/svg">
<path d="M9 14H24.5625" stroke="#E63027" stroke-width="2" stroke-miterlimit="10"/>
<path d="M9 20.2266H24.5625" stroke="#E63027" stroke-width="2" stroke-miterlimit="10"/>
<path d="M19.3958 32.603C19.2675 33.4163 19.2002 34.2498 19.2002 35.0991C19.2002 43.8804 26.3188 50.9988 35.1 50.9988H48.4767L45.897 46.7693C49.0347 43.865 50.9998 39.7117 50.9998 35.099C50.9998 26.3178 43.8812 19.1992 35.1001 19.1992C34.2507 19.1992 33.4172 19.2665 32.604 19.3948" stroke="black" stroke-width="2" stroke-miterlimit="10"/>
<path d="M28.6919 31.3203H31.8043" stroke="black" stroke-width="2" stroke-miterlimit="10"/>
<path d="M38.396 31.3203H41.5085" stroke="black" stroke-width="2" stroke-miterlimit="10"/>
<path d="M39.9522 36.3672C39.9522 39.0469 37.7798 41.2193 35.1001 41.2193C32.4204 41.2193 30.248 39.0469 30.248 36.3672" stroke="black" stroke-width="2" stroke-miterlimit="10"/>
<path d="M16.8998 1C8.11858 1 1 8.11858 1 16.8998C1 21.5125 2.96501 25.6657 6.10284 28.5701L3.52305 32.7996H16.8998C25.6809 32.7996 32.7995 25.681 32.7995 16.8999C32.7995 8.11868 25.681 1 16.8998 1Z" stroke="black" stroke-width="2" stroke-miterlimit="10"/>
</svg>
