<svg width="57" height="49" viewBox="0 0 57 49" fill="none" xmlns="http://www.w3.org/2000/svg">
<path d="M6.65771 40.9453H20.2872" stroke="#E63027" stroke-width="2" stroke-miterlimit="10"/>
<path d="M3.32861 34.2871H16.3377" stroke="#E63027" stroke-width="2" stroke-miterlimit="10"/>
<path d="M0 27.6289H20.1946" stroke="#E63027" stroke-width="2" stroke-miterlimit="10"/>
<path d="M50.1533 27.6289H55.1465" stroke="black" stroke-width="2" stroke-miterlimit="10"/>
<path d="M3.32861 20.9727H16.3377" stroke="#E63027" stroke-width="2" stroke-miterlimit="10"/>
<path d="M6.65771 14.3145H20.2872" stroke="#E63027" stroke-width="2" stroke-miterlimit="10"/>
<path d="M55.1465 27.6289C55.1465 38.6595 46.2044 47.6016 35.1738 47.6016C24.1433 47.6016 15.2012 38.6595 15.2012 27.6289C15.2012 16.5983 24.1433 7.65626 35.1738 7.65626C46.2044 7.65626 55.1465 16.5983 55.1465 27.6289Z" stroke="black" stroke-width="2" stroke-miterlimit="10"/>
<path d="M30.1807 1H40.167" stroke="black" stroke-width="2" stroke-miterlimit="10"/>
<path d="M35.1738 12.6504V0.999678" stroke="black" stroke-width="2" stroke-miterlimit="10"/>
<path d="M35.1738 42.6084V47.6016" stroke="black" stroke-width="2" stroke-miterlimit="10"/>
<path d="M38.2096 28.9981L41.8315 20.9727L33.806 24.5946C32.65 25.1164 31.8452 26.2794 31.8452 27.6302C31.8452 29.4687 33.3356 30.959 35.174 30.959C36.5249 30.959 37.6879 30.1543 38.2096 28.9981Z" stroke="black" stroke-width="2" stroke-miterlimit="10"/>
</svg>
