<svg width="52" height="52" viewBox="0 0 52 52" fill="none" xmlns="http://www.w3.org/2000/svg">
<path d="M28.0248 39.3691H23.9756C21.5434 39.3691 19.4145 41.0032 18.7858 43.3527L16.7397 50.9984H35.2606L33.2146 43.3527C32.5859 41.0032 30.4571 39.3691 28.0248 39.3691Z" stroke="black" stroke-width="2" stroke-miterlimit="10" stroke-linecap="round" stroke-linejoin="round"/>
<path d="M26.0003 39.3717C28.4091 39.3717 30.3619 37.4189 30.3619 35.0101C30.3619 32.6012 28.4091 30.6484 26.0003 30.6484C23.5914 30.6484 21.6387 32.6012 21.6387 35.0101C21.6387 37.4189 23.5914 39.3717 26.0003 39.3717Z" stroke="black" stroke-width="2" stroke-miterlimit="10" stroke-linecap="round" stroke-linejoin="round"/>
<path d="M35.2603 50.9981H50.9999L49.1669 44.1485C48.6036 42.0438 46.697 40.5801 44.5175 40.5801H42.7043H40.891C38.7115 40.5801 36.8049 42.0438 36.2416 44.1485L34.835 49.4068" stroke="black" stroke-width="2" stroke-miterlimit="10" stroke-linecap="round" stroke-linejoin="round"/>
<path d="M42.7046 40.5821C44.8625 40.5821 46.6119 38.8328 46.6119 36.6748C46.6119 34.5169 44.8625 32.7676 42.7046 32.7676C40.5467 32.7676 38.7974 34.5169 38.7974 36.6748C38.7974 38.8328 40.5467 40.5821 42.7046 40.5821Z" stroke="black" stroke-width="2" stroke-miterlimit="10" stroke-linecap="round" stroke-linejoin="round"/>
<path d="M17.1649 49.4068L15.7583 44.1485C15.195 42.0438 13.2884 40.5801 11.1089 40.5801H9.29564H7.48236C5.3029 40.5801 3.39627 42.0438 2.83299 44.1485L1 50.9981H16.7396" stroke="black" stroke-width="2" stroke-miterlimit="10" stroke-linecap="round" stroke-linejoin="round"/>
<path d="M9.29593 40.5821C11.4539 40.5821 13.2032 38.8328 13.2032 36.6748C13.2032 34.5169 11.4539 32.7676 9.29593 32.7676C7.13801 32.7676 5.38867 34.5169 5.38867 36.6748C5.38867 38.8328 7.13801 40.5821 9.29593 40.5821Z" stroke="black" stroke-width="2" stroke-miterlimit="10" stroke-linecap="round" stroke-linejoin="round"/>
<path d="M26.0001 1L29.3596 5.55083L34.7259 7.33963L31.4358 11.9409L31.3929 17.5972L26.0001 15.8901L20.6074 17.5972L20.5645 11.9409L17.2744 7.33963L22.6407 5.55083L26.0001 1Z" stroke="#E63027" stroke-width="2" stroke-miterlimit="10" stroke-linecap="round" stroke-linejoin="round"/>
<path d="M44.422 9.30078L46.9545 12.7316L51.0001 14.08L48.5198 17.5489L48.4874 21.8131L44.422 20.5262L40.3564 21.8131L40.324 17.5489L37.8438 14.08L41.8893 12.7316L44.422 9.30078Z" stroke="black" stroke-width="2" stroke-miterlimit="10" stroke-linecap="round" stroke-linejoin="round"/>
<path d="M7.57811 9.30078L5.04554 12.7316L1 14.08L3.48029 17.5489L3.51266 21.8131L7.57811 20.5262L11.6437 21.8131L11.676 17.5489L14.1563 14.08L10.1108 12.7316L7.57811 9.30078Z" stroke="black" stroke-width="2" stroke-miterlimit="10" stroke-linecap="round" stroke-linejoin="round"/>
</svg>
