<svg width="57" height="52" viewBox="0 0 57 52" fill="none" xmlns="http://www.w3.org/2000/svg">
<path d="M11.7997 49.8914L6.54018 27.6946L28.3777 22.1521L50.2153 27.6946L44.9558 49.8914" stroke="black" stroke-width="2" stroke-miterlimit="10"/>
<path d="M28.3777 22.1521V33.1263" stroke="black" stroke-width="2" stroke-miterlimit="10"/>
<path d="M28.3777 24.5348V12.8407H11.0743V26.5438" stroke="black" stroke-width="2" stroke-miterlimit="10"/>
<path d="M45.6812 26.7339V12.8407H28.3777V24.5348" stroke="black" stroke-width="2" stroke-miterlimit="10"/>
<path d="M19.7261 12.8407V18.4184" stroke="black" stroke-width="2" stroke-miterlimit="10"/>
<path d="M37.0294 12.8407V18.4184" stroke="black" stroke-width="2" stroke-miterlimit="10"/>
<path d="M37.0294 12.8407V1H19.7261V12.8407" stroke="black" stroke-width="2" stroke-miterlimit="10"/>
<path d="M28.3777 1V6.57778" stroke="black" stroke-width="2" stroke-miterlimit="10"/>
<path d="M0 49.8916C3.54699 49.8916 3.547 51.0001 7.0941 51.0001C10.6413 51.0001 10.6413 49.8916 14.1884 49.8916C17.7355 49.8916 17.7355 51.0001 21.2827 51.0001C24.8297 51.0001 24.8297 49.8916 28.3767 49.8916C31.924 49.8916 31.924 51.0001 35.4711 51.0001C39.0184 51.0001 39.0184 49.8916 42.5656 49.8916C46.113 49.8916 46.113 51.0001 49.6605 51.0001C53.2079 51.0001 53.2079 49.8916 56.7554 49.8916" stroke="black" stroke-width="2" stroke-miterlimit="10"/>
</svg>
