<svg width="53" height="52" viewBox="0 0 53 52" fill="none" xmlns="http://www.w3.org/2000/svg">
<path d="M8.53674 11.157H51.7126L46.648 36.0332H12.4235L8.53674 11.157Z" stroke="black" stroke-width="2" stroke-miterlimit="10"/>
<path d="M8.53663 11.1573L6.9496 1H0.5" stroke="black" stroke-width="2" stroke-miterlimit="10"/>
<path d="M40.1342 43.6409H10.2258C8.35188 43.6409 6.75717 42.2761 6.46794 40.4246C6.10754 38.1179 7.89116 36.0339 10.2258 36.0339H12.4218" stroke="black" stroke-width="2" stroke-miterlimit="10"/>
<path d="M40.135 51C42.1673 51 43.8148 49.3525 43.8148 47.3202C43.8148 45.2879 42.1673 43.6404 40.135 43.6404C38.1027 43.6404 36.4552 45.2879 36.4552 47.3202C36.4552 49.3525 38.1027 51 40.135 51Z" stroke="black" stroke-width="2" stroke-miterlimit="10"/>
<path d="M20.1152 51C22.1475 51 23.795 49.3525 23.795 47.3202C23.795 45.2879 22.1475 43.6404 20.1152 43.6404C18.0829 43.6404 16.4354 45.2879 16.4354 47.3202C16.4354 49.3525 18.0829 51 20.1152 51Z" stroke="black" stroke-width="2" stroke-miterlimit="10"/>
<path d="M26.8907 17.0598V30.1312" stroke="black" stroke-width="2" stroke-miterlimit="10"/>
<path d="M33.1147 17.0598V30.1312" stroke="black" stroke-width="2" stroke-miterlimit="10"/>
<path d="M39.3398 17.0598V30.1312" stroke="black" stroke-width="2" stroke-miterlimit="10"/>
<path d="M20.6655 17.0598V30.1312" stroke="black" stroke-width="2" stroke-miterlimit="10"/>
</svg>
