<svg width="15" height="14" viewBox="0 0 15 14" fill="none" xmlns="http://www.w3.org/2000/svg">
<path d="M13.6614 11.2722C14.2112 10.5237 14.5 9.6538 14.5 8.73699C14.5 7.2694 13.7389 5.90687 12.4549 5.05659C12.3365 3.74904 11.7259 2.53643 10.7051 1.60212C9.57637 0.568995 8.07879 0 6.48829 0C4.89779 0 3.40023 0.568995 2.27142 1.60215C1.12911 2.64764 0.500018 4.04156 0.500018 5.52715C0.500018 6.66978 0.868365 7.75309 1.56858 8.67998L0.539885 11.2247C0.45646 11.4311 0.506417 11.6674 0.666241 11.8223C0.77042 11.9233 0.907631 11.9766 1.04703 11.9766C1.12149 11.9765 1.19657 11.9613 1.2675 11.9301L4.20151 10.6367C4.56985 10.7775 4.94933 10.8828 5.33755 10.9526C5.73521 11.6066 6.30243 12.1604 6.99199 12.5636C7.76182 13.0136 8.65068 13.2541 9.56497 13.261C9.5784 13.262 9.5918 13.2631 9.6055 13.2631C10.2376 13.2631 10.85 13.1539 11.4294 12.9382L13.7325 13.9535C13.8035 13.9848 13.8785 14 13.953 14C14.0924 14 14.2296 13.9467 14.3338 13.8457C14.4936 13.6908 14.5436 13.4545 14.4601 13.2481L13.6614 11.2722ZM12.5282 11.3875L12.9413 12.4094L11.6606 11.8449C11.5222 11.7839 11.3647 11.7829 11.2254 11.8423C10.7235 12.0565 10.186 12.1662 9.62762 12.1691C9.62023 12.1688 9.61296 12.1679 9.60547 12.1679C8.52774 12.1679 7.50957 11.7468 6.79825 11.0462C7.70013 11.003 8.58415 10.7727 9.37231 10.3724C9.64162 10.2357 9.74902 9.90651 9.61225 9.6372C9.4755 9.36792 9.14631 9.26054 8.877 9.39726C8.15147 9.76577 7.32544 9.96054 6.48829 9.96054C5.76084 9.96054 5.06048 9.81912 4.40678 9.54019C4.26762 9.4808 4.11001 9.4817 3.97157 9.54279L2.05866 10.386L2.70272 8.79283C2.77909 8.60391 2.74412 8.38817 2.61191 8.2331C1.94584 7.45168 1.59377 6.51598 1.59377 5.52715C1.59377 3.08254 3.78944 1.09375 6.48829 1.09375C9.18714 1.09375 11.3828 3.08254 11.3828 5.52715C11.3828 6.31672 11.1507 7.09186 10.7115 7.76875C10.5471 8.02212 10.6192 8.36077 10.8726 8.52516C11.1259 8.68961 11.4646 8.61742 11.629 8.36405C12.0188 7.76334 12.2792 7.10009 12.3996 6.41125C13.0402 7.03862 13.4062 7.86498 13.4062 8.73699C13.4062 9.50059 13.134 10.2236 12.619 10.8277C12.4868 10.9828 12.4518 11.1986 12.5282 11.3875ZM7.00782 8.33983C7.00782 8.64187 6.76298 8.8867 6.46094 8.8867C6.15891 8.8867 5.91407 8.64187 5.91407 8.33983C5.91407 8.03779 6.15891 7.79295 6.46094 7.79295C6.76298 7.79295 7.00782 8.03779 7.00782 8.33983ZM8.5386 4.24243C8.53893 4.25003 8.53909 4.25763 8.53909 4.26532C8.53928 5.08855 8.05013 5.8294 7.29296 6.15263C7.13628 6.21954 7.035 6.37734 7.035 6.55461V6.58983C7.035 6.89187 6.79016 7.1367 6.48812 7.1367C6.18608 7.1367 5.94125 6.89187 5.94125 6.58983V6.55464C5.94125 5.93856 6.30325 5.38594 6.86352 5.14677C7.21224 4.99788 7.43919 4.65934 7.44521 4.28126C7.44507 4.27601 7.44499 4.27073 7.44499 4.26545C7.44499 3.73786 7.01575 3.30861 6.48812 3.30861C5.96053 3.30859 5.53126 3.73783 5.53126 4.26542C5.53126 4.56746 5.28642 4.8123 4.98438 4.8123C4.68235 4.8123 4.43751 4.56746 4.43751 4.26542C4.43751 3.13474 5.35741 2.21484 6.48812 2.21484C7.61116 2.21484 8.52627 3.12229 8.5386 4.24243Z" fill="#374957"/>
</svg>
