<svg width="28" height="29" viewBox="0 0 28 29" fill="none" xmlns="http://www.w3.org/2000/svg">
<path d="M4.36523 6.78198H26.8168L24.1832 19.7177H6.38636L4.36523 6.78198Z" stroke="white" stroke-width="1.55" stroke-miterlimit="10"/>
<path d="M4.36266 6.78182L3.5374 1.5H0.183594" stroke="white" stroke-width="1.55" stroke-miterlimit="10"/>
<path d="M20.7924 23.6734H5.23994C4.26552 23.6734 3.43626 22.9637 3.28586 22.0009C3.09845 20.8014 4.02594 19.7178 5.23994 19.7178H6.38186" stroke="white" stroke-width="1.55" stroke-miterlimit="10"/>
<path d="M20.7924 27.5001C21.8492 27.5001 22.7059 26.6434 22.7059 25.5866C22.7059 24.5298 21.8492 23.6731 20.7924 23.6731C19.7356 23.6731 18.8789 24.5298 18.8789 25.5866C18.8789 26.6434 19.7356 27.5001 20.7924 27.5001Z" stroke="white" stroke-width="1.55" stroke-miterlimit="10"/>
<path d="M10.3823 27.5001C11.4391 27.5001 12.2958 26.6434 12.2958 25.5866C12.2958 24.5298 11.4391 23.6731 10.3823 23.6731C9.32546 23.6731 8.46875 24.5298 8.46875 25.5866C8.46875 26.6434 9.32546 27.5001 10.3823 27.5001Z" stroke="white" stroke-width="1.55" stroke-miterlimit="10"/>
<path d="M13.9062 9.85107V16.6482" stroke="white" stroke-width="1.55" stroke-miterlimit="10"/>
<path d="M17.1426 9.85107V16.6482" stroke="white" stroke-width="1.55" stroke-miterlimit="10"/>
<path d="M20.3809 9.85107V16.6482" stroke="white" stroke-width="1.55" stroke-miterlimit="10"/>
<path d="M10.6699 9.85107V16.6482" stroke="white" stroke-width="1.55" stroke-miterlimit="10"/>
</svg>
