<svg width="18" height="18" viewBox="0 0 18 18" fill="none" xmlns="http://www.w3.org/2000/svg">
<path d="M8.75 0C9.04008 0 9.31828 0.115234 9.5234 0.320352C9.72852 0.52547 9.84375 0.803669 9.84375 1.09375V7.65625H16.4062C16.6963 7.65625 16.9745 7.77148 17.1796 7.9766C17.3848 8.18172 17.5 8.45992 17.5 8.75C17.5 9.04008 17.3848 9.31828 17.1796 9.5234C16.9745 9.72852 16.6963 9.84375 16.4062 9.84375H9.84375V16.4062C9.84375 16.6963 9.72852 16.9745 9.5234 17.1796C9.31828 17.3848 9.04008 17.5 8.75 17.5C8.45992 17.5 8.18172 17.3848 7.9766 17.1796C7.77148 16.9745 7.65625 16.6963 7.65625 16.4062V9.84375H1.09375C0.803669 9.84375 0.52547 9.72852 0.320352 9.5234C0.115234 9.31828 0 9.04008 0 8.75C0 8.45992 0.115234 8.18172 0.320352 7.9766C0.52547 7.77148 0.803669 7.65625 1.09375 7.65625H7.65625V1.09375C7.65625 0.803669 7.77148 0.52547 7.9766 0.320352C8.18172 0.115234 8.45992 0 8.75 0Z" fill="#2F2C24"/>
</svg>
