<svg width="45" height="48" viewBox="0 0 45 48" fill="none" xmlns="http://www.w3.org/2000/svg">
<path d="M29.4435 18.2832H0.916504V12.5778H29.4435V18.2832Z" stroke="#374957" stroke-width="1.5" stroke-miterlimit="10"/>
<path d="M3.76904 18.2828L6.62174 47H23.7379" stroke="#374957" stroke-width="1.5" stroke-miterlimit="10"/>
<path d="M25.7349 27.0312L26.5907 18.283" stroke="#374957" stroke-width="1.5" stroke-miterlimit="10"/>
<path d="M26.5906 12.5762L23.7379 6.87078H6.62174L3.76904 12.5762" stroke="#374957" stroke-width="1.5" stroke-miterlimit="10"/>
<path d="M5.1958 1.1657H12.3275L13.7539 6.87109" stroke="#374957" stroke-width="1.5" stroke-miterlimit="10"/>
<path d="M43.707 35.5898H18.0327V32.7371C18.0327 29.5862 20.5871 27.0317 23.7381 27.0317H38.0016C41.1526 27.0317 43.707 29.5862 43.707 32.7371V35.5898Z" stroke="#374957" stroke-width="1.5" stroke-miterlimit="10"/>
<path d="M20.8853 41.2949V35.5895" stroke="#374957" stroke-width="1.5" stroke-miterlimit="10"/>
<path d="M38.0016 47H23.7381C20.5871 47 18.0327 44.4456 18.0327 41.2946H43.707C43.707 44.4456 41.1526 47 38.0016 47Z" stroke="#374957" stroke-width="1.5" stroke-miterlimit="10"/>
</svg>
