<svg width="40" height="40" viewBox="0 0 40 40" fill="none" xmlns="http://www.w3.org/2000/svg">
<path d="M26.0282 17.3491C25.1186 18.2586 23.644 18.2586 22.7344 17.3491C21.8249 16.4395 21.8249 14.9649 22.7344 14.0553C23.644 13.1458 25.1186 13.1458 26.0282 14.0553C26.9377 14.9649 26.9377 16.4395 26.0282 17.3491Z" stroke="#374957" stroke-width="1.5" stroke-miterlimit="10" stroke-linecap="round" stroke-linejoin="round"/>
<path d="M29.3217 14.0561C28.4121 14.9657 26.9374 14.9657 26.0279 14.0561C25.1183 13.1465 25.1183 11.6719 26.0279 10.7623C26.9374 9.8528 28.4121 9.8528 29.3217 10.7623C30.2312 11.6719 30.2312 13.1465 29.3217 14.0561Z" stroke="#374957" stroke-width="1.5" stroke-miterlimit="10" stroke-linecap="round" stroke-linejoin="round"/>
<path d="M36.7326 9.93894C34.4587 12.2129 31.1407 12.5815 29.3216 10.7623C27.5025 8.94327 27.8712 5.62531 30.145 3.35139C32.4189 1.07755 35.7369 0.708858 37.556 2.528C39.3751 4.34706 39.0065 7.66509 36.7326 9.93894Z" stroke="#374957" stroke-width="1.5" stroke-miterlimit="10" stroke-linecap="round" stroke-linejoin="round"/>
<path d="M20.3788 29.587L18.275 27.4833C18.6849 25.9325 18.301 24.2156 17.085 22.9995C15.869 21.7834 14.1521 21.3997 12.6012 21.8095L10.4974 19.7058L7.20361 22.9996L9.30736 25.1033C8.89753 26.6542 9.28135 28.3711 10.4974 29.587C11.7134 30.8032 13.4303 31.1869 14.9812 30.7771L17.085 32.8809L20.3788 29.587Z" stroke="#374957" stroke-width="1.5" stroke-miterlimit="10" stroke-linecap="round" stroke-linejoin="round"/>
<path d="M4.95279 35.1312C0.0680144 30.2463 0.0676262 22.3398 4.95279 17.4547C9.83764 12.5699 17.7441 12.5695 22.6293 17.4547C27.5141 22.3395 27.5144 30.2459 22.6293 35.1312C17.7445 40.016 9.83803 40.0164 4.95279 35.1312Z" stroke="#374957" stroke-width="1.5" stroke-miterlimit="10" stroke-linecap="round" stroke-linejoin="round"/>
</svg>
