<svg width="47" height="47" viewBox="0 0 47 47" fill="none" xmlns="http://www.w3.org/2000/svg">
<path d="M31.564 23.1152H45.9503V28.6484H32.0251" stroke="#374957" stroke-width="1.5" stroke-miterlimit="10"/>
<path d="M15.4252 28.6484H1.5V23.1152H15.8863" stroke="#374957" stroke-width="1.5" stroke-miterlimit="10"/>
<path d="M29.2583 39.7148H18.1919C16.664 39.7148 15.4253 38.4761 15.4253 36.9482C15.4253 35.4203 16.664 34.1816 18.1919 34.1816H29.2583C30.7862 34.1816 32.0249 35.4203 32.0249 36.9482C32.0249 38.4761 30.7862 39.7148 29.2583 39.7148Z" stroke="#374957" stroke-width="1.5" stroke-miterlimit="10"/>
<path d="M28.0959 12.0488H19.3542C17.9153 12.0488 16.7166 13.1518 16.5972 14.5857L15.4253 28.6484H32.0249L30.853 14.5857C30.7335 13.1518 29.5349 12.0488 28.0959 12.0488Z" stroke="#374957" stroke-width="1.5" stroke-miterlimit="10"/>
<path d="M16.3475 17.582H9.89209V0.798002H37.5581V17.582H31.1027" stroke="#374957" stroke-width="1.5" stroke-miterlimit="10"/>
<path d="M23.7251 45.248V39.7148" stroke="#374957" stroke-width="1.5" stroke-miterlimit="10"/>
<path d="M23.7251 34.1816V28.6484" stroke="#374957" stroke-width="1.5" stroke-miterlimit="10"/>
<path d="M16.8086 45.248H30.6416" stroke="#374957" stroke-width="1.5" stroke-miterlimit="10"/>
<path d="M4.2666 28.648V46.6309" stroke="#374957" stroke-width="1.5" stroke-miterlimit="10"/>
<path d="M43.1836 28.648V46.6309" stroke="#374957" stroke-width="1.5" stroke-miterlimit="10"/>
</svg>
