<svg width="48" height="48" viewBox="0 0 48 48" fill="none" xmlns="http://www.w3.org/2000/svg">
<path d="M28.7598 6.33801C30.441 6.77191 32.0292 7.43801 33.4875 8.30048C33.4875 8.30048 34.1902 7.59767 34.9793 6.80851C35.5523 6.23493 36.3299 5.91324 37.1404 5.91324C37.95 5.91324 38.7278 6.23493 39.3007 6.80851C39.9958 7.50372 40.7658 8.27366 41.4609 8.96886C42.0346 9.54178 42.3562 10.3194 42.3562 11.1291C42.3562 11.9397 42.0346 12.7172 41.4609 13.2901C40.6718 14.0793 39.9691 14.782 39.9691 14.782C40.8314 16.2403 41.4975 17.8284 41.9315 19.5098H44.0375C45.7249 19.5098 47.0931 20.8779 47.0931 22.5653V25.6209C47.0931 27.3083 45.7249 28.6764 44.0375 28.6764H41.9315C41.4975 30.3577 40.8314 31.9459 39.9691 33.4041C39.9691 33.4041 40.6718 34.1069 41.4609 34.896C42.0346 35.469 42.3562 36.2465 42.3562 37.0571C42.3562 37.8668 42.0346 38.6444 41.4609 39.2173C40.7658 39.9124 39.9958 40.6825 39.3007 41.3776C38.7278 41.9513 37.95 42.2729 37.1404 42.2729C36.3299 42.2729 35.5523 41.9513 34.9793 41.3776C34.1902 40.5884 33.4875 39.8857 33.4875 39.8857C32.0292 40.7481 30.441 41.4143 28.7598 41.8481V43.9541C28.7598 45.6416 27.3916 47.0098 25.7041 47.0098H22.6486C20.9612 47.0098 19.5931 45.6416 19.5931 43.9541V41.8481C17.9118 41.4143 16.3236 40.7481 14.8653 39.8857C14.8653 39.8857 14.1626 40.5884 13.3735 41.3776C12.8005 41.9513 12.0229 42.2729 11.2124 42.2729C10.4028 42.2729 9.62502 41.9513 9.05219 41.3776C8.35709 40.6825 7.58705 39.9124 6.89185 39.2173C6.31826 38.6444 5.99657 37.8668 5.99657 37.0571C5.99657 36.2465 6.31826 35.469 6.89185 34.896C7.681 34.1069 8.38381 33.4041 8.38381 33.4041C7.52134 31.9459 6.85533 30.3577 6.42134 28.6764H4.31538C2.62792 28.6764 1.25977 27.3083 1.25977 25.6209V22.5653C1.25977 20.8779 2.62792 19.5098 4.31538 19.5098H6.42134C6.85533 17.8284 7.52134 16.2403 8.38381 14.782C8.38381 14.782 7.681 14.0793 6.89185 13.2901C6.31826 12.7172 5.99657 11.9397 5.99657 11.1291C5.99657 10.3194 6.31826 9.54178 6.89185 8.96886C7.58705 8.27366 8.35709 7.50372 9.05219 6.80851C9.62502 6.23493 10.4028 5.91324 11.2124 5.91324C12.0229 5.91324 12.8005 6.23493 13.3735 6.80851C14.1626 7.59767 14.8653 8.30048 14.8653 8.30048C16.3236 7.43801 17.9118 6.77191 19.5931 6.33801V4.23196C19.5931 2.54449 20.9612 1.17644 22.6486 1.17644H25.7041C27.3916 1.17644 28.7598 2.54449 28.7598 4.23196V6.33801Z" stroke="#374957" stroke-width="1.5" stroke-miterlimit="10" stroke-linecap="round" stroke-linejoin="round"/>
<path d="M24.1764 14.9264C29.2357 14.9264 33.3431 19.0338 33.3431 24.0931C33.3431 29.1523 29.2357 33.2598 24.1764 33.2598C19.1172 33.2598 15.0098 29.1523 15.0098 24.0931C15.0098 19.0338 19.1172 14.9264 24.1764 14.9264Z" stroke="#374957" stroke-width="1.5" stroke-miterlimit="10" stroke-linecap="round" stroke-linejoin="round"/>
</svg>
