<svg width="49" height="48" viewBox="0 0 49 48" fill="none" xmlns="http://www.w3.org/2000/svg">
<path d="M47.2711 23.9941C44.1201 20.8431 39.0113 20.8431 35.8603 23.9941C32.7093 20.8431 27.6005 20.8431 24.4495 23.9941C21.2985 20.8431 16.1897 20.8431 13.0387 23.9941C9.88773 20.8431 4.77893 20.8431 1.62793 23.9941C1.62793 11.3902 11.8455 4.02525 24.4495 4.02525C37.0535 4.02525 47.2711 11.3902 47.2711 23.9941Z" stroke="#374957" stroke-width="1.5" stroke-miterlimit="10" stroke-linecap="round" stroke-linejoin="round"/>
<path d="M24.4497 1.17255V23.9941" stroke="#374957" stroke-width="1.5" stroke-miterlimit="10" stroke-linecap="round" stroke-linejoin="round"/>
<path d="M24.4497 23.9941V42.7268C24.4497 45.0901 26.3655 47.0059 28.7288 47.0059C31.092 47.0059 33.0078 45.0901 33.0078 42.7268V41.3005" stroke="#374957" stroke-width="1.5" stroke-miterlimit="10" stroke-linecap="round" stroke-linejoin="round"/>
<path d="M21.5972 38.4492H24.4499" stroke="#374957" stroke-width="1.5" stroke-miterlimit="10" stroke-linecap="round" stroke-linejoin="round"/>
<path d="M13.0391 23.9941C13.0391 11.3902 18.1479 4.02525 24.4499 4.02525C30.7518 4.02525 35.8606 11.3902 35.8606 23.9941" stroke="#374957" stroke-width="1.5" stroke-miterlimit="10" stroke-linecap="round" stroke-linejoin="round"/>
</svg>
