<svg width="14" height="13" viewBox="0 0 14 13" fill="none" xmlns="http://www.w3.org/2000/svg">
<g clip-path="url(#clip0_46_168)">
<path d="M2.46445 13H11.5356C12.4865 13 13.2593 12.2272 13.2593 11.2763V2.68665C13.2593 1.73573 12.4865 0.962945 11.5356 0.962945H10.8519V0.481473C10.8519 0.216655 10.6352 0 10.3703 0C10.1055 0 9.88888 0.216655 9.88888 0.481473V0.962945H4.11113V0.481473C4.11113 0.216655 3.89443 0 3.62961 0C3.3648 0 3.14814 0.216655 3.14814 0.481473V0.962945H2.46445C1.51352 0.962945 0.740738 1.73573 0.740738 2.68665V11.2763C0.740738 12.2272 1.51352 13 2.46445 13ZM1.70372 2.68665C1.70372 2.26778 2.04557 1.92593 2.46445 1.92593H3.14814V2.4074C3.14814 2.67222 3.3648 2.88888 3.62961 2.88888C3.89443 2.88888 4.11109 2.67222 4.11109 2.4074V1.92593H9.88888V2.4074C9.88888 2.67222 10.1055 2.88888 10.3703 2.88888C10.6352 2.88888 10.8518 2.67222 10.8518 2.4074V1.92593H11.5355C11.9544 1.92593 12.2962 2.26778 12.2962 2.68665V4.0926H1.70372V2.68665ZM1.70372 5.05554H12.2963V11.2763C12.2963 11.6952 11.9545 12.037 11.5356 12.037H2.46445C2.04557 12.037 1.70372 11.6952 1.70372 11.2763V5.05554Z" fill="black"/>
</g>
<defs>
<clipPath id="clip0_46_168">
<rect width="13" height="13" fill="white" transform="translate(0.5)"/>
</clipPath>
</defs>
</svg>
