<svg width="54" height="54" viewBox="0 0 54 54" fill="none" xmlns="http://www.w3.org/2000/svg">
<path d="M29.8331 23.1002L38.1126 23.3892L31.5842 28.4896L33.8679 36.4532L26.9997 31.8204L20.1315 36.4531L22.4151 28.4896L15.8867 23.3892L24.1663 23.1002L26.9997 15.3151L29.8331 23.1002Z" stroke="#34224F" stroke-width="1.5" stroke-miterlimit="2.613" stroke-linecap="round" stroke-linejoin="round"/>
<path d="M27 5.75655V10.5122M27 1.00005V1.00079" stroke="#34224F" stroke-width="1.5" stroke-miterlimit="22.926" stroke-linecap="round" stroke-linejoin="round"/>
<path d="M8.60269 16.3784L12.7211 18.7562M4.4834 14.0001L4.48414 14.0005" stroke="#34224F" stroke-width="1.5" stroke-miterlimit="22.926" stroke-linecap="round" stroke-linejoin="round"/>
<path d="M8.60269 37.6218L12.7211 35.2439M4.4834 40L4.48414 39.9996" stroke="#34224F" stroke-width="1.5" stroke-miterlimit="22.926" stroke-linecap="round" stroke-linejoin="round"/>
<path d="M27 48.2435V43.4878M27 53V52.9993" stroke="#34224F" stroke-width="1.5" stroke-miterlimit="22.926" stroke-linecap="round" stroke-linejoin="round"/>
<path d="M45.3977 37.6218L41.2793 35.2439M49.517 40L49.5163 39.9997" stroke="#34224F" stroke-width="1.5" stroke-miterlimit="22.926" stroke-linecap="round" stroke-linejoin="round"/>
<path d="M45.3977 16.3783L41.2793 18.7561M49.517 14L49.5163 14.0003" stroke="#34224F" stroke-width="1.5" stroke-miterlimit="22.926" stroke-linecap="round" stroke-linejoin="round"/>
<path d="M16.3778 8.6019L14 4.48335M18.7561 12.7212L18.7558 12.7205" stroke="#34224F" stroke-width="1.5" stroke-miterlimit="22.926" stroke-linecap="round" stroke-linejoin="round"/>
<path d="M5.75565 27H1M10.5122 27H10.5114" stroke="#34224F" stroke-width="1.5" stroke-miterlimit="22.926" stroke-linecap="round" stroke-linejoin="round"/>
<path d="M16.3778 45.3981L14 49.5166M18.7561 41.2789L18.7557 41.2795" stroke="#34224F" stroke-width="1.5" stroke-miterlimit="22.926" stroke-linecap="round" stroke-linejoin="round"/>
<path d="M37.6224 45.3981L40.0002 49.5166M35.2441 41.2789L35.2445 41.2795" stroke="#34224F" stroke-width="1.5" stroke-miterlimit="22.926" stroke-linecap="round" stroke-linejoin="round"/>
<path d="M48.2448 27H53.0004M43.4883 27H43.489" stroke="#34224F" stroke-width="1.5" stroke-miterlimit="22.926" stroke-linecap="round" stroke-linejoin="round"/>
<path d="M37.6224 8.6019L40.0002 4.48335M35.2441 12.7212L35.2446 12.7205" stroke="#34224F" stroke-width="1.5" stroke-miterlimit="22.926" stroke-linecap="round" stroke-linejoin="round"/>
</svg>
