<svg width="54" height="54" viewBox="0 0 54 54" fill="none" xmlns="http://www.w3.org/2000/svg">
<path d="M31.2188 25.8205V16.4907L22.7647 16.491V25.731H17.623L27.0511 33.9645L36.3604 25.8205H31.2188Z" stroke="#34224F" stroke-width="1.5" stroke-miterlimit="10" stroke-linecap="round" stroke-linejoin="round"/>
<path d="M14.5957 10.3298V1L6.14163 1.00043V10.2402H1L10.428 18.4738L19.7374 10.3298H14.5957Z" stroke="#34224F" stroke-width="1.5" stroke-miterlimit="10" stroke-linecap="round" stroke-linejoin="round"/>
<path d="M47.8399 10.3298V1L39.3858 1.00043V10.2402H34.2441L43.6722 18.4738L52.9815 10.3298H47.8399Z" stroke="#34224F" stroke-width="1.5" stroke-miterlimit="10" stroke-linecap="round" stroke-linejoin="round"/>
<path d="M1.01758 47.353C17.0527 54.8781 36.9333 54.8828 52.9739 47.3652L53 47.353" stroke="#34224F" stroke-width="1.5" stroke-miterlimit="10" stroke-linecap="round" stroke-linejoin="round"/>
<path d="M1.01758 40.177C19.5049 48.8529 34.4811 48.856 52.9739 40.1892L53 40.177" stroke="#34224F" stroke-width="1.5" stroke-miterlimit="10" stroke-linecap="round" stroke-linejoin="round"/>
<path d="M1.01758 33.4908C19.5049 42.1667 34.4811 42.1699 52.9739 33.503L53 33.4908" stroke="#34224F" stroke-width="1.5" stroke-miterlimit="10" stroke-linecap="round" stroke-linejoin="round"/>
</svg>
