<svg width="54" height="54" viewBox="0 0 54 54" fill="none" xmlns="http://www.w3.org/2000/svg">
<path d="M35.6667 51.5206C45.7651 47.9515 53 38.3207 53 27.0001C53 12.6407 41.3595 1.00004 27 1.00004L35.6667 9.66675" stroke="#34224F" stroke-width="1.5" stroke-miterlimit="10" stroke-linecap="round" stroke-linejoin="round"/>
<path d="M18.3333 2.47941C8.23495 6.04857 1 15.6794 1 27C1 41.3594 12.6405 53 27 53L18.3333 44.3333" stroke="#34224F" stroke-width="1.5" stroke-miterlimit="10" stroke-linecap="round" stroke-linejoin="round"/>
<path d="M35.6668 27C35.6668 31.7865 31.7866 35.6667 27.0001 35.6667C22.2137 35.6667 18.3335 31.7865 18.3335 27C18.3335 22.2136 22.2137 18.3333 27.0001 18.3333C31.7866 18.3333 35.6668 22.2136 35.6668 27Z" stroke="#34224F" stroke-width="1.5" stroke-miterlimit="10" stroke-linecap="round" stroke-linejoin="round"/>
</svg>
