<svg width="63" height="54" viewBox="0 0 63 54" fill="none" xmlns="http://www.w3.org/2000/svg">
<path d="M24.7598 12.3296L27.294 14.8639" stroke="#34224F" stroke-width="1.5" stroke-miterlimit="10" stroke-linecap="round" stroke-linejoin="round"/>
<path d="M23.1865 18.6781L20.8867 16.3782" stroke="#34224F" stroke-width="1.5" stroke-miterlimit="10" stroke-linecap="round" stroke-linejoin="round"/>
<path d="M17.2398 11.2777L15.5855 12.932C15.1147 13.4027 15.1147 14.1661 15.5855 14.6368L18.0118 17.0631C18.4825 17.5339 19.2459 17.5339 19.7166 17.0631L25.5327 11.247C26.0035 10.7763 26.0035 10.0129 25.5327 9.54219L23.1064 7.11587C22.6357 6.64513 21.8723 6.64513 21.4016 7.11587L20.0645 8.45301" stroke="#34224F" stroke-width="1.5" stroke-miterlimit="10" stroke-linecap="round" stroke-linejoin="round"/>
<path d="M37.479 10.6198V7.14905" stroke="#34224F" stroke-width="1.5" stroke-miterlimit="10" stroke-linecap="round" stroke-linejoin="round"/>
<path d="M43.0796 7.03198V10.6199" stroke="#34224F" stroke-width="1.5" stroke-miterlimit="10" stroke-linecap="round" stroke-linejoin="round"/>
<path d="M56.6798 29.7623C55.6711 21.6012 48.7134 15.2834 40.2794 15.2834C31.1521 15.2834 23.7529 22.6826 23.7529 31.81C23.7529 40.9373 31.1521 48.3365 40.2794 48.3365C48.7481 48.3365 55.7277 41.9664 56.6913 33.7567" stroke="#34224F" stroke-width="1.5" stroke-miterlimit="10" stroke-linecap="round" stroke-linejoin="round"/>
<path d="M26.8178 48.1751C30.4782 51.1896 35.1673 53 40.2794 53C51.9824 53 61.4695 43.5129 61.4695 31.8099C61.4695 20.107 51.9824 10.6199 40.2794 10.6199C28.5765 10.6199 19.0894 20.107 19.0894 31.8099C19.0894 36.9624 20.929 41.6847 23.9863 45.3576" stroke="#34224F" stroke-width="1.5" stroke-miterlimit="10" stroke-linecap="round" stroke-linejoin="round"/>
<path d="M40.2793 19.0312V20.2986" stroke="#34224F" stroke-width="1.5" stroke-miterlimit="10" stroke-linecap="round" stroke-linejoin="round"/>
<path d="M40.2793 43.322V44.5894" stroke="#34224F" stroke-width="1.5" stroke-miterlimit="10" stroke-linecap="round" stroke-linejoin="round"/>
<path d="M53.0584 31.8103H51.791" stroke="#34224F" stroke-width="1.5" stroke-miterlimit="10" stroke-linecap="round" stroke-linejoin="round"/>
<path d="M28.7679 31.8103H27.5005" stroke="#34224F" stroke-width="1.5" stroke-miterlimit="10" stroke-linecap="round" stroke-linejoin="round"/>
<path d="M40.2792 33.7997C41.3781 33.7997 42.2688 32.9089 42.2688 31.8101C42.2688 30.7112 41.3781 29.8204 40.2792 29.8204C39.1803 29.8204 38.2896 30.7112 38.2896 31.8101C38.2896 32.9089 39.1803 33.7997 40.2792 33.7997Z" stroke="#34224F" stroke-width="1.5" stroke-miterlimit="10" stroke-linecap="round" stroke-linejoin="round"/>
<path d="M38.8722 33.2169L33.0254 39.0637" stroke="#34224F" stroke-width="1.5" stroke-miterlimit="10" stroke-linecap="round" stroke-linejoin="round"/>
<path d="M44.3916 6.84229H36.1664C35.5007 6.84229 34.9609 6.30257 34.9609 5.6368V2.20549C34.9609 1.53972 35.5007 1 36.1664 1H44.3916C45.0574 1 45.5971 1.53972 45.5971 2.20549V5.6368C45.5971 6.30257 45.0574 6.84229 44.3916 6.84229Z" stroke="#34224F" stroke-width="1.5" stroke-miterlimit="10" stroke-linecap="round" stroke-linejoin="round"/>
<path d="M19.0892 31.8099H5.8252" stroke="#34224F" stroke-width="1.5" stroke-miterlimit="10" stroke-linecap="round" stroke-linejoin="round"/>
<path d="M20.5062 24.1755H1" stroke="#34224F" stroke-width="1.5" stroke-miterlimit="10" stroke-linecap="round" stroke-linejoin="round"/>
<path d="M3.4126 27.9927H19.4328" stroke="#34224F" stroke-width="1.5" stroke-miterlimit="10" stroke-linecap="round" stroke-linejoin="round"/>
<path d="M8.23779 35.6278H19.4329" stroke="#34224F" stroke-width="1.5" stroke-miterlimit="10" stroke-linecap="round" stroke-linejoin="round"/>
<path d="M10.6504 39.4453H20.5063" stroke="#34224F" stroke-width="1.5" stroke-miterlimit="10" stroke-linecap="round" stroke-linejoin="round"/>
<path d="M13.063 43.2627H22.1648" stroke="#34224F" stroke-width="1.5" stroke-miterlimit="10" stroke-linecap="round" stroke-linejoin="round"/>
</svg>
