<svg width="62" height="54" viewBox="0 0 62 54" fill="none" xmlns="http://www.w3.org/2000/svg">
<path d="M27.1242 17.7143C27.1242 22.8426 22.9668 27 17.8384 27C12.7101 27 8.55273 22.8426 8.55273 17.7143C8.55273 12.586 12.7101 8.42857 17.8384 8.42857C22.9668 8.42857 27.1242 12.586 27.1242 17.7143Z" stroke="#34224F" stroke-width="1.5" stroke-miterlimit="10"/>
<path d="M34.5524 53H1V47.4286C1 38.1975 8.60698 30.7143 17.8381 30.7143C27.0692 30.7143 34.5524 38.1975 34.5524 47.4286V53Z" stroke="#34224F" stroke-width="1.5" stroke-miterlimit="10"/>
<path d="M53.1242 10.2857C53.1242 15.414 48.9668 19.5714 43.8384 19.5714C38.7101 19.5714 34.5527 15.414 34.5527 10.2857C34.5527 5.15738 38.7101 0.999983 43.8384 0.999983C48.9668 0.999983 53.1242 5.15738 53.1242 10.2857Z" stroke="#34224F" stroke-width="1.5" stroke-miterlimit="10"/>
<path d="M28.1348 34.2617C30.4758 27.8572 36.6231 23.2857 43.838 23.2857C53.0691 23.2857 60.6761 30.769 60.6761 40V45.5714H34.4503" stroke="#34224F" stroke-width="1.5" stroke-miterlimit="10"/>
</svg>
