<svg width="61" height="54" viewBox="0 0 61 54" fill="none" xmlns="http://www.w3.org/2000/svg">
<path d="M59.428 29.4481L56.2174 33.0828L53.0068 29.4481" stroke="#34224F" stroke-width="1.5" stroke-miterlimit="10" stroke-linecap="round" stroke-linejoin="round"/>
<path d="M9.08887 11.8377C13.8091 5.27427 21.5125 1.00005 30.2143 1.00005C44.5756 1.00005 56.2177 12.6421 56.2177 27.0035V33.0828" stroke="#34224F" stroke-width="1.5" stroke-miterlimit="10" stroke-linecap="round" stroke-linejoin="round"/>
<path d="M1 24.552L4.21064 20.9173L7.42115 24.552" stroke="#34224F" stroke-width="1.5" stroke-miterlimit="10" stroke-linecap="round" stroke-linejoin="round"/>
<path d="M51.3397 42.1623C46.6195 48.7258 38.9161 53 30.2143 53C15.853 53 4.21094 41.3579 4.21094 26.9966V20.9173" stroke="#34224F" stroke-width="1.5" stroke-miterlimit="10" stroke-linecap="round" stroke-linejoin="round"/>
<path d="M35.6686 26.9966C35.6686 30.0093 33.2264 32.4515 30.2137 32.4515C27.201 32.4515 24.7588 30.0093 24.7588 26.9966C24.7588 23.984 27.201 21.5417 30.2137 21.5417C33.2264 21.5417 35.6686 23.984 35.6686 26.9966Z" stroke="#34224F" stroke-width="1.5" stroke-miterlimit="10" stroke-linecap="round" stroke-linejoin="round"/>
<path d="M42.9426 26.9966C42.9426 25.977 42.822 24.9858 42.5956 24.0355L46.3929 21.843L42.7563 15.5443L38.9512 17.7412C37.5233 16.3927 35.7834 15.3717 33.8511 14.7966V10.4028H26.5779V14.7966C24.6458 15.3717 22.9059 16.3927 21.478 17.7412L17.6727 15.5443L14.0361 21.843L17.8335 24.0355C17.607 24.9858 17.4864 25.977 17.4864 26.9966C17.4864 28.0085 17.6052 28.9927 17.8283 29.9365L14.0361 32.1259L17.6727 38.4247L21.4618 36.2371C22.8928 37.5929 24.6385 38.6193 26.5779 39.1967V43.5662H33.8511V39.1967C35.7905 38.6193 37.5362 37.5929 38.9672 36.2371L42.7563 38.4247L46.3929 32.1259L42.6008 29.9365C42.824 28.9927 42.9426 28.0085 42.9426 26.9966Z" stroke="#34224F" stroke-width="1.5" stroke-miterlimit="10" stroke-linecap="round" stroke-linejoin="round"/>
</svg>
