<svg width="48" height="46" viewBox="0 0 48 46" fill="none" xmlns="http://www.w3.org/2000/svg">
<path d="M5.14355 19.5007H32.7763L29.5349 35.4216H7.63111L5.14355 19.5007Z" stroke="black" stroke-width="2" stroke-miterlimit="10"/>
<path d="M5.14348 19.5007L4.12777 13H0" stroke="black" stroke-width="2" stroke-miterlimit="10"/>
<path d="M25.3662 40.2903H6.22466C5.02536 40.2903 4.00474 39.4169 3.81963 38.2319C3.58898 36.7556 4.7305 35.4219 6.22466 35.4219H7.6301" stroke="black" stroke-width="2" stroke-miterlimit="10"/>
<path d="M25.3664 45C26.6671 45 27.7215 43.9456 27.7215 42.6449C27.7215 41.3442 26.6671 40.2898 25.3664 40.2898C24.0658 40.2898 23.0114 41.3442 23.0114 42.6449C23.0114 43.9456 24.0658 45 25.3664 45Z" stroke="black" stroke-width="2" stroke-miterlimit="10"/>
<path d="M12.5538 45C13.8545 45 14.9089 43.9456 14.9089 42.6449C14.9089 41.3442 13.8545 40.2898 12.5538 40.2898C11.2531 40.2898 10.1987 41.3442 10.1987 42.6449C10.1987 43.9456 11.2531 45 12.5538 45Z" stroke="black" stroke-width="2" stroke-miterlimit="10"/>
<path d="M16.8901 23.2783V31.6441" stroke="black" stroke-width="2" stroke-miterlimit="10"/>
<path d="M20.8737 23.2783V31.6441" stroke="black" stroke-width="2" stroke-miterlimit="10"/>
<path d="M24.8577 23.2783V31.6441" stroke="black" stroke-width="2" stroke-miterlimit="10"/>
<path d="M12.9061 23.2783V31.6441" stroke="black" stroke-width="2" stroke-miterlimit="10"/>
</svg>
