<svg width="195" height="55" viewBox="0 0 195 55" fill="none" xmlns="http://www.w3.org/2000/svg">
<g clip-path="url(#clip0_127_2667)">
<path d="M73.1126 3.07834C74.6473 2.52888 76.8739 4.42928 78.0815 6.60647L72.9365 6.59821C72.5214 6.39991 71.9553 5.48276 72.0056 4.51603C72.0433 3.80132 72.404 3.33035 73.1126 3.07834ZM85.9857 3.10313C86.6943 3.35927 87.055 3.83437 87.0885 4.54909C87.1346 5.51581 86.5644 6.42883 86.1492 6.62713L81 6.61887C82.2202 4.4458 84.4552 2.55367 85.9857 3.10726V3.10313ZM69.6616 9.56861L92.4264 9.61406V6.63539L89.7428 6.63126C90.007 5.93307 90.1369 5.17291 90.1034 4.40862C90.0112 2.4793 88.8916 0.983773 87.0256 0.30624C84.3462 -0.664616 81.5158 0.950723 79.5408 3.39645C77.5825 0.938329 74.7563 -0.685272 72.0727 0.277321C70.2067 0.946591 69.0788 2.43799 68.9823 4.36318C68.9446 5.12747 69.0704 5.88763 69.3303 6.58582H66.6425L66.6006 28.2917L86.2121 28.3041V25.3254L69.6323 25.3171L69.6658 9.56035L69.6616 9.56861Z" fill="#003770"/>
<path d="M18.9993 25.3983C16.7811 27.53 14.2023 28.5918 11.2545 28.5918C8.10124 28.5918 5.43856 27.5011 3.2623 25.3281C1.08604 23.155 0 20.5399 0 17.4992C0 14.4586 1.08604 11.8807 3.2623 9.68695C5.43856 7.49323 8.10124 6.39844 11.2545 6.39844C14.1897 6.39844 16.8776 7.51389 19.318 9.74892L17.4185 11.4345C15.4267 9.67456 13.3721 8.79459 11.2503 8.79459C8.93988 8.79459 6.94392 9.63738 5.26245 11.3229C3.58098 13.0044 2.73815 15.0618 2.73815 17.4992C2.73815 19.9367 3.58098 22.0189 5.26245 23.6921C6.94392 25.3694 8.93988 26.208 11.2503 26.208C13.2295 26.208 14.9068 25.6586 16.2863 24.5514V17.9454H18.9951V25.3942L18.9993 25.3983Z" fill="#E63323"/>
<path d="M25.7757 6.66044V28.3539H23.0459V6.66044H25.7757ZM40.5818 6.66044V9.02767H32.7909V16.3235H40.5818V18.6908H32.7909V28.3539H30.0653V6.66044H40.5818ZM50.5071 9.02767V28.3539H47.7983V9.02767H42.6155V6.66044H55.6773V9.02767H50.5071ZM106.713 16.9391C105.153 16.431 103.903 15.6997 102.964 14.7537C102.016 13.8117 101.542 12.6715 101.542 11.3329C101.542 9.9944 102.033 8.87895 103.014 7.89157C103.991 6.90418 105.211 6.4043 106.666 6.4043C108.121 6.4043 109.338 6.91245 110.361 7.92875C110.897 8.45342 111.312 9.18466 111.61 10.1307L109.174 11.0809C108.872 10.2629 108.6 9.73826 108.356 9.49451C107.866 8.99049 107.304 8.73848 106.671 8.73848C106.037 8.73848 105.492 8.98636 105.01 9.47385C104.52 9.95722 104.276 10.581 104.276 11.3329C104.276 12.0848 104.528 12.7128 105.031 13.2333C105.555 13.7374 106.264 14.2001 107.17 14.6215C108.897 15.1833 110.344 16.0468 111.51 17.2159C112.847 18.5421 113.51 20.1078 113.51 21.9173C113.51 23.7268 112.851 25.2926 111.531 26.6146C110.21 27.9325 108.587 28.5935 106.671 28.5935C104.754 28.5935 103.111 27.916 101.773 26.5568C100.729 25.524 100.087 24.1813 99.8441 22.5329L102.469 21.5868C102.628 23.1609 103.077 24.3135 103.811 25.0323C104.612 25.8421 105.564 26.2428 106.671 26.2428C107.778 26.2428 108.759 25.8255 109.585 24.9993C110.411 24.1689 110.83 23.1402 110.83 21.9173C110.83 20.6945 110.424 19.6699 109.61 18.856C108.784 18.0422 107.82 17.4059 106.717 16.9432L106.713 16.9391ZM128.584 6.66044V9.02767H119.51V16.3235H128.584V18.6908H119.51V25.9867H128.584V28.3539H116.785V6.66044H128.584ZM135.448 9.0442V18.8726H138.132C139.398 18.8726 140.501 18.4057 141.445 17.4638C142.392 16.526 142.866 15.3527 142.866 13.9439C142.866 12.5351 142.392 11.3825 141.445 10.4488C140.505 9.51103 139.398 9.0442 138.132 9.0442H135.448ZM137.998 21.2522H135.448V28.3539H132.723V6.66044H138.929C140.74 6.90418 142.25 7.63956 143.466 8.86242C144.879 10.2753 145.592 11.9692 145.592 13.9398C145.592 15.9104 144.866 17.6373 143.407 19.0957C142.447 20.0748 141.592 20.649 140.845 20.8308L145.713 28.3539H142.56L137.998 21.2522ZM160.939 12.089L165.325 23.4087L169.816 6.66044H172.571L166.755 28.3539H164.373L160.033 16.9267L155.681 28.3539H153.299L147.483 6.66044H150.255L154.758 23.4087L159.115 12.089H160.935H160.939ZM177.904 6.66044V28.3539H175.175V6.66044H177.904ZM188.203 16.9391C186.643 16.431 185.394 15.6997 184.454 14.7537C183.507 13.8117 183.033 12.6715 183.033 11.3329C183.033 9.9944 183.523 8.87895 184.505 7.89157C185.482 6.90418 186.702 6.4043 188.157 6.4043C189.612 6.4043 190.828 6.91245 191.851 7.92875C192.388 8.45342 192.803 9.18466 193.101 10.1307L190.664 11.0809C190.362 10.2629 190.09 9.73826 189.847 9.49451C189.356 8.99049 188.794 8.73848 188.161 8.73848C187.528 8.73848 186.983 8.98636 186.501 9.47385C186.01 9.95722 185.767 10.581 185.767 11.3329C185.767 12.0848 186.018 12.7128 186.522 13.2333C187.046 13.7374 187.754 14.2001 188.66 14.6215C190.388 15.1833 191.834 16.0468 193 17.2159C194.338 18.5421 195 20.1078 195 21.9173C195 23.7268 194.342 25.2926 193.021 26.6146C191.7 27.9325 190.077 28.5935 188.161 28.5935C186.245 28.5935 184.601 27.916 183.263 26.5568C182.219 25.524 181.578 24.1813 181.335 22.5329L183.955 21.5868C184.115 23.1609 184.563 24.3135 185.297 25.0323C186.098 25.8421 187.05 26.2428 188.157 26.2428C189.264 26.2428 190.245 25.8255 191.071 24.9993C191.897 24.1689 192.316 23.1402 192.316 21.9173C192.316 20.6945 191.91 19.6699 191.096 18.856C190.27 18.0422 189.306 17.4059 188.203 16.9432V16.9391Z" fill="#003770"/>
<path fill-rule="evenodd" clip-rule="evenodd" d="M89.3735 25.3652H92.3884V28.348H89.3735V25.3652Z" fill="#E63323"/>
<path d="M89.4112 6.63477H92.4345L92.4051 22.437H89.3818L89.4112 6.63477Z" fill="#003770"/>
<path d="M25.7757 1.4668V4.13975H23.0459V1.4668H25.7757Z" fill="#E63323"/>
<path d="M177.884 1.4668V4.13975H175.154V1.4668H177.884Z" fill="#E63323"/>
<path fill-rule="evenodd" clip-rule="evenodd" d="M0.385742 38.4462H194.392V37.5332H0.385742V38.4462Z" fill="#003770"/>
<path d="M2.70889 50.6382C2.12604 50.4481 1.6606 50.1754 1.30837 49.8202C0.956142 49.469 0.775835 49.0393 0.775835 48.5395C0.775835 48.0396 0.960335 47.6223 1.32514 47.2505C1.68995 46.8828 2.14701 46.6928 2.69212 46.6928C3.23724 46.6928 3.6901 46.8828 4.07168 47.2629C4.27295 47.4612 4.4281 47.7339 4.53712 48.085L3.6272 48.4403C3.51399 48.1346 3.41335 47.9363 3.3211 47.8495C3.1366 47.6595 2.92694 47.5686 2.69212 47.5686C2.4573 47.5686 2.25184 47.6595 2.07153 47.8454C1.88703 48.0272 1.79478 48.2585 1.79478 48.5395C1.79478 48.8204 1.88703 49.0559 2.07572 49.25C2.2728 49.4401 2.53697 49.6136 2.87662 49.7706C3.52237 49.9813 4.06329 50.3035 4.49939 50.7414C4.99837 51.2372 5.24577 51.8238 5.24577 52.5014C5.24577 53.1789 4.99837 53.7655 4.50358 54.2572C4.00878 54.7488 3.40496 54.9967 2.68793 54.9967C1.97089 54.9967 1.35869 54.7447 0.855506 54.2365C0.465539 53.8482 0.226527 53.3483 0.134277 52.7327L1.11548 52.3774C1.17419 52.9682 1.34192 53.3979 1.61867 53.6664C1.92058 53.968 2.2728 54.1167 2.68793 54.1167C3.10305 54.1167 3.46786 53.9597 3.77816 53.6499C4.08845 53.34 4.2436 52.9558 4.2436 52.4972C4.2436 52.0387 4.09265 51.6545 3.78654 51.3529C3.47625 51.0472 3.11563 50.8117 2.7047 50.6382H2.70889ZM11.0324 46.7919V47.676H7.64008V50.4068H11.0324V51.2909H7.64008V54.0217H11.0324V54.9058H6.62114V46.7919H11.0324ZM13.7412 47.6843V51.3611H14.7433C15.2172 51.3611 15.6281 51.1876 15.9803 50.8323C16.3326 50.4812 16.5129 50.0432 16.5129 49.5144C16.5129 48.9856 16.3368 48.556 15.9803 48.209C15.6281 47.8578 15.213 47.6843 14.7433 47.6843H13.7412ZM14.693 52.2535H13.7412V54.9099H12.7222V46.796H15.0453C15.7204 46.8869 16.2864 47.1637 16.7435 47.6182C17.2718 48.147 17.536 48.7791 17.536 49.5186C17.536 50.2581 17.2634 50.9026 16.7183 51.4479C16.3577 51.8114 16.039 52.0304 15.7623 52.0965L17.5821 54.9099H16.4038L14.6972 52.2535H14.693ZM23.4149 48.8245L25.0544 53.0591L26.7317 46.796H27.7632L25.5869 54.9099H24.698L23.0752 50.634L21.4483 54.9099H20.5593L18.383 46.796H19.4187L21.1044 53.0591L22.7314 48.8245H23.4107H23.4149ZM29.9017 46.796V54.9099H28.8786V46.796H29.9017ZM33.8978 50.6423C33.315 50.4522 32.8495 50.1796 32.4973 49.8243C32.1451 49.4731 31.9648 49.0435 31.9648 48.5436C31.9648 48.0437 32.1493 47.6264 32.5141 47.2546C32.8789 46.8869 33.3359 46.6969 33.8811 46.6969C34.4262 46.6969 34.879 46.8869 35.2606 47.267C35.4619 47.4653 35.617 47.738 35.7261 48.0891L34.8161 48.4444C34.7029 48.1387 34.6023 47.9404 34.51 47.8537C34.3255 47.6636 34.1159 47.5727 33.8811 47.5727C33.6462 47.5727 33.4408 47.6636 33.2605 47.8495C33.076 48.0313 32.9837 48.2627 32.9837 48.5436C32.9837 48.8245 33.076 49.06 33.2647 49.2542C33.4617 49.4442 33.7259 49.6177 34.0656 49.7747C34.7113 49.9854 35.2522 50.3077 35.6883 50.7456C36.1873 51.2413 36.4347 51.828 36.4347 52.5055C36.4347 53.183 36.1873 53.7697 35.6925 54.2613C35.1977 54.7529 34.5939 55.0008 33.8769 55.0008C33.1598 55.0008 32.5476 54.7488 32.0444 54.2406C31.6545 53.8523 31.4155 53.3524 31.3232 52.7369L32.3044 52.3816C32.3631 52.9723 32.5308 53.402 32.8076 53.6705C33.1095 53.9721 33.4617 54.1208 33.8769 54.1208C34.292 54.1208 34.6568 53.9638 34.9671 53.654C35.2774 53.3442 35.4325 52.9599 35.4325 52.5014C35.4325 52.0428 35.2816 51.6586 34.9755 51.357C34.6652 51.0513 34.3046 50.8158 33.8936 50.6423H33.8978ZM45.6555 46.796H46.6787V52.5386C46.5906 53.1748 46.318 53.7201 45.861 54.1787C45.3285 54.7116 44.6743 54.9802 43.8944 54.9802C43.1145 54.9802 42.4435 54.7116 41.9068 54.1704C41.3701 53.6292 41.1017 52.9889 41.1017 52.2494V46.796H42.1207V52.2494C42.1207 52.7699 42.2968 53.2078 42.6532 53.559C43.0054 53.9143 43.4206 54.0919 43.8986 54.0919C44.3766 54.0919 44.7833 53.9143 45.1356 53.559C45.4878 53.2037 45.6639 52.7699 45.6639 52.2494V46.796H45.6555ZM49.3875 52.2535V54.9099H48.3685V46.796H50.6915C51.3666 46.8869 51.9327 47.1637 52.3898 47.6182C52.9181 48.147 53.1823 48.7791 53.1823 49.5186C53.1823 50.2581 52.9139 50.9026 52.3772 51.4396C51.8405 51.9808 51.178 52.2535 50.3938 52.2535H49.3917H49.3875ZM49.3875 47.6843V51.3611H50.3896C50.8635 51.3611 51.2744 51.1876 51.6266 50.8323C51.9789 50.4812 52.1592 50.0432 52.1592 49.5144C52.1592 48.9856 51.983 48.556 51.6266 48.209C51.2744 47.8578 50.8593 47.6843 50.3896 47.6843H49.3875ZM58.5454 46.6804C59.7237 46.6804 60.7216 47.0894 61.5393 47.9074C62.357 48.7254 62.7637 49.7045 62.7637 50.8365C62.7637 51.9684 62.357 52.9517 61.5393 53.7697C60.7216 54.5877 59.7237 54.9967 58.5454 54.9967C57.3671 54.9967 56.3733 54.5877 55.5556 53.7697C54.738 52.9517 54.3312 51.9726 54.3312 50.8365C54.3312 49.7004 54.738 48.7295 55.5556 47.9074C56.3733 47.0894 57.3671 46.6804 58.5454 46.6804ZM58.5454 47.5686C57.6816 47.5686 56.9352 47.8867 56.302 48.5188C55.673 49.1509 55.3544 49.9234 55.3544 50.8323C55.3544 51.7412 55.6689 52.5262 56.302 53.1541C56.931 53.7862 57.6816 54.1002 58.5454 54.1002C59.4092 54.1002 60.1639 53.7862 60.7929 53.1541C61.4219 52.522 61.7406 51.7453 61.7406 50.8323C61.7406 49.9193 61.4261 49.1509 60.7929 48.5188C60.1639 47.8867 59.4134 47.5686 58.5454 47.5686ZM71.4478 46.7919V54.9058H70.4289V48.3081L67.762 51.8114L65.0909 48.3081V54.9058H64.0678V46.7919H65.158L67.762 50.2044L70.3618 46.7919H71.4478ZM74.1105 46.7919V54.9058H73.0874V46.7919H74.1105ZM76.8486 46.7919L81.4695 53.2781V46.7919H82.4885V54.9058H81.3605L76.8612 48.5849V54.9058H75.8381V46.7919H76.8486ZM88.4554 46.7919L86.3127 49.8945L89.8182 54.9058H88.6273L85.7088 50.729L85.1763 51.4892V54.9058H84.1574V46.7919H85.1763V49.7912L87.2687 46.7919H88.4554ZM94.7326 46.6804C95.9109 46.6804 96.9089 47.0894 97.7265 47.9074C98.5442 48.7254 98.9509 49.7045 98.9509 50.8365C98.9509 51.9684 98.5442 52.9517 97.7265 53.7697C96.9089 54.5877 95.9109 54.9967 94.7326 54.9967C93.5543 54.9967 92.5605 54.5877 91.7428 53.7697C90.9252 52.9517 90.5184 51.9726 90.5184 50.8365C90.5184 49.7004 90.9252 48.7295 91.7428 47.9074C92.5605 47.0894 93.5543 46.6804 94.7326 46.6804ZM94.7326 47.5686C93.8688 47.5686 93.1224 47.8867 92.4892 48.5188C91.8603 49.1509 91.5416 49.9234 91.5416 50.8323C91.5416 51.7412 91.8561 52.5262 92.4892 53.1541C93.1182 53.7862 93.8688 54.1002 94.7326 54.1002C95.5964 54.1002 96.3512 53.7862 96.9801 53.1541C97.6091 52.522 97.9278 51.7453 97.9278 50.8323C97.9278 49.9193 97.6133 49.1509 96.9801 48.5188C96.3512 47.8867 95.6006 47.5686 94.7326 47.5686ZM96.6195 44.7676L94.8584 46.1185H93.7933L94.9632 44.7676H96.6195ZM104.763 48.8245L106.402 53.0591L108.08 46.796H109.111L106.935 54.9099H106.046L104.423 50.634L102.796 54.9099H101.907L99.7309 46.796H100.767L102.452 53.0591L104.079 48.8245H104.758H104.763ZM114.482 47.6843V51.3611H115.485C115.959 51.3611 116.369 51.1876 116.722 50.8323C117.074 50.4812 117.254 50.0432 117.254 49.5144C117.254 48.9856 117.078 48.556 116.722 48.209C116.369 47.8578 115.954 47.6843 115.485 47.6843H114.482ZM115.434 52.2535H114.482V54.9099H113.464V46.796H115.787C116.462 46.8869 117.028 47.1637 117.485 47.6182C118.013 48.147 118.277 48.7791 118.277 49.5186C118.277 50.2581 118.005 50.9026 117.46 51.4479C117.099 51.8114 116.78 52.0304 116.504 52.0965L118.323 54.9099H117.145L115.439 52.2535H115.434ZM124.169 46.796V47.6801H120.776V50.4109H124.169V51.295H120.776V54.0258H124.169V54.9099H119.758V46.796H124.169ZM130.152 46.796L128.01 49.8987L131.515 54.9099H130.324L127.406 50.7332L126.873 51.4933V54.9099H125.854V46.796H126.873V49.7954L128.966 46.796H130.152ZM132.496 54.9099V46.796H133.515V54.0258H136.43V54.9099H132.496ZM141.336 50.6588L140.556 48.5064L139.772 50.6588H141.331H141.336ZM141.004 46.796L143.94 54.9099H142.879L141.659 51.5388H139.453L138.208 54.9099H137.142L140.115 46.796H141H141.004ZM152.288 46.796V54.9099H151.269V48.3122L148.602 51.8156L145.931 48.3122V54.9099H144.908V46.796H145.998L148.602 50.2085L151.202 46.796H152.288ZM157.807 46.6845C158.985 46.6845 159.983 47.0935 160.8 47.9115C161.618 48.7295 162.025 49.7086 162.025 50.8406C162.025 51.9726 161.618 52.9558 160.8 53.7738C159.983 54.5918 158.985 55.0008 157.807 55.0008C156.628 55.0008 155.634 54.5918 154.817 53.7738C153.999 52.9558 153.592 51.9767 153.592 50.8406C153.592 49.7045 153.999 48.7336 154.817 47.9115C155.634 47.0935 156.628 46.6845 157.807 46.6845ZM157.807 47.5727C156.943 47.5727 156.196 47.8908 155.563 48.5229C154.934 49.155 154.616 49.9276 154.616 50.8365C154.616 51.7453 154.93 52.5303 155.563 53.1582C156.192 53.7903 156.943 54.1043 157.807 54.1043C158.67 54.1043 159.425 53.7903 160.054 53.1582C160.683 52.5262 161.002 51.7495 161.002 50.8365C161.002 49.9234 160.687 49.155 160.054 48.5229C159.425 47.8908 158.674 47.5727 157.807 47.5727ZM167.837 48.8245L169.476 53.0591L171.153 46.796H172.185L170.009 54.9099H169.12L167.497 50.634L165.87 54.9099H164.981L162.805 46.796H163.841L165.526 53.0591L167.153 48.8245H167.832H167.837ZM175.581 51.6255L172.797 46.7919H173.925L176.093 50.5473L178.257 46.7919H179.385L176.6 51.6255V54.9058H175.581V51.6255ZM186.924 53.1211L187.633 53.7532C186.719 54.5835 185.716 55.0008 184.618 55.0008C183.439 55.0008 182.441 54.5918 181.628 53.7821C180.815 52.9682 180.408 51.9891 180.408 50.853C180.408 49.7169 180.815 48.7501 181.628 47.9322C182.441 47.1142 183.439 46.701 184.618 46.701C185.716 46.701 186.719 47.1183 187.633 47.9528L186.924 48.5849C186.178 47.928 185.41 47.5975 184.618 47.5975C183.754 47.5975 183.008 47.9115 182.379 48.5436C181.75 49.1715 181.435 49.9441 181.435 50.853C181.435 51.7619 181.75 52.5427 182.379 53.1706C183.008 53.7986 183.754 54.1126 184.618 54.1126C185.41 54.1126 186.178 53.7821 186.924 53.1252V53.1211ZM189.968 51.295V54.9099H188.945V46.796H189.968V50.4109H193.298V46.796H194.317V54.9099H193.298V51.295H189.968Z" fill="#003671"/>
<path d="M29.906 44.543V45.5427H28.8828V44.543H29.906Z" fill="#E63323"/>
<path d="M74.1022 44.543V45.5427H73.0791V44.543H74.1022Z" fill="#E63323"/>
</g>
<defs>
<clipPath id="clip0_127_2667">
<rect width="195" height="55" fill="white"/>
</clipPath>
</defs>
</svg>
