<svg width="10" height="6" viewBox="0 0 10 6" fill="none" xmlns="http://www.w3.org/2000/svg">
<path d="M4.39664 5.72652L0.550085 1.32977C0.0961342 0.812461 0.46507 2.94912e-07 1.15402 2.94912e-07H8.84713C9.00131 -0.000131902 9.15227 0.0441823 9.28192 0.127636C9.41157 0.211091 9.51441 0.330147 9.57814 0.470548C9.64187 0.610949 9.66377 0.766743 9.64123 0.919273C9.6187 1.0718 9.55267 1.2146 9.45106 1.33057L5.6045 5.72572C5.52922 5.81187 5.43639 5.88091 5.33222 5.92822C5.22806 5.97552 5.11498 6 5.00057 6C4.88617 6 4.77309 5.97552 4.66892 5.92822C4.56476 5.88091 4.47192 5.81187 4.39664 5.72572V5.72652Z" fill="white"/>
</svg>
