<svg width="34" height="34" viewBox="0 0 34 34" fill="none" xmlns="http://www.w3.org/2000/svg">
<path d="M13.2731 3.09069C13.8874 1.90934 15.3467 1 17 1C18.6533 1 20.1126 1.90934 20.7269 3.09069C21.8501 2.37494 23.568 2.31738 25 3.144C26.432 3.97062 27.2411 5.4875 27.1824 6.81816C28.513 6.75947 30.0298 7.56856 30.8565 9C31.6832 10.432 31.6255 12.1504 30.9092 13.2731C32.0912 13.888 33 15.3472 33 17C33 18.6533 32.0912 20.1126 30.9093 20.7275C31.6256 21.8501 31.6832 23.5686 30.8565 25C30.0298 26.432 28.5131 27.2411 27.1824 27.1824C27.2411 28.513 26.432 30.0298 25.0001 30.8565C23.5681 31.6832 21.8502 31.6256 20.727 30.9093C20.1126 32.0912 18.6533 33 17 33C15.3467 33 13.8874 32.0912 13.2731 30.9093C12.1499 31.6256 10.432 31.6832 9 30.8565C7.56803 30.0298 6.75894 28.5131 6.81763 27.1824C5.48697 27.2411 3.97016 26.432 3.14354 25C2.31685 23.5685 2.37447 21.8501 3.09076 20.7275C1.90881 20.1126 1 18.6533 1 17C1 15.3472 1.90881 13.888 3.09069 13.2731C2.37441 12.1504 2.31678 10.432 3.14347 9C3.97016 7.5685 5.4869 6.75947 6.81756 6.81816C6.75887 5.4875 7.56797 3.97069 8.99993 3.144C10.4319 2.31731 12.1499 2.37494 13.2731 3.09069Z" stroke="black" stroke-width="2" stroke-miterlimit="10" stroke-linecap="round" stroke-linejoin="round"/>
<path d="M19.1317 17.0001L20.1984 8.54297L10.5984 17.0001H14.8651L13.7984 25.4573L23.3984 17.0001H19.1317Z" stroke="black" stroke-width="2" stroke-miterlimit="10" stroke-linecap="round" stroke-linejoin="round"/>
</svg>
