<svg width="32" height="28" viewBox="0 0 32 28" fill="none" xmlns="http://www.w3.org/2000/svg">
<path d="M12.7085 6.8269L14.0587 8.17716" stroke="#E6007E" stroke-width="1.5" stroke-miterlimit="10" stroke-linecap="round" stroke-linejoin="round"/>
<path d="M12.0335 10.0338L10.8521 8.85229" stroke="#E6007E" stroke-width="1.5" stroke-miterlimit="10" stroke-linecap="round" stroke-linejoin="round"/>
<path d="M9.13775 6.34386L8.32525 7.15636C8.09406 7.38755 8.09406 7.76246 8.32525 7.99365L9.5169 9.1853C9.74809 9.41649 10.123 9.41649 10.3542 9.1853L13.2107 6.3288C13.4419 6.09761 13.4419 5.7227 13.2107 5.49151L12.019 4.29986C11.7878 4.06867 11.4129 4.06867 11.1817 4.29986L10.525 4.95657" stroke="#E6007E" stroke-width="1.5" stroke-miterlimit="10" stroke-linecap="round" stroke-linejoin="round"/>
<path d="M18.9536 5.98274V4.29492" stroke="#E6007E" stroke-width="1.5" stroke-miterlimit="10" stroke-linecap="round" stroke-linejoin="round"/>
<path d="M21.8228 4.29492V5.98274" stroke="#E6007E" stroke-width="1.5" stroke-miterlimit="10" stroke-linecap="round" stroke-linejoin="round"/>
<path d="M28.3997 15.4437C27.9087 11.443 24.5217 8.34595 20.4161 8.34595C15.973 8.34595 12.3711 11.9731 12.3711 16.4475C12.3711 20.9218 15.973 24.549 20.4161 24.549C24.5386 24.549 27.9363 21.4263 28.4053 17.4018" stroke="#E6007E" stroke-width="1.5" stroke-miterlimit="10" stroke-linecap="round" stroke-linejoin="round"/>
<path d="M13.7941 24.3795C15.5872 25.8562 17.8842 26.743 20.3884 26.743C26.1211 26.743 30.7684 22.0957 30.7684 16.363C30.7684 10.6302 26.1211 5.98291 20.3884 5.98291C14.6556 5.98291 10.0083 10.6302 10.0083 16.363C10.0083 18.8869 10.9095 21.2002 12.4071 22.9994" stroke="#E6007E" stroke-width="1.5" stroke-miterlimit="10" stroke-linecap="round" stroke-linejoin="round"/>
<path d="M20.4727 10.2024V10.7087" stroke="#E6007E" stroke-width="1.5" stroke-miterlimit="10" stroke-linecap="round" stroke-linejoin="round"/>
<path d="M20.4727 22.0173V22.6925" stroke="#E6007E" stroke-width="1.5" stroke-miterlimit="10" stroke-linecap="round" stroke-linejoin="round"/>
<path d="M26.7176 16.4475H26.0425" stroke="#E6007E" stroke-width="1.5" stroke-miterlimit="10" stroke-linecap="round" stroke-linejoin="round"/>
<path d="M14.7337 16.4475H14.0586" stroke="#E6007E" stroke-width="1.5" stroke-miterlimit="10" stroke-linecap="round" stroke-linejoin="round"/>
<path d="M20.3883 17.2914C20.9009 17.2914 21.3166 16.8758 21.3166 16.3631C21.3166 15.8504 20.9009 15.4348 20.3883 15.4348C19.8756 15.4348 19.46 15.8504 19.46 16.3631C19.46 16.8758 19.8756 17.2914 20.3883 17.2914Z" stroke="#E6007E" stroke-width="1.5" stroke-miterlimit="10" stroke-linecap="round" stroke-linejoin="round"/>
<path d="M19.6286 17.1226L16.7593 19.9918" stroke="#E6007E" stroke-width="1.5" stroke-miterlimit="10" stroke-linecap="round" stroke-linejoin="round"/>
<path d="M22.4112 4.12637H18.365C18.0375 4.12637 17.772 3.8613 17.772 3.53432V1.84913C17.772 1.52215 18.0375 1.25708 18.365 1.25708H22.4112C22.7387 1.25708 23.0042 1.52215 23.0042 1.84913V3.53432C23.0042 3.8613 22.7387 4.12637 22.4112 4.12637Z" stroke="#E6007E" stroke-width="1.5" stroke-miterlimit="10" stroke-linecap="round" stroke-linejoin="round"/>
<path d="M10.0079 16.4475H3.59424" stroke="#E6007E" stroke-width="1.5" stroke-miterlimit="10" stroke-linecap="round" stroke-linejoin="round"/>
<path d="M10.6832 12.7341H1.23145" stroke="#E6007E" stroke-width="1.5" stroke-miterlimit="10" stroke-linecap="round" stroke-linejoin="round"/>
<path d="M2.41309 14.5906H10.177" stroke="#E6007E" stroke-width="1.5" stroke-miterlimit="10" stroke-linecap="round" stroke-linejoin="round"/>
<path d="M4.77588 18.304H10.1769" stroke="#E6007E" stroke-width="1.5" stroke-miterlimit="10" stroke-linecap="round" stroke-linejoin="round"/>
<path d="M5.95703 20.1606H10.6829" stroke="#E6007E" stroke-width="1.5" stroke-miterlimit="10" stroke-linecap="round" stroke-linejoin="round"/>
<path d="M7.13867 22.0173H11.527" stroke="#E6007E" stroke-width="1.5" stroke-miterlimit="10" stroke-linecap="round" stroke-linejoin="round"/>
</svg>
