<svg width="27" height="27" viewBox="0 0 27 27" fill="none" xmlns="http://www.w3.org/2000/svg">
<path d="M22.3541 4.64598C27.2154 9.50729 27.2154 17.4928 22.3541 22.354C17.4927 27.2153 9.50729 27.2153 4.64598 22.354C-0.215327 17.4928 -0.215327 9.50729 4.64598 4.64598C9.50729 -0.215327 17.4927 -0.215327 22.3541 4.64598Z" stroke="#374957" stroke-miterlimit="10" stroke-linecap="square"/>
<path d="M13.5 12.399L11.2995 14.5996L6.89844 10.1985L9.09896 7.99795L13.5 12.399Z" stroke="#374957" stroke-miterlimit="10" stroke-linecap="square"/>
<path d="M5.34253 13.0436L9.19346 16.8945" stroke="#374957" stroke-miterlimit="10" stroke-linecap="square"/>
<path d="M4.79224 12.4947C5.39991 13.1024 5.39991 14.0876 4.79224 14.6953" stroke="#374957" stroke-miterlimit="10" stroke-linecap="square"/>
<path d="M17.9012 7.9987L15.7006 10.1992L11.2996 5.79818L13.5001 3.59761L17.9012 7.9987Z" stroke="#374957" stroke-miterlimit="10" stroke-linecap="square"/>
<path d="M17.901 20.1016L16.8008 14.6002" stroke="#374957" stroke-miterlimit="10" stroke-linecap="square"/>
<path d="M15.7006 16.8001L14.6003 17.9004L13.5 16.8001L14.6003 15.6999L15.7006 16.8001Z" fill="#374957"/>
<path d="M21.202 17.9017L20.1017 19.002L19.0015 17.9017L20.1017 16.8014L21.202 17.9017Z" fill="#374957"/>
</svg>
