<svg width="27" height="27" viewBox="0 0 27 27" fill="none" xmlns="http://www.w3.org/2000/svg">
<path d="M26 13.9473C26 20.8508 20.4036 26.4473 13.5 26.4473C6.59642 26.4473 1 20.8508 1 13.9473C1 7.04369 6.59642 1.44727 13.5 1.44727C20.4036 1.44727 26 7.04369 26 13.9473Z" stroke="#374957" stroke-miterlimit="10" stroke-linecap="round" stroke-linejoin="round"/>
<path d="M15.5747 13.9468C15.5747 15.0926 14.6459 16.0215 13.5 16.0215C12.3542 16.0215 11.4253 15.0926 11.4253 13.9468C11.4253 12.8009 12.3542 11.8721 13.5 11.8721C14.6459 11.8721 15.5747 12.8009 15.5747 13.9468Z" stroke="#374957" stroke-miterlimit="10" stroke-linecap="round" stroke-linejoin="round"/>
<path d="M20.2427 11.8721H18.6867V16.0215H20.2427L22.8361 13.9468L20.2427 11.8721Z" stroke="#374957" stroke-miterlimit="10" stroke-linecap="round" stroke-linejoin="round"/>
<path d="M6.75727 11.8721H8.31329V16.0215H6.75727L4.16391 13.9468L6.75727 11.8721Z" stroke="#374957" stroke-miterlimit="10" stroke-linecap="round" stroke-linejoin="round"/>
<path d="M11.4253 7.20375V8.75977H15.5747V7.20375L13.5 4.61039L11.4253 7.20375Z" stroke="#374957" stroke-miterlimit="10" stroke-linecap="round" stroke-linejoin="round"/>
<path d="M11.4253 20.6898V19.1338H15.5747V20.6898L13.5 23.2832L11.4253 20.6898Z" stroke="#374957" stroke-miterlimit="10" stroke-linecap="round" stroke-linejoin="round"/>
</svg>
