<svg width="27" height="27" viewBox="0 0 27 27" fill="none" xmlns="http://www.w3.org/2000/svg">
<path d="M13.5 26C20.3848 26 26 20.3848 26 13.5C26 6.61525 20.3848 1 13.5 1C6.61525 1 1 6.61525 1 13.5C1 20.3848 6.61525 26 13.5 26Z" stroke="#374957" stroke-miterlimit="22.926" stroke-linecap="round" stroke-linejoin="round"/>
<path d="M11.0664 10.7581C10.7037 9.69877 9.70791 8.98715 8.5883 8.98715C7.46802 8.98715 6.47176 9.69965 6.10962 10.7598" stroke="#374957" stroke-miterlimit="22.926" stroke-linecap="round" stroke-linejoin="round"/>
<path d="M20.8945 10.7581C20.5318 9.69877 19.536 8.98715 18.4164 8.98715C17.2961 8.98715 16.2999 9.69965 15.9377 10.7598" stroke="#374957" stroke-miterlimit="22.926" stroke-linecap="round" stroke-linejoin="round"/>
<path d="M18.1787 17.4158C17.1965 19.0643 15.4191 20.0742 13.5001 20.0742C11.5859 20.0742 9.81219 19.0692 8.82837 17.4272" stroke="#374957" stroke-miterlimit="22.926" stroke-linecap="round" stroke-linejoin="round"/>
</svg>
