<svg width="27" height="27" viewBox="0 0 27 27" fill="none" xmlns="http://www.w3.org/2000/svg">
<path d="M7.27588 11.8926C7.27588 11.8926 7.27588 1.00045 13.4999 1.00045C19.7239 1.0004 19.724 11.8925 19.724 11.8925" stroke="#374957" stroke-miterlimit="10" stroke-linecap="round" stroke-linejoin="round"/>
<path d="M10.3879 11.8926C10.3879 11.8926 10.3879 1.00045 13.5 1.00045C16.6119 1.00045 16.612 11.8926 16.612 11.8926" stroke="#374957" stroke-miterlimit="10" stroke-linecap="round" stroke-linejoin="round"/>
<path d="M7.27588 11.8926H10.3879" stroke="#374957" stroke-miterlimit="10" stroke-linecap="round" stroke-linejoin="round"/>
<path d="M19.7241 11.8925L16.6121 11.8926" stroke="#374957" stroke-miterlimit="10" stroke-linecap="round" stroke-linejoin="round"/>
<path d="M7.54943 8.78007H1V22.888C1 24.6067 2.39331 26 4.11204 26H22.888C24.6067 26 26 24.6067 26 22.888V8.78007H19.4505" stroke="#374957" stroke-miterlimit="10" stroke-linecap="round" stroke-linejoin="round"/>
<path d="M10.3879 18.1152H16.612" stroke="#374957" stroke-miterlimit="10" stroke-linecap="round" stroke-linejoin="round"/>
<path d="M16.4752 8.7793H10.5247" stroke="#374957" stroke-miterlimit="10" stroke-linecap="round" stroke-linejoin="round"/>
</svg>
