<svg width="27" height="27" viewBox="0 0 27 27" fill="none" xmlns="http://www.w3.org/2000/svg">
<path d="M6.00003 20.5625C7.06709 20.5625 8.09049 20.1387 8.84505 19.3842L9.33338 18.8959" stroke="#374957" stroke-miterlimit="10" stroke-linecap="round" stroke-linejoin="round"/>
<path d="M21 20.5625C19.9329 20.5625 18.9096 20.1387 18.155 19.3842L17.6667 18.8959" stroke="#374957" stroke-miterlimit="10" stroke-linecap="round" stroke-linejoin="round"/>
<path d="M26 10.5626C26 8.79476 25.2975 7.09892 24.0475 5.84852C22.7971 4.59853 21.1012 3.89605 19.3333 3.89605H7.66665C5.89875 3.89605 4.20291 4.59853 2.95249 5.84852C1.70249 7.09892 1 8.79476 1 10.5626V22.2292H6V12.2293V25.5625H21V12.2293V22.2292H26V10.5626Z" stroke="#374957" stroke-miterlimit="10" stroke-linecap="round" stroke-linejoin="round"/>
<path d="M1.83337 25.5625H6.00002V22.2292H1.83337V25.5625Z" stroke="#374957" stroke-miterlimit="10" stroke-linecap="round" stroke-linejoin="round"/>
<path d="M21 25.5625H25.1666V22.2292H21V25.5625Z" stroke="#374957" stroke-miterlimit="10" stroke-linecap="round" stroke-linejoin="round"/>
<path d="M19.3334 2.22985C19.3334 1.78779 19.1579 1.36404 18.845 1.05149C18.5325 0.738578 18.1088 0.563164 17.6667 0.563164H9.33336C8.89129 0.563164 8.46749 0.738578 8.15499 1.05149C7.84212 1.36404 7.66666 1.78779 7.66666 2.22985V3.89648H19.3334V2.22985Z" stroke="#374957" stroke-miterlimit="10" stroke-linecap="round" stroke-linejoin="round"/>
<path d="M10.1667 3.89589V8.0625" stroke="#374957" stroke-miterlimit="10" stroke-linecap="round" stroke-linejoin="round"/>
<path d="M16.8333 3.89589V8.0625" stroke="#374957" stroke-miterlimit="10" stroke-linecap="round" stroke-linejoin="round"/>
</svg>
