<svg width="27" height="31" viewBox="0 0 27 31" fill="none" xmlns="http://www.w3.org/2000/svg">
<path d="M2.47734 30.293H25.5542V26.4468H2.47734V30.293Z" stroke="#374957" stroke-miterlimit="10" stroke-linecap="round" stroke-linejoin="round"/>
<path d="M0.554199 5.29297H23.6311V1.44684H0.554199V5.29297Z" stroke="#374957" stroke-miterlimit="10" stroke-linecap="round" stroke-linejoin="round"/>
<path d="M23.6311 19.7165V14.9089H15.9389V14.9099C15.9389 16.6944 15.2297 18.4065 13.9676 19.6685C12.7056 20.9305 10.9936 21.6396 9.20905 21.6396H8.24654V26.4473H25.5542V24.3588C25.5542 22.618 24.8624 20.9478 23.6311 19.7165Z" stroke="#374957" stroke-miterlimit="10" stroke-linecap="round" stroke-linejoin="round"/>
<path d="M2.47725 12.0244V16.832H10.1695V16.8311C10.1695 15.0465 10.8782 13.3345 12.1407 12.0725C13.4027 10.8105 15.1142 10.1014 16.8993 10.1014H17.8618V5.29369H0.554199V7.38215C0.554199 9.12301 1.24549 10.7932 2.47677 12.0244H2.47725Z" stroke="#374957" stroke-miterlimit="10" stroke-linecap="round" stroke-linejoin="round"/>
<path d="M8.24649 21.6396H6.80419C5.65663 21.6396 4.55563 22.0954 3.74459 22.9069C2.93307 23.7185 2.47728 24.819 2.47728 25.9665V26.4473H8.24649V21.6396Z" stroke="#374957" stroke-miterlimit="10" stroke-linecap="round" stroke-linejoin="round"/>
<path d="M17.8619 10.1016H19.3042C20.4517 10.1016 21.5523 9.64577 22.3638 8.83426C23.1748 8.02275 23.6311 6.92224 23.6311 5.77469V5.29394H17.8619V10.1016Z" stroke="#374957" stroke-miterlimit="10" stroke-linecap="round" stroke-linejoin="round"/>
<path d="M15.8695 18.7539L15.0368 18.2731" stroke="#374957" stroke-miterlimit="10" stroke-linecap="round" stroke-linejoin="round"/>
<path d="M10.2383 12.986L11.071 13.4668" stroke="#374957" stroke-miterlimit="10" stroke-linecap="round" stroke-linejoin="round"/>
<path d="M13.0541 21.5703L12.5734 20.7376" stroke="#374957" stroke-miterlimit="10" stroke-linecap="round" stroke-linejoin="round"/>
<path d="M13.0542 10.1712L13.5349 11.0039" stroke="#374957" stroke-miterlimit="10" stroke-linecap="round" stroke-linejoin="round"/>
</svg>
