<svg width="27" height="27" viewBox="0 0 27 27" fill="none" xmlns="http://www.w3.org/2000/svg">
<path d="M11.4237 8.85938V1.00019H15.5764V8.85938" stroke="#374957" stroke-miterlimit="10"/>
<path d="M22.086 11.9746H4.91418V8.86008H22.086V11.9746Z" stroke="#374957" stroke-miterlimit="10"/>
<path d="M6.47131 11.9744V13.6628C6.47131 17.5446 9.61815 20.6914 13.4999 20.6914C17.3818 20.6914 20.5286 17.5446 20.5286 13.6628V11.9744" stroke="#374957" stroke-miterlimit="10"/>
<path d="M8.11334 18.1766H7.2207C3.78512 18.1766 1 20.9617 1 24.3973V26H26V24.3973C26 20.9617 23.215 18.1766 19.7794 18.1766H18.8867" stroke="#374957" stroke-miterlimit="10"/>
<path d="M8.11328 18.1766V26" stroke="#374957" stroke-miterlimit="10"/>
<path d="M18.8867 18.1766V26" stroke="#374957" stroke-miterlimit="10"/>
<path d="M11.4237 2.14246C8.55539 3.02804 6.47131 5.70035 6.47131 8.85938" stroke="#374957" stroke-miterlimit="10"/>
<path d="M20.5287 8.85938C20.5287 5.70024 18.4445 3.02794 15.5762 2.14241" stroke="#374957" stroke-miterlimit="10"/>
</svg>
