<svg width="27" height="16" viewBox="0 0 27 16" fill="none" xmlns="http://www.w3.org/2000/svg">
<path d="M9.74976 12.666H17.2499" stroke="#374957" stroke-miterlimit="10" stroke-linecap="round" stroke-linejoin="round"/>
<path d="M22.2499 12.666H23.9166C25.0624 12.666 26 11.7285 26 10.5827V10.166C26 7.87437 24.1249 5.99937 21.8333 5.99937H3.0833C1.9375 5.99937 1 6.93682 1 8.08267V10.5827C1 11.7285 1.9375 12.666 3.0833 12.666H4.75016" stroke="#374957" stroke-miterlimit="10" stroke-linecap="round" stroke-linejoin="round"/>
<path d="M9.75 12.666H17.2502" stroke="#374957" stroke-miterlimit="10" stroke-linecap="round" stroke-linejoin="round"/>
<path d="M12.6667 1V6" stroke="#374957" stroke-miterlimit="10" stroke-linecap="round" stroke-linejoin="round"/>
<path d="M20.9999 6L19.4315 2.86343C18.9192 1.83859 17.5624 1 16.4166 1H8.9166C7.77075 1 6.41396 1.83859 5.90167 2.86343L4.33325 6" stroke="#374957" stroke-miterlimit="10" stroke-linecap="round" stroke-linejoin="round"/>
<path d="M22.2498 12.6661C22.2498 14.0467 21.1304 15.166 19.7499 15.166C18.3695 15.166 17.25 14.0467 17.25 12.6661C17.25 11.2853 18.3695 10.166 19.7499 10.166C21.1304 10.166 22.2498 11.2853 22.2498 12.6661Z" stroke="#374957" stroke-miterlimit="10" stroke-linecap="round" stroke-linejoin="round"/>
<path d="M9.74984 12.6661C9.74984 14.0467 8.63045 15.166 7.25 15.166C5.8695 15.166 4.75 14.0467 4.75 12.6661C4.75 11.2853 5.8695 10.166 7.25 10.166C8.63045 10.166 9.74984 11.2853 9.74984 12.6661Z" stroke="#374957" stroke-miterlimit="10" stroke-linecap="round" stroke-linejoin="round"/>
<path d="M25.9157 9.33398H24.75" stroke="#374957" stroke-miterlimit="10" stroke-linecap="round" stroke-linejoin="round"/>
<path d="M13.9166 9.33398H13.0833" stroke="#374957" stroke-miterlimit="10" stroke-linecap="round" stroke-linejoin="round"/>
</svg>
