<svg width="29" height="26" viewBox="0 0 29 26" fill="none" xmlns="http://www.w3.org/2000/svg">
<path d="M7.64722 14.4531C7.64722 13.4043 8.4975 12.554 9.54643 12.554C10.5953 12.554 11.4456 13.4043 11.4456 14.4531" stroke="#374957" stroke-miterlimit="10"/>
<path d="M17.1431 14.4531C17.1431 13.4043 17.9934 12.554 19.0422 12.554C20.0912 12.554 20.9414 13.4043 20.9414 14.4531" stroke="#374957" stroke-miterlimit="10"/>
<path d="M11.0215 18.2518C11.6822 19.3714 12.9002 20.123 14.2944 20.123C15.6886 20.123 16.9066 19.3714 17.5673 18.2518" stroke="#374957" stroke-miterlimit="10"/>
<path d="M27.5887 14.1218C27.5887 15.6763 26.3436 16.9401 24.7958 16.9693C23.5447 21.5959 19.317 25 14.2943 25C9.27173 25 5.04402 21.5959 3.79291 16.9693C2.24503 16.9401 1 15.6763 1 14.1218C1 13.3352 1.31884 12.623 1.83407 12.1072C2.33771 11.6042 3.02835 11.2886 3.79291 11.2743C5.04402 6.64775 9.27173 3.24362 14.2943 3.24362C19.317 3.24362 23.5447 6.64775 24.7958 11.2743C25.5603 11.2886 26.251 11.6042 26.7546 12.1072C27.2698 12.623 27.5887 13.3352 27.5887 14.1218Z" stroke="#374957" stroke-miterlimit="10"/>
<path d="M10.7543 6.78434C10.7543 8.73938 12.3392 10.3242 14.2942 10.3242C16.2493 10.3242 17.8342 8.73938 17.8342 6.78434C17.8342 4.8293 16.2493 3.24446 14.2942 3.24446H13.7394C11.9481 3.24446 10.4958 1.79223 10.4958 0.000804568" stroke="#374957" stroke-miterlimit="10"/>
<path d="M14.2943 3.24414H9.94111C8.14968 3.24414 6.69751 1.79191 6.69751 0.000543137" stroke="#374957" stroke-miterlimit="10"/>
</svg>
