<svg width="32" height="27" viewBox="0 0 32 27" fill="none" xmlns="http://www.w3.org/2000/svg">
<path d="M5.93172 5.39201C7.31024 4.16666 8.85919 3.41797 10.4165 3.41797C15.1736 3.41797 19.8331 10.3742 19.8331 16.5834C19.8331 21.7841 15.6171 26.0002 10.4165 26.0002C5.21594 26.0002 1 21.7841 1 16.5834C1 13.1525 2.42603 9.49411 4.50272 6.90657" stroke="#374957" stroke-miterlimit="10" stroke-linecap="round" stroke-linejoin="round"/>
<path d="M26.987 21.0371C24.5039 23.1342 20.8774 23.8637 17.6357 22.6286" stroke="#374957" stroke-miterlimit="10" stroke-linecap="round" stroke-linejoin="round"/>
<path d="M15.0825 5.55178C17.882 2.3352 21.7738 0.299311 24.7968 1.22386C29.3458 2.61519 31.7672 10.6301 29.9513 16.5677C29.6139 17.6708 29.0921 18.6665 28.4305 19.5322" stroke="#374957" stroke-miterlimit="10" stroke-linecap="round" stroke-linejoin="round"/>
<path d="M29.4275 17.9045C25.6586 17.8041 22.3667 16.6945 19.7197 14.8691" stroke="#374957" stroke-miterlimit="10" stroke-linecap="round" stroke-linejoin="round"/>
<path d="M19.1213 20.1816C20.8671 21.0571 22.9569 21.6936 25.5512 22.0272" stroke="#374957" stroke-miterlimit="10" stroke-linecap="round" stroke-linejoin="round"/>
<path d="M17.675 3.14648C18.6206 8.9063 24.033 13.4273 30.5122 13.5005" stroke="#374957" stroke-miterlimit="10" stroke-linecap="round" stroke-linejoin="round"/>
<path d="M30.1493 8.62328C26.3212 8.32295 22.2267 5.18939 21.4387 1.25" stroke="#374957" stroke-miterlimit="10" stroke-linecap="round" stroke-linejoin="round"/>
<path d="M19.6665 18.36C18.3195 18.4759 18.2419 19.6039 16.7496 19.6039C15.1766 19.6039 15.1766 18.3497 13.6036 18.3497C12.0305 18.3497 12.0305 19.6039 10.4573 19.6039C8.88427 19.6039 8.88427 18.3497 7.31117 18.3497C5.73789 18.3497 5.73789 19.6039 4.16462 19.6039C2.63196 19.6039 2.59176 18.246 1.13623 18.1758" stroke="#374957" stroke-miterlimit="10" stroke-linecap="round" stroke-linejoin="round"/>
<path d="M2.36328 10.4655C2.9261 10.8371 3.26853 11.389 4.28541 11.389C5.81801 11.389 5.81801 10.1348 7.35061 10.1348C8.88297 10.1348 8.88297 11.389 10.4154 11.389C11.9478 11.389 11.9478 10.1348 13.4802 10.1348C15.0126 10.1348 15.0126 11.389 16.545 11.389C17.5652 11.389 17.9065 10.8333 18.4727 10.4617" stroke="#374957" stroke-miterlimit="10" stroke-linecap="round" stroke-linejoin="round"/>
</svg>
