<svg width="22" height="26" viewBox="0 0 22 26" fill="none" xmlns="http://www.w3.org/2000/svg">
<path d="M6.71667 7.98974C6.71667 12.0568 10.9941 15.0176 10.9941 15.0176C10.9941 15.0176 15.2716 12.0568 15.2716 7.98974C15.2716 3.92269 10.9941 0.961895 10.9941 0.961895C10.9941 0.961895 6.71667 3.92269 6.71667 7.98974Z" stroke="#374957" stroke-miterlimit="10"/>
<path d="M2.85707 19.1496C5.7329 22.0255 10.8511 21.0945 10.8511 21.0945C10.8511 21.0945 11.7821 15.9762 8.90631 13.1004C6.03048 10.2246 0.912229 11.1556 0.912229 11.1556C0.912229 11.1556 -0.0187706 16.2738 2.85707 19.1496Z" stroke="#374957" stroke-miterlimit="10"/>
<path d="M19.1328 19.1496C16.2569 22.0255 11.1387 21.0945 11.1387 21.0945C11.1387 21.0945 10.2077 15.9762 13.0835 13.1004C15.9593 10.2246 21.0776 11.1556 21.0776 11.1556C21.0776 11.1556 22.0086 16.2738 19.1328 19.1496Z" stroke="#374957" stroke-miterlimit="10"/>
<path d="M11.1388 21.0938L16.1082 16.1243" stroke="#374957" stroke-miterlimit="10"/>
<path d="M5.88171 16.1243L10.8511 21.0938" stroke="#374957" stroke-miterlimit="10"/>
<path d="M10.9941 15.0176V7.98974" stroke="#374957" stroke-miterlimit="10"/>
<path d="M10.9949 19.3024V25.9609" stroke="#374957" stroke-miterlimit="10"/>
</svg>
