<svg width="27" height="27" viewBox="0 0 27 27" fill="none" xmlns="http://www.w3.org/2000/svg">
<path d="M13.1699 0.764414L14.5418 3.54417L17.6096 3.98992L15.3898 6.15371L15.9137 9.20898L13.1699 7.76646L10.4261 9.20898L10.95 6.15371L8.73022 3.98992L11.798 3.54417L13.1699 0.764414Z" stroke="#374957" stroke-miterlimit="10" stroke-linecap="round" stroke-linejoin="round"/>
<path d="M3.78202 5.43227C3.78202 6.2916 3.08533 6.98828 2.22597 6.98828C1.36662 6.98828 0.669922 6.2916 0.669922 5.43227C0.669922 4.57294 1.36662 3.87626 2.22597 3.87626C3.08533 3.87626 3.78202 4.57294 3.78202 5.43227Z" stroke="#374957" stroke-miterlimit="10" stroke-linecap="round" stroke-linejoin="round"/>
<path d="M25.6697 5.43227C25.6697 6.2916 24.973 6.98828 24.1137 6.98828C23.2543 6.98828 22.5576 6.2916 22.5576 5.43227C22.5576 4.57294 23.2543 3.87626 24.1137 3.87626C24.973 3.87626 25.6697 4.57294 25.6697 5.43227Z" stroke="#374957" stroke-miterlimit="10" stroke-linecap="round" stroke-linejoin="round"/>
<path d="M3.78202 8.54348H0.669922V19.4355H3.78202V8.54348Z" stroke="#374957" stroke-miterlimit="10" stroke-linecap="round" stroke-linejoin="round"/>
<path d="M25.6697 8.54348H22.5576V19.4355H25.6697V8.54348Z" stroke="#374957" stroke-miterlimit="10" stroke-linecap="round" stroke-linejoin="round"/>
<path d="M3.78174 8.54354C5.34749 10.6311 7.59842 12.1085 10.0578 12.7891" stroke="#374957" stroke-miterlimit="10" stroke-linecap="round" stroke-linejoin="round"/>
<path d="M16.2825 12.7891C18.7419 12.1085 20.9928 10.6311 22.5585 8.54354" stroke="#374957" stroke-miterlimit="10" stroke-linecap="round" stroke-linejoin="round"/>
<path d="M17.8392 16.3239H8.50287L3.83472 25.7637H22.5073L17.8392 16.3239Z" stroke="#374957" stroke-miterlimit="10" stroke-linecap="round" stroke-linejoin="round"/>
</svg>
