<svg width="25" height="27" viewBox="0 0 25 27" fill="none" xmlns="http://www.w3.org/2000/svg">
<path d="M16.5602 10.3359H1V7.2239H16.5602V10.3359Z" stroke="#374957" stroke-miterlimit="10"/>
<path d="M2.55615 10.3361L4.11217 26H13.4483" stroke="#374957" stroke-miterlimit="10"/>
<path d="M14.5374 15.1074L15.0042 10.3356" stroke="#374957" stroke-miterlimit="10"/>
<path d="M15.0043 7.22461L13.4483 4.11258H4.11217L2.55615 7.22461" stroke="#374957" stroke-miterlimit="10"/>
<path d="M3.33398 0.999294H7.22403L8.00204 4.11133" stroke="#374957" stroke-miterlimit="10"/>
<path d="M24.3403 19.7754H10.3362V18.2194C10.3362 16.5006 11.7295 15.1073 13.4482 15.1073H21.2283C22.947 15.1073 24.3403 16.5006 24.3403 18.2194V19.7754Z" stroke="#374957" stroke-miterlimit="10"/>
<path d="M11.8921 22.8887V19.7766" stroke="#374957" stroke-miterlimit="10"/>
<path d="M21.2283 26H13.4482C11.7295 26 10.3362 24.6067 10.3362 22.888H24.3403C24.3403 24.6067 22.947 26 21.2283 26Z" stroke="#374957" stroke-miterlimit="10"/>
</svg>
