<svg width="27" height="33" viewBox="0 0 27 33" fill="none" xmlns="http://www.w3.org/2000/svg">
<path d="M24.3094 20.8059L22.226 19.8158V9.33399C22.226 4.739 18.4877 1.00065 13.8927 1.00065C9.29771 1.00065 5.55937 4.739 5.55937 9.33399V19.8158L3.47603 20.8059C2.37428 21.1207 1.3927 22.3158 1.3927 23.4616V32.3809H26.3927V23.4616C26.3927 22.3158 25.4111 21.1207 24.3094 20.8059Z" stroke="#374957" stroke-miterlimit="10" stroke-linecap="round" stroke-linejoin="round"/>
<path d="M18.5802 9.39779C18.5802 6.80892 16.4816 4.71029 13.8927 4.71029C11.3039 4.71029 9.20523 6.80892 9.20523 9.39779V13.5645C9.20523 16.1533 11.3039 18.252 13.8927 18.252C16.4816 18.252 18.5802 16.1533 18.5802 13.5645V9.39779Z" stroke="#374957" stroke-miterlimit="10" stroke-linecap="round" stroke-linejoin="round"/>
<path d="M9.20523 12.5234L13.8927 11.4818L18.5802 12.5234" stroke="#374957" stroke-miterlimit="10" stroke-linecap="round" stroke-linejoin="round"/>
<path d="M13.8927 18.2533V32.3809" stroke="#374957" stroke-miterlimit="10" stroke-linecap="round" stroke-linejoin="round"/>
<path d="M5.55936 19.8151L8.68436 21.8984" stroke="#374957" stroke-miterlimit="10" stroke-linecap="round" stroke-linejoin="round"/>
<path d="M22.2261 19.8151L19.1011 21.8984" stroke="#374957" stroke-miterlimit="10" stroke-linecap="round" stroke-linejoin="round"/>
<path d="M19.1011 27.1074H20.6636" stroke="#374957" stroke-miterlimit="10" stroke-linecap="round" stroke-linejoin="round"/>
</svg>
