<svg width="27" height="27" viewBox="0 0 27 27" fill="none" xmlns="http://www.w3.org/2000/svg">
<path d="M13.5 13.5V1H2.55602C1.69663 1 1 1.69663 1 2.55602V13.5H13.5Z" stroke="#374957" stroke-miterlimit="10" stroke-linecap="round" stroke-linejoin="round"/>
<path d="M13.5 13.5H26V2.55602C26 1.69663 25.3034 1 24.444 1H13.5V13.5Z" stroke="#374957" stroke-miterlimit="10" stroke-linecap="round" stroke-linejoin="round"/>
<path d="M13.5 13.5V26H24.444C25.3034 26 26 25.3034 26 24.444V13.5H13.5Z" stroke="#374957" stroke-miterlimit="10" stroke-linecap="round" stroke-linejoin="round"/>
<path d="M13.5 13.5H1V24.444C1 25.3034 1.69663 26 2.55602 26H13.5V13.5Z" stroke="#374957" stroke-miterlimit="10" stroke-linecap="round" stroke-linejoin="round"/>
<path d="M21.1186 4.81445C20.3629 4.81445 19.7503 5.42758 19.7503 6.18385C19.7503 5.42758 19.1377 4.81445 18.382 4.81445C17.6263 4.81445 17.0137 5.42758 17.0137 6.18385C17.0137 8.21129 19.7503 9.6837 19.7503 9.6837C19.7503 9.6837 22.4869 8.21129 22.4869 6.18385C22.4869 5.42758 21.8743 4.81445 21.1186 4.81445Z" stroke="#374957" stroke-miterlimit="10" stroke-linecap="round" stroke-linejoin="round"/>
<path d="M8.6186 17.3809C7.86289 17.3809 7.25029 17.994 7.25029 18.7503C7.25029 17.994 6.63769 17.3809 5.88198 17.3809C5.12628 17.3809 4.51367 17.994 4.51367 18.7503C4.51367 20.7777 7.25029 22.2501 7.25029 22.2501C7.25029 22.2501 9.98691 20.7777 9.98691 18.7503C9.98691 17.9939 9.3743 17.3809 8.6186 17.3809Z" stroke="#374957" stroke-miterlimit="10" stroke-linecap="round" stroke-linejoin="round"/>
<path d="M7.25023 9.29956L5.22792 10.3627L5.61413 8.11087L3.97803 6.51606L6.23907 6.18753L7.25023 4.13867L8.26138 6.18753L10.5224 6.51606L8.88633 8.11087L9.27258 10.3627L7.25023 9.29956Z" stroke="#374957" stroke-miterlimit="10" stroke-linecap="round" stroke-linejoin="round"/>
<path d="M19.626 21.7996L17.6036 22.8627L17.9899 20.6109L16.3538 19.0161L18.6148 18.6875L19.626 16.6387L20.6371 18.6875L22.8981 19.0161L21.2621 20.6109L21.6483 22.8627L19.626 21.7996Z" stroke="#374957" stroke-miterlimit="10" stroke-linecap="round" stroke-linejoin="round"/>
</svg>
