<svg width="26" height="20" viewBox="0 0 26 20" fill="none" xmlns="http://www.w3.org/2000/svg">
<path d="M18.0353 2.06249C18.1807 0.126486 14.9443 -0.185103 14.7117 1.78829C12.6884 2.05418 9.26925 2.89755 7.41633 5.55228C5.67974 8.04499 5.22275 11.3977 5.13135 12.2327C3.04993 13.7367 1.21364 14.8667 0.382734 15.6602C0.106374 15.9259 0.0608154 16.3517 0.274717 16.6698C0.386939 16.843 0.563455 16.9644 0.765323 17.0072C0.96719 17.0501 1.17782 17.0109 1.35074 16.8983C1.45045 16.8318 2.40183 16.2751 4.8613 16.6241C9.28586 17.2514 8.32202 19.5322 13.0582 19.1168C17.1711 18.7429 19.6514 15.7932 20.2829 14.9623C21.0681 14.9997 21.8367 15.0495 22.6094 15.1492C23.1342 15.2701 23.6848 15.2055 24.1673 14.9664C24.5866 14.6936 24.8705 14.2557 24.9484 13.7616C25.0968 12.9562 25.1595 12.1374 25.1353 11.3188C25.127 6.58261 22.4557 3.47503 18.0353 2.06249ZM9.76363 12.2037C10.0129 10.0973 11.2053 3.53734 16.2738 2.51949C20.1292 4.6923 18.2555 12.0749 17.7154 13.9319C14.5663 13.4749 11.4213 12.5153 9.76363 12.2037ZM17.2002 1.81737C16.6805 1.65389 16.1289 1.61826 15.5924 1.71351C15.8209 1.08618 17.0839 1.18173 17.2002 1.82984V1.81737ZM8.11845 6.03005C9.39388 4.19376 11.5875 3.313 13.3905 2.88924C10.0669 5.2864 9.16538 10.2344 8.94104 12.0998C7.97775 11.9653 7.00292 11.9332 6.03288 12.0042C6.17413 10.8534 6.68514 8.08239 8.11845 6.03005ZM12.9834 18.2817C8.59622 18.6972 9.65977 16.4579 4.97763 15.789C2.9253 15.4982 1.77034 15.789 1.23856 16.0175C2.13594 15.2655 3.88084 14.1771 5.70467 12.8601C9.58084 12.2784 14.0843 14.6133 19.2526 14.9373C17.6671 16.8125 15.4238 18.0093 12.9834 18.2817ZM24.1341 13.583C23.9638 14.3889 23.54 14.4513 22.7174 14.3432C20.9019 14.1064 19.909 14.1812 18.5629 14.0358C19.5184 10.7122 20.2247 5.63953 18.0685 2.95156C21.0515 3.97772 23.3032 5.85972 24.0469 8.98392C24.3672 10.4975 24.3968 12.0583 24.1341 13.583Z" fill="#374957"/>
</svg>
