<svg width="26" height="27" viewBox="0 0 26 27" fill="none" xmlns="http://www.w3.org/2000/svg">
<path d="M20.9356 22.8887H5.06421V26.0007H20.9356V22.8887Z" stroke="#374957" stroke-miterlimit="10" stroke-linecap="round" stroke-linejoin="round"/>
<path d="M25.5 10.0768C25.5 12.9393 23.5674 15.3501 20.9357 16.0768V26H5.06432V16.0768C2.43257 15.3501 0.5 12.9393 0.5 10.0768C0.5 6.63952 3.28683 3.8527 6.72407 3.8527C7.06224 3.8527 7.39367 3.88019 7.71732 3.93205C8.81691 2.17168 10.7713 1 13 1C15.2287 1 17.1831 2.17168 18.2827 3.93205C18.6063 3.88019 18.9378 3.8527 19.2759 3.8527C22.7132 3.8527 25.5 6.63952 25.5 10.0768Z" stroke="#374957" stroke-miterlimit="10" stroke-linecap="round" stroke-linejoin="round"/>
<path d="M6.77515 7.22407C6.77515 3.78683 9.56197 1 12.9992 1C16.4365 1 19.2233 3.78683 19.2233 7.22407" stroke="#374957" stroke-miterlimit="10" stroke-linecap="round" stroke-linejoin="round"/>
<path d="M12.9999 10.9062V15.0556" stroke="#374957" stroke-miterlimit="10" stroke-linecap="round" stroke-linejoin="round"/>
<path d="M7.15393 11.4082C7.15393 11.4082 7.38194 13.4145 9.29703 15.056" stroke="#374957" stroke-miterlimit="10" stroke-linecap="round" stroke-linejoin="round"/>
<path d="M18.8467 11.4082C18.8467 11.4082 18.6187 13.4145 16.7036 15.056" stroke="#374957" stroke-miterlimit="10" stroke-linecap="round" stroke-linejoin="round"/>
</svg>
