<svg width="27" height="34" viewBox="0 0 27 34" fill="none" xmlns="http://www.w3.org/2000/svg">
<path d="M5.52913 32.5449V15.5947" stroke="#374957" stroke-miterlimit="10"/>
<path d="M21.3668 32.5449V15.5947" stroke="#374957" stroke-miterlimit="10"/>
<path d="M0.947998 28.6172H25.948" stroke="#374957" stroke-miterlimit="10"/>
<path d="M13.448 9.50781C13.448 9.50781 16.0004 2.96331 20.3852 2.96331" stroke="#374957" stroke-miterlimit="10"/>
<path d="M13.448 9.50781C13.448 9.50781 10.8957 2.96331 6.51086 2.96331" stroke="#374957" stroke-miterlimit="10"/>
<path d="M11.4846 9.32209V14.2305" stroke="#374957" stroke-miterlimit="10"/>
<path d="M15.4113 9.32358V16.1953" stroke="#374957" stroke-miterlimit="10"/>
<path d="M20.3852 6.23556C20.3852 6.23556 18.4001 9.50781 13.448 9.50781C8.496 9.50781 6.51086 6.23556 6.51086 6.23556" stroke="#374957" stroke-miterlimit="10"/>
<path d="M6.51083 6.23602V2.96377C6.51083 2.96377 8.40873 1.00042 13.448 1.00042C18.4873 1.00042 20.3852 2.96377 20.3852 2.96377V6.23602L25.948 8.85382V32.5449H0.947998V8.85382L6.51083 6.23602Z" stroke="#374957" stroke-miterlimit="10"/>
</svg>
