<svg width="27" height="27" viewBox="0 0 27 27" fill="none" xmlns="http://www.w3.org/2000/svg">
<path d="M17.5267 11.6732C16.9191 12.2808 15.934 12.2808 15.3263 11.6732C14.7187 11.0656 14.7187 10.0805 15.3263 9.47283C15.934 8.8652 16.9191 8.8652 17.5267 9.47283C18.1343 10.0805 18.1343 11.0656 17.5267 11.6732Z" stroke="#374957" stroke-miterlimit="10" stroke-linecap="round" stroke-linejoin="round"/>
<path d="M19.7269 9.47396C19.1193 10.0816 18.1342 10.0816 17.5265 9.47396C16.9189 8.86633 16.9189 7.88119 17.5265 7.27356C18.1342 6.66598 19.1193 6.66598 19.7269 7.27356C20.3345 7.88119 20.3345 8.86633 19.7269 9.47396Z" stroke="#374957" stroke-miterlimit="10" stroke-linecap="round" stroke-linejoin="round"/>
<path d="M24.6779 6.72284C23.1589 8.24192 20.9423 8.48817 19.7271 7.27291C18.5118 6.0577 18.7581 3.84116 20.2771 2.32209C21.7962 0.803061 24.0128 0.556762 25.228 1.77202C26.4432 2.98723 26.197 5.20382 24.6779 6.72284Z" stroke="#374957" stroke-miterlimit="10" stroke-linecap="round" stroke-linejoin="round"/>
<path d="M13.7527 19.8484L12.3474 18.443C12.6211 17.407 12.3647 16.2601 11.5524 15.4477C10.74 14.6353 9.59304 14.3789 8.55697 14.6527L7.15158 13.2473L4.95117 15.4477L6.35656 16.8531C6.08278 17.8892 6.33919 19.0361 7.15158 19.8484C7.96391 20.6609 9.11087 20.9172 10.1469 20.6434L11.5523 22.0488L13.7527 19.8484Z" stroke="#374957" stroke-miterlimit="10" stroke-linecap="round" stroke-linejoin="round"/>
<path d="M3.44753 23.5525C0.184287 20.2892 0.184028 15.0073 3.44753 11.7438C6.71082 8.48057 11.9927 8.48031 15.2562 11.7438C18.5194 15.0071 18.5197 20.2889 15.2562 23.5525C11.9929 26.8157 6.71108 26.816 3.44753 23.5525Z" stroke="#374957" stroke-miterlimit="10" stroke-linecap="round" stroke-linejoin="round"/>
</svg>
