<svg width="17" height="22" viewBox="0 0 17 22" fill="none" xmlns="http://www.w3.org/2000/svg">
<path d="M2.2417 12.9082V3.86257C2.2417 2.28133 3.52352 0.999502 5.10477 0.999502V12.9082" stroke="#374957" stroke-miterlimit="10"/>
<path d="M13.113 21V1.00002C14.6943 1.00002 15.9761 2.28185 15.9761 3.86309V21H13.113Z" stroke="#374957" stroke-miterlimit="10"/>
<path d="M13.113 3.86328H5.10474" stroke="#374957" stroke-miterlimit="10"/>
<path d="M4.89722 1H13.2167" stroke="#374957" stroke-miterlimit="10"/>
<path d="M3.67639 15.3131L4.81112 17.4691C5.12295 18.0616 5.2859 18.721 5.2859 19.3905C5.2859 20.2794 4.56527 21 3.67639 21C2.78752 21 2.06689 20.2794 2.06689 19.3905C2.06689 18.721 2.22984 18.0616 2.54167 17.4691L3.67639 15.3131Z" stroke="#374957" stroke-miterlimit="10"/>
<path d="M6.35269 15.4395H1V12.9498H6.35269V15.4395Z" stroke="#374957" stroke-miterlimit="10"/>
</svg>
