<svg width="26" height="27" viewBox="0 0 26 27" fill="none" xmlns="http://www.w3.org/2000/svg">
<path d="M5.31567 26H20.4866" stroke="#374957" stroke-miterlimit="10"/>
<path d="M21.6247 3.81317C21.6247 2.25949 20.3652 1 18.8115 1C17.6568 1 16.6651 1.69595 16.2317 2.69098C15.2575 2.10902 14.1185 1.77427 12.9012 1.77427C11.684 1.77427 10.545 2.10902 9.57078 2.69098C9.13728 1.69595 8.14563 1 6.99091 1C5.43723 1 4.17773 2.25949 4.17773 3.81317C4.17773 5.23968 5.23977 6.41743 6.61612 6.60078C6.47364 7.13594 6.39729 7.69813 6.39729 8.27816C6.39729 11.8702 9.30917 14.7821 12.9012 14.7821C16.4932 14.7821 19.4051 11.8702 19.4051 8.27816C19.4051 7.69813 19.3287 7.13594 19.1862 6.60078C20.5626 6.41743 21.6247 5.23973 21.6247 3.81317Z" stroke="#374957" stroke-miterlimit="10"/>
<path d="M5.30058 25.9998C6.99697 25.9998 8.37216 24.4691 8.37216 22.5809C8.37216 20.6928 6.99697 19.1621 5.30058 19.1621C3.6042 19.1621 2.229 20.6928 2.229 22.5809C2.229 24.4691 3.6042 25.9998 5.30058 25.9998Z" stroke="#374957" stroke-miterlimit="10"/>
<path d="M20.4717 25.9998C22.1681 25.9998 23.5433 24.4691 23.5433 22.5809C23.5433 20.6928 22.1681 19.1621 20.4717 19.1621C18.7753 19.1621 17.4001 20.6928 17.4001 22.5809C17.4001 24.4691 18.7753 25.9998 20.4717 25.9998Z" stroke="#374957" stroke-miterlimit="10"/>
<path d="M3.2389 20.209C2.23683 20.0803 1.36354 19.3622 1.08719 18.3256C0.722355 16.9573 1.53584 15.5524 2.90415 15.1875L6.66214 14.1855" stroke="#374957" stroke-miterlimit="10"/>
<path d="M22.689 20.1846C23.6249 20.0051 24.4232 19.3086 24.6851 18.3261C25.05 16.9578 24.2365 15.5528 22.8682 15.188L18.9546 14.1445" stroke="#374957" stroke-miterlimit="10"/>
<path d="M4.97754 19.1614V19.0715C4.97754 16.5653 6.25664 14.2324 8.3696 12.8848" stroke="#374957" stroke-miterlimit="10"/>
<path d="M20.7947 19.1614V19.0715C20.7947 16.5653 19.5156 14.2324 17.4026 12.8848" stroke="#374957" stroke-miterlimit="10"/>
<path d="M11.1487 11.2695H14.6536" stroke="#374957" stroke-miterlimit="10"/>
<path d="M12.8862 10.5645V14.7822" stroke="#374957" stroke-miterlimit="10"/>
<path d="M10.1882 7.94727H11.7442" stroke="#374957" stroke-miterlimit="10"/>
<path d="M14.1311 7.94727H15.6871" stroke="#374957" stroke-miterlimit="10"/>
<path d="M15.2348 20.0872C14.52 20.0872 13.9406 19.5078 13.9406 18.793H11.7835C11.7835 19.5078 11.204 20.0872 10.4893 20.0872" stroke="#374957" stroke-miterlimit="10"/>
</svg>
