<svg width="27" height="27" viewBox="0 0 27 27" fill="none" xmlns="http://www.w3.org/2000/svg">
<path d="M13.5 1L16.4008 2.67459H19.75L21.4246 5.57541L24.3254 7.25V10.5992L26 13.5L24.3254 16.4008V19.75L21.4246 21.4246L19.75 24.3254H16.4008L13.5 26L10.5992 24.3254H7.25L5.57542 21.4246L2.67458 19.75V16.4008L1 13.5L2.67458 10.5992V7.25L5.57542 5.57541L7.25 2.67459H10.5992L13.5 1Z" stroke="#374957" stroke-miterlimit="10" stroke-linecap="round" stroke-linejoin="round"/>
<path d="M5.5824 16V11L8.91575 16V11" stroke="#374957" stroke-miterlimit="10" stroke-linecap="round" stroke-linejoin="round"/>
<path d="M13.9177 16H11.4177V11H13.9177" stroke="#374957" stroke-miterlimit="10" stroke-linecap="round" stroke-linejoin="round"/>
<path d="M13.0844 13.5H11.4177" stroke="#374957" stroke-miterlimit="10" stroke-linecap="round" stroke-linejoin="round"/>
<path d="M16.0001 11L17.2501 16L18.9168 11L20.5835 16L21.8334 11" stroke="#374957" stroke-miterlimit="10" stroke-linecap="round" stroke-linejoin="round"/>
</svg>
