<svg width="26" height="26" viewBox="0 0 26 26" fill="none" xmlns="http://www.w3.org/2000/svg">
<path d="M17.1711 13.0639H25.0182V16.082H17.4227" stroke="#374957" stroke-miterlimit="10"/>
<path d="M8.36828 16.082H0.772705V13.0639H8.61979" stroke="#374957" stroke-miterlimit="10"/>
<path d="M15.9134 22.1172H9.87722C9.04382 22.1172 8.36816 21.4415 8.36816 20.6081C8.36816 19.7747 9.04382 19.0991 9.87722 19.0991H15.9134C16.7468 19.0991 17.4225 19.7747 17.4225 20.6081C17.4225 21.4415 16.7468 22.1172 15.9134 22.1172Z" stroke="#374957" stroke-miterlimit="10"/>
<path d="M15.2794 7.02771H10.5112C9.72636 7.02771 9.07254 7.62932 9.0074 8.41146L8.36816 16.082H17.4225L16.7833 8.41146C16.7181 7.62932 16.0643 7.02771 15.2794 7.02771Z" stroke="#374957" stroke-miterlimit="10"/>
<path d="M8.87122 10.0449H5.3501V0.889997H20.4406V10.0449H16.9195" stroke="#374957" stroke-miterlimit="10"/>
<path d="M12.8955 25.1367V22.1186" stroke="#374957" stroke-miterlimit="10"/>
<path d="M12.8955 19.0996V16.0815" stroke="#374957" stroke-miterlimit="10"/>
<path d="M9.1228 25.1367H16.6681" stroke="#374957" stroke-miterlimit="10"/>
<path d="M2.28174 16.0818V25.8906" stroke="#374957" stroke-miterlimit="10"/>
<path d="M23.5093 16.0818V25.8906" stroke="#374957" stroke-miterlimit="10"/>
</svg>
