<svg width="28" height="27" viewBox="0 0 28 27" fill="none" xmlns="http://www.w3.org/2000/svg">
<path d="M18.8386 3.94133C18.8386 6.23789 16.6651 8.09961 13.9839 8.09961C11.3028 8.09961 9.12923 6.23789 9.12923 3.94133C9.12923 1.64476 11.3028 1.17356 13.9839 1.17356C16.6651 1.17356 18.8386 1.64476 18.8386 3.94133Z" stroke="#374957" stroke-miterlimit="10" stroke-linecap="round" stroke-linejoin="round"/>
<path d="M11.8383 4.42603C12.485 4.69984 13.2133 4.85352 13.9839 4.85352C14.7431 4.85352 15.4612 4.70417 16.1008 4.43848" stroke="#374957" stroke-miterlimit="10" stroke-linecap="round" stroke-linejoin="round"/>
<path d="M21.372 14.0841V26.1738H6.59602V14.0841" stroke="#374957" stroke-miterlimit="10" stroke-linecap="round" stroke-linejoin="round"/>
<path d="M9.16127 4.42207L6.188 5.81864C5.53789 6.124 5.05467 6.69937 4.86625 7.39249L0.942871 20.7399L6.59601 22.1035" stroke="#374957" stroke-miterlimit="10" stroke-linecap="round" stroke-linejoin="round"/>
<path d="M18.8067 4.42207L21.7799 5.81864C22.43 6.124 22.9133 6.69937 23.1017 7.39249L27.0251 20.7399L21.3719 22.1035" stroke="#374957" stroke-miterlimit="10" stroke-linecap="round" stroke-linejoin="round"/>
<path d="M6.59597 18.7891L1.85193 17.6444" stroke="#374957" stroke-miterlimit="10" stroke-linecap="round" stroke-linejoin="round"/>
<path d="M26.116 17.6444L21.372 18.7891" stroke="#374957" stroke-miterlimit="10" stroke-linecap="round" stroke-linejoin="round"/>
<path d="M13.984 4.85374V8.10024V26.1738" stroke="#374957" stroke-miterlimit="10" stroke-linecap="round" stroke-linejoin="round"/>
</svg>
