<svg width="27" height="27" viewBox="0 0 27 27" fill="none" xmlns="http://www.w3.org/2000/svg">
<path d="M9.26978 0.999435H17.0737L13.1725 5.65625L9.26978 0.999435Z" stroke="#374957" stroke-miterlimit="10" stroke-linecap="round" stroke-linejoin="round"/>
<path d="M9.26975 1.00059L7.65393 3.32974L10.6731 7.70117L13.1725 5.6574" stroke="#374957" stroke-miterlimit="10" stroke-linecap="round" stroke-linejoin="round"/>
<path d="M17.0737 1.00059L18.6895 3.32974L15.6719 7.70117L13.1725 5.6574" stroke="#374957" stroke-miterlimit="10" stroke-linecap="round" stroke-linejoin="round"/>
<path d="M4.383 9.24408C4.96824 10.3606 5.2113 11.9473 5.2113 13.1599V26.2656H21.1336V13.1599C21.1336 11.9473 21.3768 10.3606 21.9619 9.24408M7.65393 3.32809L4.47036 4.92795C1.16451 6.58888 0.672485 10.9822 0.672485 15.4032H5.2113M18.6895 3.32809L21.8732 4.92795C25.179 6.58888 25.6725 10.9822 25.6725 15.4032H21.1336" stroke="#374957" stroke-miterlimit="10" stroke-linecap="round" stroke-linejoin="round"/>
<path d="M13.1696 11.5137H13.1729" stroke="#374957" stroke-miterlimit="10" stroke-linecap="round" stroke-linejoin="round"/>
<path d="M13.1696 8.58594H13.1729" stroke="#374957" stroke-miterlimit="10" stroke-linecap="round" stroke-linejoin="round"/>
<path d="M5.21126 13.1621H0.726318" stroke="#374957" stroke-miterlimit="10" stroke-linecap="round" stroke-linejoin="round"/>
<path d="M21.1337 13.1621H25.6172" stroke="#374957" stroke-miterlimit="10" stroke-linecap="round" stroke-linejoin="round"/>
<path d="M21.1337 24.0234H5.21133" stroke="#374957" stroke-miterlimit="10" stroke-linecap="round" stroke-linejoin="round"/>
</svg>
