<svg width="27" height="24" viewBox="0 0 27 24" fill="none" xmlns="http://www.w3.org/2000/svg">
<path d="M16.6116 11.8926H25.9995V8.78055C25.9995 7.92116 25.3028 7.22453 24.4435 7.22453H19.7755" stroke="#374957" stroke-miterlimit="10" stroke-linecap="round" stroke-linejoin="round"/>
<path d="M10.388 11.8926H1V8.78055C1 7.92116 1.69668 7.22453 2.55602 7.22453H7.22406" stroke="#374957" stroke-miterlimit="10" stroke-linecap="round" stroke-linejoin="round"/>
<path d="M24.4434 11.8931V21.2291C24.4434 22.0885 23.7467 22.7852 22.8873 22.7852H4.11143C3.2521 22.7852 2.55542 22.0885 2.55542 21.2291V11.8931" stroke="#374957" stroke-miterlimit="10" stroke-linecap="round" stroke-linejoin="round"/>
<path d="M10.3877 22.7852V7.225" stroke="#374957" stroke-miterlimit="10" stroke-linecap="round" stroke-linejoin="round"/>
<path d="M16.6116 22.7852V7.225" stroke="#374957" stroke-miterlimit="10" stroke-linecap="round" stroke-linejoin="round"/>
<path d="M22.8437 4.64417C22.5863 6.17445 21.1389 7.22461 19.5871 7.22461H13.5005L17.235 2.24536C17.8107 1.49853 18.765 1.00055 19.7764 1.00055C21.6624 1.00055 23.1706 2.70086 22.8437 4.64417Z" stroke="#374957" stroke-miterlimit="10" stroke-linecap="round" stroke-linejoin="round"/>
<path d="M13.5007 7.22461H7.41412C5.86236 7.22461 4.4149 6.1744 4.15754 4.64417C3.83072 2.70086 5.33891 1.00055 7.2248 1.00055C8.23627 1.00055 9.19052 1.49847 9.76624 2.24536L13.5007 7.22461Z" stroke="#374957" stroke-miterlimit="10" stroke-linecap="round" stroke-linejoin="round"/>
</svg>
