<svg width="27" height="28" viewBox="0 0 27 28" fill="none" xmlns="http://www.w3.org/2000/svg">
<path d="M9.01727 0.563168L13.1839 3.89648L17.3506 0.563168H9.01727Z" stroke="#374957" stroke-miterlimit="10" stroke-linecap="round" stroke-linejoin="round"/>
<path d="M9.01732 0.561883L7.35065 2.22854L9.85065 7.22852L13.184 3.8952L16.5173 7.22852L19.0173 2.22854L17.3507 0.561883" stroke="#374957" stroke-miterlimit="10" stroke-linecap="round" stroke-linejoin="round"/>
<path d="M7.35064 2.2282L3.20885 3.26364C1.72496 3.63458 0.68396 4.96785 0.68396 6.49745V24.0059H4.85063" stroke="#374957" stroke-miterlimit="10" stroke-linecap="round" stroke-linejoin="round"/>
<path d="M19.0173 2.2282L23.1591 3.26364C24.6429 3.63458 25.6839 4.96785 25.6839 6.49745V24.0059H21.5173" stroke="#374957" stroke-miterlimit="10" stroke-linecap="round" stroke-linejoin="round"/>
<path d="M4.85059 8.8955V27.3398H11.5173C12.4377 27.3398 13.1839 26.5937 13.1839 25.6732V3.89552" stroke="#374957" stroke-miterlimit="10" stroke-linecap="round" stroke-linejoin="round"/>
<path d="M21.5173 8.89549V27.3398H14.8506C13.9302 27.3398 13.184 26.5937 13.184 25.6732" stroke="#374957" stroke-miterlimit="10" stroke-linecap="round" stroke-linejoin="round"/>
<path d="M0.68396 20.6738H4.85063" stroke="#374957" stroke-miterlimit="10" stroke-linecap="round" stroke-linejoin="round"/>
<path d="M21.5173 20.6738H25.6839" stroke="#374957" stroke-miterlimit="10" stroke-linecap="round" stroke-linejoin="round"/>
</svg>
