<svg width="22" height="27" viewBox="0 0 22 27" fill="none" xmlns="http://www.w3.org/2000/svg">
<path d="M8.78201 26.168L12.9314 26.168L12.9314 22.9522L8.78201 22.9522L8.78201 26.168Z" stroke="#374957" stroke-miterlimit="10" stroke-linecap="round" stroke-linejoin="round"/>
<path d="M20.7096 22.9515L15.834 15.1714H18.6867L10.8548 4.2793L3.02282 15.1714H5.87553L1 22.9515H20.7096Z" stroke="#374957" stroke-miterlimit="10" stroke-linecap="round" stroke-linejoin="round"/>
<path d="M10.8539 4.28001C11.7132 4.28001 12.4099 3.58335 12.4099 2.72399C12.4099 1.86462 11.7132 1.16797 10.8539 1.16797C9.9945 1.16797 9.29785 1.86462 9.29785 2.72399C9.29785 3.58335 9.9945 4.28001 10.8539 4.28001Z" stroke="#374957" stroke-miterlimit="10" stroke-linecap="round" stroke-linejoin="round"/>
<circle cx="8.77996" cy="12.3718" r="0.778009" fill="#374957" stroke="#374957" stroke-miterlimit="10" stroke-linecap="round" stroke-linejoin="round"/>
<circle cx="14.9006" cy="19.8405" r="0.778009" fill="#374957" stroke="#374957" stroke-miterlimit="10" stroke-linecap="round" stroke-linejoin="round"/>
<circle cx="10.8544" cy="18.0241" r="0.778009" fill="#374957" stroke="#374957" stroke-miterlimit="10" stroke-linecap="round" stroke-linejoin="round"/>
<circle cx="10.8544" cy="8.79168" r="0.778009" fill="#374957" stroke="#374957" stroke-miterlimit="10" stroke-linecap="round" stroke-linejoin="round"/>
<path d="M13.6561 22.952C9.35923 22.952 5.87598 19.4687 5.87598 15.1719" stroke="#374957" stroke-miterlimit="10" stroke-linecap="round" stroke-linejoin="round"/>
<path d="M5.87598 15.1718H8.25269C11.3641 15.1718 14.135 13.2035 15.1594 10.2656" stroke="#374957" stroke-miterlimit="10" stroke-linecap="round" stroke-linejoin="round"/>
</svg>
