<svg width="27" height="27" viewBox="0 0 27 27" fill="none" xmlns="http://www.w3.org/2000/svg">
<path d="M13.2706 17.4492L16.968 14.7628L15.5557 10.4162H10.9854L9.57312 14.7628L13.2706 17.4492Z" stroke="#374957" stroke-miterlimit="10" stroke-linecap="round" stroke-linejoin="round"/>
<path d="M3.1564 20.8379L4.52118 16.4762L0.775879 13.8115" stroke="#374957" stroke-miterlimit="10" stroke-linecap="round" stroke-linejoin="round"/>
<path d="M4.52124 16.4766L9.57365 14.7627" stroke="#374957" stroke-miterlimit="10" stroke-linecap="round" stroke-linejoin="round"/>
<path d="M23.3852 20.8379L22.0204 16.4762L25.7657 13.8115" stroke="#374957" stroke-miterlimit="10" stroke-linecap="round" stroke-linejoin="round"/>
<path d="M22.0204 16.4766L16.968 14.7627" stroke="#374957" stroke-miterlimit="10" stroke-linecap="round" stroke-linejoin="round"/>
<path d="M9.10077 1.71903C15.6072 -0.582992 22.7479 2.82542 25.0499 9.33184C27.3519 15.8383 23.9435 22.979 17.4371 25.281C10.9306 27.583 3.78992 24.1746 1.48795 17.6682C-0.814064 11.1617 2.59429 4.02104 9.10077 1.71903Z" stroke="#374957" stroke-miterlimit="10" stroke-linecap="round" stroke-linejoin="round"/>
<path d="M10.9854 10.416L7.78418 6.09354" stroke="#374957" stroke-miterlimit="10" stroke-linecap="round" stroke-linejoin="round"/>
<path d="M3.16992 6.13867L7.78412 6.09356L9.16476 1.69714" stroke="#374957" stroke-miterlimit="10" stroke-linecap="round" stroke-linejoin="round"/>
<path d="M23.3712 6.13867L18.757 6.09356L17.3763 1.69714" stroke="#374957" stroke-miterlimit="10" stroke-linecap="round" stroke-linejoin="round"/>
<path d="M15.5558 10.416L18.757 6.09354" stroke="#374957" stroke-miterlimit="10" stroke-linecap="round" stroke-linejoin="round"/>
<path d="M16.9774 25.4345L13.2706 22.7413L9.56213 25.4355" stroke="#374957" stroke-miterlimit="10" stroke-linecap="round" stroke-linejoin="round"/>
<path d="M13.2706 22.7402V17.4487" stroke="#374957" stroke-miterlimit="10" stroke-linecap="round" stroke-linejoin="round"/>
</svg>
