<svg width="27" height="27" viewBox="0 0 27 27" fill="none" xmlns="http://www.w3.org/2000/svg">
<path d="M22.2978 11.5623L26.281 9.98995L25.3093 5.09901C24.9444 3.26227 23.5275 1.81537 21.6988 1.41196L17.5808 0.503573H9.98122L5.86319 1.41196C4.03452 1.81537 2.61764 3.26227 2.2527 5.09901L1.28101 9.98995L5.26423 11.5623V25.7656H22.2978V11.5623Z" stroke="#374957" stroke-miterlimit="10"/>
<path d="M5.26427 11.5625V10.2026C5.26427 8.46014 4.94698 6.7321 4.32795 5.10322L3.44635 2.78357" stroke="#374957" stroke-miterlimit="10"/>
<path d="M22.2978 11.5625V10.2026C22.2978 8.46014 22.6151 6.7321 23.2341 5.10322L24.1157 2.78352" stroke="#374957" stroke-miterlimit="10"/>
<path d="M17.5808 0.50473V0.635757C17.5808 2.73434 15.8796 4.43555 13.781 4.43555C11.6824 4.43555 9.9812 2.73434 9.9812 0.635757V0.50473" stroke="#374957" stroke-miterlimit="10"/>
</svg>
