<svg width="27" height="27" viewBox="0 0 27 27" fill="none" xmlns="http://www.w3.org/2000/svg">
<path d="M15.5508 3.36619C16.4678 3.60286 17.3341 3.96619 18.1296 4.43662C18.1296 4.43662 18.5128 4.05327 18.9433 3.62282C19.2558 3.30996 19.6799 3.13449 20.122 3.13449C20.5636 3.13449 20.9879 3.30996 21.3004 3.62282C21.6795 4.00203 22.0995 4.42199 22.4787 4.8012C22.7916 5.1137 22.967 5.53787 22.967 5.97952C22.967 6.42163 22.7916 6.84575 22.4787 7.15825C22.0482 7.5887 21.6649 7.97199 21.6649 7.97199C22.1353 8.76743 22.4987 9.63366 22.7354 10.5508H23.8841C24.8045 10.5508 25.5508 11.297 25.5508 12.2174V13.8841C25.5508 14.8045 24.8045 15.5508 23.8841 15.5508H22.7354C22.4987 16.4678 22.1353 17.3341 21.6649 18.1295C21.6649 18.1295 22.0482 18.5129 22.4787 18.9433C22.7916 19.2558 22.967 19.6799 22.967 20.122C22.967 20.5637 22.7916 20.9879 22.4787 21.3004C22.0995 21.6795 21.6795 22.0995 21.3004 22.4787C20.9879 22.7916 20.5636 22.967 20.122 22.967C19.6799 22.967 19.2558 22.7916 18.9433 22.4787C18.5128 22.0482 18.1296 21.6649 18.1296 21.6649C17.3341 22.1353 16.4678 22.4987 15.5508 22.7353V23.8841C15.5508 24.8045 14.8045 25.5508 13.8841 25.5508H12.2174C11.297 25.5508 10.5508 24.8045 10.5508 23.8841V22.7353C9.63372 22.4987 8.76743 22.1353 7.972 21.6649C7.972 21.6649 7.5887 22.0482 7.15825 22.4787C6.84575 22.7916 6.42158 22.967 5.97952 22.967C5.53787 22.967 5.11365 22.7916 4.8012 22.4787C4.42205 22.0995 4.00203 21.6795 3.62283 21.3004C3.30996 20.9879 3.1345 20.5637 3.1345 20.122C3.1345 19.6799 3.30996 19.2558 3.62283 18.9433C4.05327 18.5129 4.43662 18.1295 4.43662 18.1295C3.96619 17.3341 3.60291 16.4678 3.36619 15.5508H2.21748C1.29705 15.5508 0.550781 14.8045 0.550781 13.8841V12.2174C0.550781 11.297 1.29705 10.5508 2.21748 10.5508H3.36619C3.60291 9.63366 3.96619 8.76743 4.43662 7.97199C4.43662 7.97199 4.05327 7.5887 3.62283 7.15825C3.30996 6.84575 3.1345 6.42163 3.1345 5.97952C3.1345 5.53787 3.30996 5.1137 3.62283 4.8012C4.00203 4.42199 4.42205 4.00203 4.8012 3.62282C5.11365 3.30996 5.53787 3.13449 5.97952 3.13449C6.42158 3.13449 6.84575 3.30996 7.15825 3.62282C7.5887 4.05327 7.972 4.43662 7.972 4.43662C8.76743 3.96619 9.63372 3.60286 10.5508 3.36619V2.21743C10.5508 1.29699 11.297 0.550781 12.2174 0.550781H13.8841C14.8045 0.550781 15.5508 1.29699 15.5508 2.21743V3.36619Z" stroke="#374957" stroke-miterlimit="10" stroke-linecap="round" stroke-linejoin="round"/>
<path d="M13.0508 8.05078C15.8104 8.05078 18.0508 10.2912 18.0508 13.0508C18.0508 15.8103 15.8104 18.0508 13.0508 18.0508C10.2912 18.0508 8.05078 15.8103 8.05078 13.0508C8.05078 10.2912 10.2912 8.05078 13.0508 8.05078Z" stroke="#374957" stroke-miterlimit="10" stroke-linecap="round" stroke-linejoin="round"/>
</svg>
