<svg width="27" height="27" viewBox="0 0 27 27" fill="none" xmlns="http://www.w3.org/2000/svg">
<path d="M26.1936 13.4512C24.4749 11.7324 21.6883 11.7324 19.9696 13.4512C18.2508 11.7324 15.4642 11.7324 13.7455 13.4512C12.0268 11.7324 9.24016 11.7324 7.52143 13.4512C5.80271 11.7324 3.01609 11.7324 1.29736 13.4512C1.29736 6.57627 6.8706 2.55905 13.7455 2.55905C20.6204 2.55905 26.1936 6.57627 26.1936 13.4512Z" stroke="#374957" stroke-miterlimit="10" stroke-linecap="round" stroke-linejoin="round"/>
<path d="M13.7456 1.00303V13.4512" stroke="#374957" stroke-miterlimit="10" stroke-linecap="round" stroke-linejoin="round"/>
<path d="M13.7456 13.452V23.6699C13.7456 24.9589 14.7906 26.0039 16.0796 26.0039C17.3687 26.0039 18.4137 24.9589 18.4137 23.6699V22.8919" stroke="#374957" stroke-miterlimit="10" stroke-linecap="round" stroke-linejoin="round"/>
<path d="M12.1895 21.3359H13.7455" stroke="#374957" stroke-miterlimit="10" stroke-linecap="round" stroke-linejoin="round"/>
<path d="M7.52148 13.4512C7.52148 6.57627 10.3081 2.55905 13.7456 2.55905C17.183 2.55905 19.9696 6.57627 19.9696 13.4512" stroke="#374957" stroke-miterlimit="10" stroke-linecap="round" stroke-linejoin="round"/>
</svg>
