<svg width="30" height="27" viewBox="0 0 30 27" fill="none" xmlns="http://www.w3.org/2000/svg">
<path d="M21.8286 1.25003C18.788 1.25003 16.1909 3.14491 15.1548 5.81686C14.1191 3.14491 11.5217 1.25003 8.48124 1.25003C4.33354 1.23896 1.34685 4.77513 1.34685 8.93694H1.3457C1.3457 8.96464 1.34696 8.992 1.34714 9.01958C1.37071 12.2291 2.75959 15.1268 4.64891 17.5891C7.68016 21.5398 13.1366 25.052 15.1645 26.25C17.2028 25.0819 22.6395 21.6387 25.6546 17.5891C27.4595 15.165 28.8124 12.2843 28.9669 9.01958C28.9766 8.81346 28.9832 8.60625 28.9832 8.39704C28.9831 4.44983 25.78 1.25003 21.8286 1.25003Z" stroke="#374957" stroke-miterlimit="10" stroke-linecap="round" stroke-linejoin="round"/>
<path d="M15.1555 5.81641V26.2495" stroke="#374957" stroke-miterlimit="10" stroke-linecap="round" stroke-linejoin="round"/>
<path d="M2.97632 15.0215H27.2771" stroke="#374957" stroke-miterlimit="10" stroke-linecap="round" stroke-linejoin="round"/>
<path d="M15.1512 15.02V11.7547C15.1512 10.627 14.237 9.71289 13.1094 9.71289C11.9818 9.71289 11.0676 10.627 11.0676 11.7547C11.0676 11.7892 11.0683 11.8237 11.0696 11.8581C11.1082 12.8929 11.7949 13.7923 12.7674 14.148L15.1512 15.02Z" stroke="#374957" stroke-miterlimit="10" stroke-linecap="round" stroke-linejoin="round"/>
<path d="M15.1511 15.02V11.7547C15.1511 10.627 16.0652 9.71289 17.1929 9.71289C18.3205 9.71289 19.2347 10.627 19.2347 11.7547C19.2347 11.7892 19.234 11.8237 19.2327 11.8581C19.1941 12.8929 18.5074 13.7923 17.5349 14.148L15.1511 15.02Z" stroke="#374957" stroke-miterlimit="10" stroke-linecap="round" stroke-linejoin="round"/>
<path d="M11.7627 18.4194L15.1525 15.0215L18.5423 18.4194" stroke="#374957" stroke-miterlimit="10" stroke-linecap="round" stroke-linejoin="round"/>
</svg>
