<svg width="31" height="32" viewBox="0 0 31 32" fill="none" xmlns="http://www.w3.org/2000/svg">
<path d="M20.6143 15.6954H30.0001V19.3066H20.9151" stroke="white" stroke-width="1.5" stroke-miterlimit="10"/>
<path d="M10.0851 19.3066H1V15.6954H10.3859" stroke="white" stroke-width="1.5" stroke-miterlimit="10"/>
<path d="M19.1099 26.5293H11.8899C10.8931 26.5293 10.085 25.7209 10.085 24.7237C10.085 23.7265 10.8931 22.9181 11.8899 22.9181H19.1099C20.1067 22.9181 20.9148 23.7265 20.9148 24.7237C20.9148 25.7209 20.1067 26.5293 19.1099 26.5293Z" stroke="white" stroke-width="1.5" stroke-miterlimit="10"/>
<path d="M18.3515 8.473H12.6483C11.7095 8.473 10.9275 9.19284 10.8495 10.1287L10.085 19.3066H20.9148L20.1502 10.1287C20.0723 9.19284 19.2903 8.473 18.3515 8.473Z" stroke="white" stroke-width="1.5" stroke-miterlimit="10"/>
<path d="M10.6867 12.084H6.4751V1.12997H24.5249V12.084H20.3133" stroke="white" stroke-width="1.5" stroke-miterlimit="10"/>
<path d="M15.5 30.1406V26.5294" stroke="white" stroke-width="1.5" stroke-miterlimit="10"/>
<path d="M15.5 22.918V19.3068" stroke="white" stroke-width="1.5" stroke-miterlimit="10"/>
<path d="M10.9878 30.1406H20.0127" stroke="white" stroke-width="1.5" stroke-miterlimit="10"/>
<path d="M2.80518 19.3065V31.043" stroke="white" stroke-width="1.5" stroke-miterlimit="10"/>
<path d="M28.1948 19.3065V31.043" stroke="white" stroke-width="1.5" stroke-miterlimit="10"/>
</svg>
