<svg width="25" height="25" viewBox="0 0 25 25" fill="none" xmlns="http://www.w3.org/2000/svg">
<path d="M18.2327 0H6.76727C3.03574 0 0 3.03574 0 6.76727V18.2329C0 21.9643 3.03574 25 6.76727 25H18.2329C21.9643 25 25 21.9643 25 18.2329V6.76727C25 3.03574 21.9643 0 18.2327 0ZM23.5344 18.2329C23.5344 21.1561 21.1561 23.5344 18.2327 23.5344H6.76727C3.84388 23.5344 1.46561 21.1561 1.46561 18.2329V6.76727C1.46561 3.84388 3.84388 1.46561 6.76727 1.46561H18.2329C21.1561 1.46561 23.5344 3.84388 23.5344 6.76727V18.2329Z" fill="#212321"/>
<path d="M12.1212 6.06079C8.3616 6.06079 5.30304 9.11936 5.30304 12.879C5.30304 16.6386 8.3616 19.6972 12.1212 19.6972C15.8808 19.6972 18.9394 16.6386 18.9394 12.879C18.9394 9.11936 15.8808 6.06079 12.1212 6.06079ZM12.1212 18.2353C9.16786 18.2353 6.76488 15.8325 6.76488 12.879C6.76488 9.92561 9.16786 7.52263 12.1212 7.52263C15.0748 7.52263 17.4776 9.92561 17.4776 12.879C17.4776 15.8325 15.0748 18.2353 12.1212 18.2353Z" fill="#212321"/>
<path d="M19.3182 3.03003C18.2738 3.03003 17.4243 4.0496 17.4243 5.30265C17.4243 6.55592 18.2738 7.57548 19.3182 7.57548C20.3626 7.57548 21.2122 6.55592 21.2122 5.30265C21.2122 4.04938 20.3626 3.03003 19.3182 3.03003ZM19.3182 5.92628C19.0317 5.92628 18.7985 5.64644 18.7985 5.30265C18.7985 4.95864 19.0317 4.67902 19.3182 4.67902C19.6048 4.67902 19.838 4.95864 19.838 5.30265C19.838 5.64644 19.6048 5.92628 19.3182 5.92628Z" fill="#212321"/>
</svg>
