<svg width="23" height="15" viewBox="0 0 23 15" fill="none" xmlns="http://www.w3.org/2000/svg">
<path d="M20.2295 0H1.94931C0.876668 0 0 0.839542 0 1.875V13.125C0 14.1608 0.877231 15 1.94931 15H20.2295C21.3021 15 22.1788 14.1605 22.1788 13.125V1.875C22.1788 0.839292 21.3017 0 20.2295 0ZM19.9301 1.25C19.2999 1.85821 11.897 9.00208 11.5929 9.29558C11.3389 9.54067 10.84 9.54083 10.5859 9.29558L2.24863 1.25H19.9301ZM1.29954 12.8952V2.10479L6.89037 7.5L1.29954 12.8952ZM2.24863 13.75L7.8078 8.38533L9.66548 10.178C10.4268 10.9127 11.7523 10.9124 12.5133 10.178L14.371 8.38538L19.9301 13.75H2.24863ZM20.8792 12.8952L15.2884 7.5L20.8792 2.10479V12.8952Z" fill="#212321"/>
</svg>
