<svg width="301" height="86" viewBox="0 0 301 86" fill="none" xmlns="http://www.w3.org/2000/svg">
<g clip-path="url(#clip0_424_9)">
<path d="M112.856 4.8117C115.225 3.95254 118.661 6.92408 120.526 10.3284L112.584 10.3155C111.943 10.0054 111.069 8.57134 111.147 7.05973C111.205 5.94218 111.762 5.20575 112.856 4.8117ZM132.726 4.85046C133.82 5.25097 134.377 5.99386 134.429 7.11141C134.5 8.62302 133.62 10.0506 132.979 10.3607L125.03 10.3478C126.914 6.94991 130.364 3.9913 132.726 4.85692V4.85046ZM107.529 14.9601L142.668 15.0312V10.3736L138.526 10.3672C138.934 9.27546 139.134 8.08685 139.082 6.89178C138.94 3.87502 137.212 1.53656 134.332 0.477143C130.196 -1.04092 125.827 1.48488 122.778 5.30911C119.755 1.4655 115.393 -1.07322 111.25 0.431924C108.37 1.47842 106.629 3.81043 106.48 6.82072C106.422 8.01579 106.616 9.2044 107.017 10.2961H102.868L102.804 44.2362L133.076 44.2556V39.598L107.483 39.5851L107.535 14.9472L107.529 14.9601Z" fill="white"/>
<path d="M29.3272 39.7147C25.9032 43.048 21.9226 44.7082 17.3724 44.7082C12.505 44.7082 8.39491 43.0028 5.03565 39.6049C1.67639 36.207 0 32.1179 0 27.3635C0 22.609 1.67639 18.5781 5.03565 15.1479C8.39491 11.7177 12.505 10.0059 17.3724 10.0059C21.9032 10.0059 26.0521 11.75 29.8191 15.2448L26.887 17.8804C23.8126 15.1285 20.641 13.7526 17.3659 13.7526C13.7995 13.7526 10.7186 15.0704 8.12306 17.706C5.52757 20.3352 4.22658 23.5522 4.22658 27.3635C4.22658 31.1748 5.52757 34.4306 8.12306 37.0468C10.7186 39.6695 13.7995 40.9808 17.3659 40.9808C20.4209 40.9808 23.01 40.1217 25.1394 38.3904V28.0611H29.3207V39.7083L29.3272 39.7147Z" fill="#E63323"/>
<path d="M39.7869 10.4142V44.3349H35.5732V10.4142H39.7869ZM62.6415 10.4142V14.1157H50.6155V25.5238H62.6415V29.2253H50.6155V44.3349H46.4083V10.4142H62.6415ZM77.962 14.1157V44.3349H73.7808V14.1157H65.7807V10.4142H85.9427V14.1157H77.962ZM164.72 26.4863C162.312 25.6917 160.384 24.5483 158.934 23.069C157.471 21.5962 156.74 19.8133 156.74 17.7203C156.74 15.6273 157.497 13.8831 159.011 12.3392C160.52 10.7953 162.403 10.0137 164.649 10.0137C166.895 10.0137 168.772 10.8082 170.351 12.3974C171.18 13.2178 171.821 14.3612 172.28 15.8405L168.52 17.3262C168.054 16.0472 167.633 15.2268 167.258 14.8456C166.5 14.0575 165.633 13.6635 164.656 13.6635C163.678 13.6635 162.837 14.0511 162.092 14.8133C161.335 15.5691 160.96 16.5446 160.96 17.7203C160.96 18.896 161.348 19.8779 162.125 20.6918C162.934 21.4799 164.028 22.2034 165.426 22.8623C168.092 23.7409 170.326 25.091 172.125 26.9191C174.19 28.9927 175.212 31.441 175.212 34.2704C175.212 37.0998 174.196 39.5481 172.157 41.6153C170.118 43.676 167.613 44.7095 164.656 44.7095C161.698 44.7095 159.16 43.6501 157.096 41.5248C155.484 39.9099 154.494 37.8104 154.118 35.2329L158.17 33.7536C158.416 36.2148 159.109 38.0171 160.241 39.1411C161.478 40.4073 162.947 41.0339 164.656 41.0339C166.364 41.0339 167.879 40.3814 169.154 39.0895C170.429 37.791 171.076 36.1825 171.076 34.2704C171.076 32.3583 170.448 30.7563 169.193 29.4837C167.918 28.2111 166.429 27.2163 164.727 26.4928L164.72 26.4863ZM198.481 10.4142V14.1157H184.475V25.5238H198.481V29.2253H184.475V40.6334H198.481V44.3349H180.267V10.4142H198.481ZM209.077 14.1415V29.5095H213.219C215.174 29.5095 216.876 28.7795 218.332 27.3067C219.795 25.8403 220.527 24.0057 220.527 21.8029C220.527 19.6001 219.795 17.7978 218.332 16.3379C216.883 14.8715 215.174 14.1415 213.219 14.1415H209.077ZM213.012 33.2304H209.077V44.3349H204.87V10.4142H214.449C217.245 10.7953 219.575 11.9452 221.452 13.8573C223.634 16.0666 224.734 18.7151 224.734 21.7964C224.734 24.8778 223.614 27.578 221.362 29.8583C219.879 31.3893 218.559 32.2872 217.407 32.5715L224.922 44.3349H220.054L213.012 33.2304ZM248.423 18.9024L255.194 36.6024L262.126 10.4142H266.378L257.401 44.3349H253.724L247.025 26.4669L240.307 44.3349H236.63L227.653 10.4142H231.931L238.883 36.6024L245.608 18.9024H248.417H248.423ZM274.611 10.4142V44.3349H270.398V10.4142H274.611ZM290.508 26.4863C288.1 25.6917 286.171 24.5483 284.722 23.069C283.259 21.5962 282.527 19.8133 282.527 17.7203C282.527 15.6273 283.285 13.8831 284.799 12.3392C286.307 10.7953 288.191 10.0137 290.437 10.0137C292.683 10.0137 294.56 10.8082 296.139 12.3974C296.968 13.2178 297.608 14.3612 298.068 15.8405L294.307 17.3262C293.841 16.0472 293.421 15.2268 293.045 14.8456C292.288 14.0575 291.421 13.6635 290.443 13.6635C289.466 13.6635 288.624 14.0511 287.88 14.8133C287.123 15.5691 286.747 16.5446 286.747 17.7203C286.747 18.896 287.136 19.8779 287.913 20.6918C288.722 21.4799 289.815 22.2034 291.214 22.8623C293.88 23.7409 296.113 25.091 297.913 26.9191C299.977 28.9927 301 31.441 301 34.2704C301 37.0998 299.984 39.5481 297.945 41.6153C295.906 43.676 293.401 44.7095 290.443 44.7095C287.485 44.7095 284.948 43.6501 282.883 41.5248C281.272 39.9099 280.281 37.8104 279.906 35.2329L283.951 33.7536C284.197 36.2148 284.89 38.0171 286.023 39.1411C287.259 40.4073 288.728 41.0339 290.437 41.0339C292.146 41.0339 293.66 40.3814 294.935 39.0895C296.21 37.791 296.858 36.1825 296.858 34.2704C296.858 32.3583 296.23 30.7563 294.974 29.4837C293.699 28.2111 292.21 27.2163 290.508 26.4928V26.4863Z" fill="white"/>
<path fill-rule="evenodd" clip-rule="evenodd" d="M137.956 39.6641H142.61V44.3281H137.956V39.6641Z" fill="#E63323"/>
<path d="M138.015 10.375H142.681L142.636 35.0839H137.969L138.015 10.375Z" fill="white"/>
<path d="M39.7869 2.29297V6.47249H35.5732V2.29297H39.7869Z" fill="#E63323"/>
<path d="M274.579 2.29297V6.47249H270.365V2.29297H274.579Z" fill="#E63323"/>
<path fill-rule="evenodd" clip-rule="evenodd" d="M0.595703 60.1151H300.062V58.6875H0.595703V60.1151Z" fill="white"/>
<path d="M4.18118 79.1775C3.2815 78.8803 2.56304 78.454 2.01935 77.8984C1.47565 77.3494 1.19733 76.6775 1.19733 75.8959C1.19733 75.1142 1.48213 74.4618 2.04524 73.8804C2.60835 73.3055 3.31386 73.0083 4.15529 73.0083C4.99673 73.0083 5.69576 73.3055 6.28477 73.8998C6.59545 74.2099 6.83493 74.6362 7.00322 75.1853L5.59867 75.7409C5.42392 75.2628 5.26857 74.9528 5.12618 74.8171C4.84138 74.5199 4.51776 74.3778 4.15529 74.3778C3.79283 74.3778 3.47567 74.5199 3.19735 74.8106C2.91256 75.0949 2.77017 75.4566 2.77017 75.8959C2.77017 76.3352 2.91256 76.7034 3.20383 77.007C3.50804 77.3041 3.91581 77.5755 4.44009 77.8209C5.43686 78.1504 6.27182 78.6542 6.94497 79.339C7.7152 80.1142 8.09708 81.0315 8.09708 82.0909C8.09708 83.1503 7.7152 84.0676 6.95144 84.8363C6.18768 85.605 5.25563 85.9926 4.14882 85.9926C3.04201 85.9926 2.09702 85.5986 1.32031 84.804C0.718364 84.1968 0.349428 83.4152 0.207031 82.4526L1.72161 81.8971C1.81223 82.8209 2.07113 83.4927 2.49832 83.9126C2.96434 84.3841 3.50804 84.6167 4.14882 84.6167C4.7896 84.6167 5.35272 84.3712 5.83169 83.8867C6.31066 83.4022 6.55014 82.8015 6.55014 82.0844C6.55014 81.3674 6.31713 80.7666 5.84463 80.2951C5.36566 79.817 4.80902 79.4488 4.17471 79.1775H4.18118ZM17.0292 73.1634V74.5458H11.7929V78.8157H17.0292V80.1982H11.7929V84.4681H17.0292V85.8505H10.2201V73.1634H17.0292ZM21.2105 74.5587V80.308H22.7574C23.4888 80.308 24.1231 80.0367 24.6668 79.4811C25.2105 78.932 25.4889 78.2473 25.4889 77.4204C25.4889 76.5936 25.217 75.9217 24.6668 75.3791C24.1231 74.83 23.4824 74.5587 22.7574 74.5587H21.2105ZM22.6798 81.7033H21.2105V85.857H19.6377V73.1698H23.2235C24.2655 73.3119 25.1393 73.7448 25.8448 74.4553C26.6604 75.2822 27.0682 76.2706 27.0682 77.4269C27.0682 78.5832 26.6474 79.5909 25.806 80.4436C25.2494 81.0121 24.7575 81.3545 24.3303 81.4578L27.1394 85.857H25.3206L22.6862 81.7033H22.6798ZM36.1427 76.3416L38.6735 82.963L41.2625 73.1698H42.8547L39.4955 85.857H38.1233L35.6184 79.171L33.1071 85.857H31.7349L28.3756 73.1698H29.9743L32.5763 82.963L35.0877 76.3416H36.1362H36.1427ZM46.1557 73.1698V85.857H44.5764V73.1698H46.1557ZM52.3241 79.184C51.4244 78.8868 50.706 78.4605 50.1623 77.9049C49.6186 77.3558 49.3402 76.684 49.3402 75.9024C49.3402 75.1207 49.625 74.4683 50.1882 73.8869C50.7513 73.3119 51.4568 73.0148 52.2982 73.0148C53.1396 73.0148 53.8387 73.312 54.4277 73.9063C54.7384 74.2163 54.9778 74.6427 55.1461 75.1918L53.7416 75.7473C53.5668 75.2693 53.4115 74.9592 53.2691 74.8236C52.9843 74.5264 52.6607 74.3843 52.2982 74.3843C51.9357 74.3843 51.6186 74.5264 51.3403 74.8171C51.0555 75.1013 50.9131 75.4631 50.9131 75.9024C50.9131 76.3416 51.0555 76.7098 51.3467 77.0134C51.651 77.3106 52.0587 77.5819 52.583 77.8274C53.5798 78.1568 54.4147 78.6607 55.0879 79.3455C55.8581 80.1206 56.24 81.0379 56.24 82.0973C56.24 83.1568 55.8581 84.0741 55.0944 84.8428C54.3306 85.6115 53.3985 85.9991 52.2917 85.9991C51.1849 85.9991 50.2399 85.605 49.4632 84.8105C48.8613 84.2033 48.4923 83.4216 48.3499 82.4591L49.8645 81.9036C49.9551 82.8273 50.214 83.4991 50.6412 83.919C51.1073 84.3906 51.651 84.6231 52.2917 84.6231C52.9325 84.6231 53.4956 84.3777 53.9746 83.8932C54.4536 83.4087 54.6931 82.8079 54.6931 82.0909C54.6931 81.3738 54.46 80.7731 53.9875 80.3015C53.5086 79.8235 52.9519 79.4553 52.3176 79.184H52.3241ZM70.4732 73.1698H72.0525V82.149C71.9165 83.1438 71.4958 83.9965 70.7903 84.7136C69.9683 85.5469 68.9586 85.9668 67.7547 85.9668C66.5508 85.9668 65.5152 85.5469 64.6867 84.7007C63.8582 83.8544 63.444 82.8532 63.444 81.6968V73.1698H65.0168V81.6968C65.0168 82.5108 65.2886 83.1955 65.8388 83.7446C66.3825 84.3002 67.0233 84.5779 67.7612 84.5779C68.499 84.5779 69.1269 84.3002 69.6706 83.7446C70.2143 83.1891 70.4861 82.5108 70.4861 81.6968V73.1698H70.4732ZM76.2337 81.7033V85.857H74.6609V73.1698H78.2467C79.2888 73.3119 80.1626 73.7448 80.8681 74.4553C81.6836 75.2822 82.0914 76.2706 82.0914 77.4269C82.0914 78.5832 81.6772 79.5909 80.8487 80.4307C80.0202 81.2769 78.9975 81.7033 77.7872 81.7033H76.2402H76.2337ZM76.2337 74.5587V80.308H77.7807C78.5121 80.308 79.1464 80.0367 79.6901 79.4811C80.2338 78.932 80.5121 78.2473 80.5121 77.4204C80.5121 76.5936 80.2403 75.9217 79.6901 75.3791C79.1464 74.83 78.5056 74.5587 77.7807 74.5587H76.2337ZM90.3698 72.989C92.1886 72.989 93.7291 73.6285 94.9912 74.9075C96.2534 76.1866 96.8812 77.7176 96.8812 79.4876C96.8812 81.2576 96.2534 82.795 94.9912 84.0741C93.7291 85.3531 92.1886 85.9926 90.3698 85.9926C88.551 85.9926 87.017 85.3531 85.7549 84.0741C84.4927 82.795 83.8649 81.264 83.8649 79.4876C83.8649 77.7111 84.4927 76.193 85.7549 74.9075C87.017 73.6285 88.551 72.989 90.3698 72.989ZM90.3698 74.3778C89.0365 74.3778 87.8843 74.8752 86.907 75.8636C85.9361 76.852 85.4442 78.0599 85.4442 79.4811C85.4442 80.9023 85.9296 82.1296 86.907 83.1115C87.8779 84.0999 89.0365 84.5908 90.3698 84.5908C91.7031 84.5908 92.8682 84.0999 93.8391 83.1115C94.81 82.1232 95.3019 80.9087 95.3019 79.4811C95.3019 78.0535 94.8165 76.852 93.8391 75.8636C92.8682 74.8752 91.7096 74.3778 90.3698 74.3778ZM110.286 73.1634V85.8505H108.713V75.5341L104.596 81.0121L100.473 75.5341V85.8505H98.8942V73.1634H100.577L104.596 78.4992L108.609 73.1634H110.286ZM114.396 73.1634V85.8505H112.817V73.1634H114.396ZM118.623 73.1634L125.755 83.3053V73.1634H127.328V85.8505H125.587L118.642 75.9669V85.8505H117.063V73.1634H118.623ZM136.539 73.1634L133.231 78.0147L138.642 85.8505H136.804L132.299 79.3196L131.477 80.5082V85.8505H129.904V73.1634H131.477V77.8532L134.707 73.1634H136.539ZM146.228 72.989C148.047 72.989 149.587 73.6285 150.849 74.9075C152.112 76.1866 152.739 77.7176 152.739 79.4876C152.739 81.2576 152.112 82.795 150.849 84.0741C149.587 85.3531 148.047 85.9926 146.228 85.9926C144.409 85.9926 142.875 85.3531 141.613 84.0741C140.351 82.795 139.723 81.264 139.723 79.4876C139.723 77.7111 140.351 76.193 141.613 74.9075C142.875 73.6285 144.409 72.989 146.228 72.989ZM146.228 74.3778C144.895 74.3778 143.743 74.8752 142.765 75.8636C141.794 76.852 141.302 78.0599 141.302 79.4811C141.302 80.9023 141.788 82.1296 142.765 83.1115C143.736 84.0999 144.895 84.5908 146.228 84.5908C147.561 84.5908 148.726 84.0999 149.697 83.1115C150.668 82.1232 151.16 80.9087 151.16 79.4811C151.16 78.0535 150.675 76.852 149.697 75.8636C148.726 74.8752 147.568 74.3778 146.228 74.3778ZM149.141 69.998L146.422 72.1104H144.778L146.584 69.998H149.141ZM161.71 76.3416L164.241 82.963L166.83 73.1698H168.422L165.063 85.857H163.691L161.186 79.171L158.675 85.857H157.303L153.943 73.1698H155.542L158.144 82.963L160.655 76.3416H161.704H161.71ZM176.714 74.5587V80.308H178.261C178.992 80.308 179.626 80.0367 180.17 79.4811C180.714 78.932 180.992 78.2473 180.992 77.4204C180.992 76.5936 180.72 75.9217 180.17 75.3791C179.626 74.83 178.986 74.5587 178.261 74.5587H176.714ZM178.183 81.7033H176.714V85.857H175.141V73.1698H178.727C179.769 73.3119 180.643 73.7448 181.348 74.4553C182.164 75.2822 182.571 76.2706 182.571 77.4269C182.571 78.5832 182.151 79.5909 181.309 80.4436C180.753 81.0121 180.261 81.3545 179.834 81.4578L182.643 85.857H180.824L178.19 81.7033H178.183ZM191.665 73.1698V74.5522H186.429V78.8222H191.665V80.2046H186.429V84.4746H191.665V85.857H184.856V73.1698H191.665ZM200.902 73.1698L197.594 78.0212L203.005 85.857H201.167L196.662 79.3261L195.84 80.5147V85.857H194.267V73.1698H195.84V77.8597L199.07 73.1698H200.902ZM204.52 85.857V73.1698H206.093V84.4746H210.591V85.857H204.52ZM218.164 79.2098L216.96 75.8442L215.75 79.2098H218.158H218.164ZM217.653 73.1698L222.184 85.857H220.546L218.662 80.5857H215.258L213.336 85.857H211.691L216.281 73.1698H217.646H217.653ZM235.07 73.1698V85.857H233.498V75.5406L229.381 81.0186L225.258 75.5406V85.857H223.679V73.1698H225.362L229.381 78.5057L233.394 73.1698H235.07ZM243.588 72.9954C245.407 72.9954 246.948 73.6349 248.21 74.914C249.472 76.193 250.1 77.724 250.1 79.494C250.1 81.264 249.472 82.8015 248.21 84.0805C246.948 85.3596 245.407 85.9991 243.588 85.9991C241.769 85.9991 240.235 85.3596 238.973 84.0805C237.711 82.8015 237.083 81.2705 237.083 79.494C237.083 77.7176 237.711 76.1995 238.973 74.914C240.235 73.6349 241.769 72.9954 243.588 72.9954ZM243.588 74.3843C242.255 74.3843 241.103 74.8817 240.125 75.87C239.155 76.8584 238.663 78.0664 238.663 79.4876C238.663 80.9087 239.148 82.1361 240.125 83.118C241.096 84.1064 242.255 84.5973 243.588 84.5973C244.922 84.5973 246.087 84.1064 247.058 83.118C248.028 82.1296 248.52 80.9152 248.52 79.4876C248.52 78.0599 248.035 76.8584 247.058 75.87C246.087 74.8817 244.928 74.3843 243.588 74.3843ZM259.071 76.3416L261.601 82.963L264.19 73.1698H265.783L262.423 85.857H261.051L258.546 79.171L256.035 85.857H254.663L251.304 73.1698H252.902L255.504 82.963L258.016 76.3416H259.064H259.071ZM271.025 80.7214L266.728 73.1634H268.469L271.815 79.0354L275.155 73.1634H276.896L272.598 80.7214V85.8505H271.025V80.7214ZM288.534 83.0599L289.628 84.0482C288.217 85.3467 286.67 85.9991 284.974 85.9991C283.155 85.9991 281.615 85.3596 280.359 84.0934C279.103 82.8208 278.475 81.2899 278.475 79.5134C278.475 77.7369 279.103 76.2253 280.359 74.9463C281.615 73.6672 283.155 73.0213 284.974 73.0213C286.67 73.0213 288.217 73.6737 289.628 74.9786L288.534 75.9669C287.382 74.9398 286.197 74.423 284.974 74.423C283.641 74.423 282.488 74.914 281.517 75.9024C280.547 76.8842 280.061 78.0922 280.061 79.5134C280.061 80.9346 280.547 82.1555 281.517 83.1374C282.488 84.1193 283.641 84.6102 284.974 84.6102C286.197 84.6102 287.382 84.0934 288.534 83.0663V83.0599ZM293.233 80.2046V85.857H291.654V73.1698H293.233V78.8222H298.372V73.1698H299.945V85.857H298.372V80.2046H293.233Z" fill="white"/>
<path d="M46.1623 69.6504V71.2137H44.583V69.6504H46.1623Z" fill="#E63323"/>
<path d="M114.383 69.6504V71.2137H112.804V69.6504H114.383Z" fill="#E63323"/>
</g>
<defs>
<clipPath id="clip0_424_9">
<rect width="301" height="86" fill="white"/>
</clipPath>
</defs>
</svg>
