<svg width="25" height="25" viewBox="0 0 25 25" fill="none" xmlns="http://www.w3.org/2000/svg">
<path d="M12.3523 7.38623L11.625 7.47714C11.168 7.56308 10.7246 7.71025 10.3069 7.91464C9.3535 8.41621 8.60428 9.23374 8.18753 10.2271C8.13138 10.4134 8.08773 10.6032 8.05687 10.7953C7.73841 11.9266 8.14949 13.1373 9.09095 13.8408C9.23299 13.926 9.56253 14.0851 9.65911 13.8748C9.7036 13.7459 9.73411 13.6126 9.75003 13.4771C9.80482 13.3633 9.83573 13.2396 9.84095 13.1135C9.80687 12.926 9.60799 12.8123 9.52279 12.6589C9.3827 12.3497 9.29437 12.0195 9.26141 11.6816V11.5168C9.3036 10.1219 10.2819 8.9312 11.6421 8.61914C12.0676 8.50415 12.5111 8.47133 12.9489 8.52255L13.5796 8.63051C14.3004 8.8187 14.8964 9.32475 15.1989 10.0055C15.3972 10.5889 15.4365 11.2145 15.3125 11.818C15.25 12.0794 15.2614 12.3066 15.1819 12.5453C14.8921 13.426 14.4659 14.2498 13.5057 14.4658C12.9835 14.6022 12.4411 14.3298 12.2387 13.8294C12.1667 13.6773 12.141 13.5074 12.1648 13.3408C12.3296 12.6248 12.5739 11.9885 12.733 11.2726C12.929 10.7429 12.6585 10.1545 12.1287 9.95849C12.1014 9.94838 12.0736 9.9394 12.0455 9.93169C11.3864 9.7726 10.8807 10.3862 10.7046 10.784C10.5399 11.2051 10.5005 11.6648 10.5909 12.1079C10.6868 12.3001 10.7557 12.5047 10.7955 12.7158C10.6705 13.284 10.5228 13.8522 10.3694 14.4204C10.2159 14.9885 10.1194 15.5567 9.96029 16.1249C9.88641 16.3749 9.89212 16.6419 9.82962 16.9033V17.284C9.79027 17.5852 9.80374 17.8909 9.86942 18.1874C9.9035 18.3408 9.86942 18.5283 9.92625 18.6419C9.92376 18.6923 9.93773 18.7422 9.96605 18.784C10.199 18.784 10.5342 18.1646 10.6365 17.9885C10.8578 17.6365 11.048 17.2658 11.2047 16.8806C11.3581 16.5226 11.3808 16.1249 11.5001 15.7442C11.6204 15.4306 11.7061 15.1048 11.7558 14.7726C11.8295 14.9339 11.953 15.0673 12.1081 15.1533C12.6535 15.539 13.3362 15.6772 13.9888 15.5339C14.7822 15.3799 15.495 14.9489 16.0001 14.318C16.3435 13.8508 16.6083 13.3307 16.7842 12.7782C16.8808 12.4941 16.8978 12.1759 16.9717 11.8748C17.0941 11.1378 16.9973 10.3811 16.6933 9.69868C16.0398 8.21577 14.6194 7.35214 12.3523 7.38623Z" fill="#212321"/>
<path d="M12.5 0C5.59644 0 0 5.59644 0 12.5C0 19.4036 5.59644 25 12.5 25C19.4036 25 25 19.4036 25 12.5C25 5.59644 19.4036 0 12.5 0ZM12.5 23.8636C6.22402 23.8636 1.13638 18.776 1.13638 12.5C1.13638 6.22402 6.22402 1.13638 12.5 1.13638C18.776 1.13638 23.8636 6.22402 23.8636 12.5C23.8636 18.776 18.776 23.8636 12.5 23.8636Z" fill="#212321"/>
</svg>
