<svg width="25" height="25" viewBox="0 0 25 25" fill="none" xmlns="http://www.w3.org/2000/svg">
<path d="M12 10.1877H12.2329C12.7485 10.1877 13.1673 9.77144 13.1704 9.25586V7.73882C13.1612 7.22993 12.7476 6.82139 12.2386 6.81836H12.0056C11.49 6.81836 11.0712 7.23462 11.0681 7.7502V9.26724C11.0774 9.77612 11.491 10.1847 12 10.1877ZM11.767 7.68203C11.7671 7.4875 11.925 7.32983 12.1195 7.32998C12.3139 7.33013 12.4714 7.48765 12.4715 7.68203V9.3127C12.4714 9.50723 12.3136 9.66489 12.119 9.66475C11.9247 9.6646 11.7671 9.50708 11.767 9.3127V7.68203Z" fill="#212321"/>
<path d="M9.23295 10.1307H10.0568V8.31816L10.9943 5.75H10.2273L9.65907 7.45454L9.09091 5.75H8.24432L9.24432 8.31816L9.23295 10.1307Z" fill="#212321"/>
<path d="M14.3468 10.1877C14.6784 10.1558 14.9892 10.0114 15.2274 9.77861V10.1309H15.9093V6.81841H15.2274V9.38657C15.2274 9.38657 14.9945 9.65928 14.7729 9.65928C14.5513 9.65928 14.5399 9.48315 14.5399 9.48315V6.81836H13.8184V9.73315C13.8578 9.99458 14.0824 10.1878 14.3468 10.1877Z" fill="#212321"/>
<path d="M13.8804 13.9941C13.7435 14.0008 13.6157 14.0647 13.5281 14.1703V16.5226C13.618 16.622 13.7464 16.6779 13.8804 16.676C14.2327 16.676 14.2327 16.2839 14.2327 16.2839V14.3862C14.2327 14.3862 14.1702 13.9941 13.8804 13.9941Z" fill="#212321"/>
<path d="M12.5 0C5.59644 0 0 5.59644 0 12.5C0 19.4036 5.59644 25 12.5 25C19.4036 25 25 19.4036 25 12.5C25 5.59644 19.4036 0 12.5 0ZM12.5 23.8636C6.22402 23.8636 1.13638 18.776 1.13638 12.5C1.13638 6.22402 6.22402 1.13638 12.5 1.13638C18.776 1.13638 23.8636 6.22402 23.8636 12.5C23.8636 18.776 18.776 23.8636 12.5 23.8636Z" fill="#212321"/>
<path d="M16.5797 13.9941C16.2274 13.9941 16.2274 14.3862 16.2274 14.3862V14.8918H16.932V14.3862C16.932 14.3862 16.932 13.9941 16.5797 13.9941Z" fill="#212321"/>
<path d="M16.842 10.9143C16.8322 10.9144 16.8223 10.9146 16.8124 10.915H16.8011C16.8011 10.915 14.659 10.7957 12.4999 10.7957C10.3409 10.7957 8.18745 10.9093 8.18745 10.9093C7.24658 10.8779 6.4584 11.6152 6.42705 12.5561C6.42642 12.5753 6.42607 12.5946 6.42612 12.6138C6.31763 13.3286 6.25874 14.05 6.25 14.7729C6.25801 15.5034 6.31685 16.2324 6.42612 16.9547C6.42559 17.8961 7.18833 18.6597 8.12974 18.6602C8.14897 18.6602 8.16826 18.6599 8.1875 18.6593C8.1875 18.6593 10.3068 18.7729 12.5 18.7729C14.6932 18.7729 16.8125 18.6593 16.8125 18.6593C17.7534 18.6907 18.5416 17.9534 18.5729 17.0125C18.5735 16.9933 18.5739 16.974 18.5738 16.9547C18.6826 16.2324 18.7414 15.5034 18.7499 14.7729C18.7428 14.0424 18.6839 13.3133 18.5738 12.5911C18.5586 11.6499 17.7833 10.8991 16.842 10.9143ZM9.94883 12.8184H9.09087V17.2388H8.24429V12.8184H7.38633V12.0911H9.96587L9.94883 12.8184ZM12.1818 17.2388H11.4716V16.9036C11.2299 17.1287 10.9199 17.2667 10.5909 17.2957C10.3266 17.3012 10.0998 17.1085 10.0625 16.8468V13.3752H10.7955V16.6195C10.7955 16.6195 10.7955 16.79 11.0284 16.79C11.2614 16.79 11.5 16.5116 11.5 16.5116V13.3752H12.2045L12.1818 17.2388ZM14.2897 17.2957C13.9909 17.2983 13.7084 17.1592 13.5284 16.9207V17.2388H12.7613V12.0911H13.5227V13.7616C13.7176 13.5408 13.9905 13.4043 14.2841 13.3809C14.7557 13.3809 14.9318 13.7729 14.9318 14.2786L14.9375 16.3979C14.9375 16.3979 14.9374 17.2957 14.2897 17.2957ZM17.6931 15.4661H16.2272V16.307C16.2272 16.307 16.2272 16.6991 16.5795 16.6991C16.9318 16.6991 16.9318 16.307 16.9318 16.307V15.9093H17.6932V16.5229C17.5913 17.0148 17.1367 17.3521 16.6363 17.307C16.1181 17.3537 15.6403 17.024 15.4999 16.5229V14.3297C15.5158 13.7839 15.971 13.3543 16.5168 13.3701C16.5568 13.3713 16.5967 13.3749 16.6363 13.3809C17.1427 13.3084 17.6119 13.6601 17.6844 14.1664C17.6921 14.2205 17.6951 14.2751 17.6932 14.3297V15.4661H17.6931Z" fill="#212321"/>
</svg>
