<svg width="34" height="34" viewBox="0 0 34 34" fill="none" xmlns="http://www.w3.org/2000/svg">
<path d="M5.02344 7.50073H32.0009L28.8364 23.4216H7.452L5.02344 7.50073Z" stroke="white" stroke-width="2" stroke-miterlimit="10"/>
<path d="M5.02151 7.50071L4.02988 1H0" stroke="white" stroke-width="2" stroke-miterlimit="10"/>
<path d="M24.7638 28.2902H6.07622C4.90537 28.2902 3.90895 27.4167 3.72823 26.2318C3.50304 24.7555 4.6175 23.4218 6.07622 23.4218H7.44834" stroke="white" stroke-width="2" stroke-miterlimit="10"/>
<path d="M24.766 33C26.0359 33 27.0653 31.9456 27.0653 30.6449C27.0653 29.3442 26.0359 28.2898 24.766 28.2898C23.4962 28.2898 22.4668 29.3442 22.4668 30.6449C22.4668 31.9456 23.4962 33 24.766 33Z" stroke="white" stroke-width="2" stroke-miterlimit="10"/>
<path d="M12.2563 33C13.5261 33 14.5555 31.9456 14.5555 30.6449C14.5555 29.3442 13.5261 28.2898 12.2563 28.2898C10.9864 28.2898 9.95703 29.3442 9.95703 30.6449C9.95703 31.9456 10.9864 33 12.2563 33Z" stroke="white" stroke-width="2" stroke-miterlimit="10"/>
<path d="M16.4902 11.2782V19.6439" stroke="white" stroke-width="2" stroke-miterlimit="10"/>
<path d="M20.3789 11.2782V19.6439" stroke="white" stroke-width="2" stroke-miterlimit="10"/>
<path d="M24.2676 11.2782V19.6439" stroke="white" stroke-width="2" stroke-miterlimit="10"/>
<path d="M12.5996 11.2782V19.6439" stroke="white" stroke-width="2" stroke-miterlimit="10"/>
</svg>
