<svg width="184" height="67" viewBox="0 0 184 67" fill="none" xmlns="http://www.w3.org/2000/svg">
<g clip-path="url(#clip0_257_5343)">
<path d="M183.259 10.0934C182.766 8.11529 181.823 6.43056 180.43 5.03922C179.039 3.64787 176.958 2.58377 174.19 1.84691C171.421 1.11005 167.463 0.742188 162.315 0.742188H156.559C149.223 0.742188 143.277 6.71041 143.277 14.0745V65.605C143.277 66.3757 143.9 66.9997 144.667 66.9997H151.441C157.372 66.9997 162.18 62.1734 162.18 56.2199V41.7106C162.18 40.9411 162.801 40.317 163.569 40.317H167.254C171.384 40.317 174.729 39.798 177.288 38.761C179.847 37.7251 181.605 36.2378 182.564 34.3003C183.521 32.3639 184 29.2811 184 25.0518V19.281C184 15.1341 183.753 12.0715 183.259 10.0934ZM168.197 22.9642C168.197 25.4196 167.859 27.0367 167.186 27.8141C166.513 28.5916 165.307 28.9798 163.571 28.9798H163.56C162.801 28.9798 162.18 28.3558 162.18 27.5941V13.5193C162.18 12.7102 162.867 12.0693 163.67 12.1268C165.301 12.2442 166.421 12.568 167.029 13.1007C167.807 13.7833 168.197 15.2571 168.197 17.5207V22.9642Z" fill="url(#paint0_linear_257_5343)"/>
<path d="M44.7636 40.2325C44.7636 27.4385 44.7726 14.6444 44.7322 1.85038C44.7299 1.27827 45.3234 0.296545 44.087 0.117126C39.483 0.00992576 35.0578 0.767096 31.0137 3.08374C25.8837 6.02215 25.4611 10.7615 29.9593 14.5993C31.1227 15.5923 32.3602 16.5052 33.7675 17.1506C34.1035 17.3052 34.4587 17.5411 34.3924 17.962C34.3261 18.3863 33.8945 18.4291 33.5483 18.5533C32.2163 19.0306 31.0328 18.4427 29.8188 18.0613C27.2876 16.3348 26.1164 16.8505 25.7702 19.8713C25.687 20.598 25.6656 21.336 25.6735 22.0672C25.7005 24.4572 25.5768 26.8291 24.962 29.1525C23.7818 30.2144 23.2175 29.6953 23.1276 28.3581C23.0501 27.1981 23.1861 26.0223 23.104 24.8634C23.0366 23.911 23.6042 22.3357 22.306 22.2398C21.7204 22.1969 21.427 22.7284 21.2932 23.2238C21.1033 23.9257 20.9459 24.6309 20.6953 25.3272C20.1512 26.8359 19.4746 28.2915 18.7991 29.745C18.7046 29.9469 18.6069 30.1546 18.4439 30.3058C17.5896 31.0945 16.7871 29.6626 16.9546 28.9156C17.0861 28.3254 17.3806 27.7747 17.539 27.1879C17.9673 25.5969 18.8373 24.0961 18.6395 21.9667C17.5964 23.2069 16.9186 24.2428 16.4364 25.4163C15.8485 26.248 15.2753 27.0898 14.665 27.9034C14.2985 28.392 13.4926 28.401 13.2925 27.7454C13.2071 27.4633 13.2622 27.1575 13.3443 26.8742C13.8512 25.1026 14.9145 23.5623 15.6676 21.8765C15.989 21.1554 17.022 20.1635 16.2397 19.6524C15.3933 19.0983 14.7852 20.3824 14.158 20.994C13.7028 21.5334 11.5481 23.4879 10.7815 22.9214C10.605 22.7916 10.5713 22.5422 10.5826 22.3233C10.6197 21.5729 11.0828 20.7706 11.6335 20.2719C13.904 18.2204 15.0842 15.5156 16.0363 12.7295C17.7481 7.71817 16.0509 4.05983 11.2502 1.9226C8.33905 0.624915 5.23342 0.371021 2.12554 0.0324942C0.386697 -0.158209 -0.00445788 0.482734 3.81456e-05 2.1607C0.0596105 22.3448 0.0427504 42.5277 0.0461224 62.7118C0.0461224 63.1428 0.0674786 63.5739 0.0427504 64.0038C-0.00108586 64.7723 0.32038 65.1142 1.10606 65.1277C5.53353 65.2045 9.94076 65.1232 14.1254 63.4012C18.2382 61.7086 19.6601 58.4982 18.146 54.3152C16.9074 50.8927 14.6751 48.1213 12.3001 45.4469C11.6908 44.7608 11.0861 44.0669 10.5387 43.3311C10.2341 42.9227 10.1251 42.3878 10.55 41.9793C11.067 41.4817 11.4525 41.977 11.7987 42.2772C12.7688 43.119 13.7118 43.9913 14.6605 44.8568C15.0089 45.175 15.2674 45.6704 15.8699 45.1897C16.0868 45.0159 16.2397 44.8049 16.1385 44.5126C16.0778 44.3377 15.9598 44.1887 15.8811 44.0195C15.8204 43.8875 15.7856 43.7453 15.7463 43.6053C15.5046 42.7353 15.0561 42.0233 14.6312 41.2424C14.1468 40.351 13.8062 39.3817 13.3802 38.462C13.2633 38.2104 13.1442 37.935 13.2071 37.6642C13.2667 37.4081 13.4791 37.2162 13.7028 37.0808C13.8489 36.9928 14.0119 36.9195 14.1828 36.9251C14.4435 36.9341 14.665 37.1248 14.8156 37.3392C14.9662 37.5536 15.0685 37.7996 15.2303 38.005C15.8834 38.8389 16.2824 39.7349 16.8253 40.6557C17.4806 41.7683 18.2618 42.8019 19.1351 43.7509C18.98 42.9915 18.9193 42.759 18.8856 42.5221C18.5315 40.0847 17.2996 37.8617 16.9017 35.4141C16.8871 35.3227 16.8736 35.2257 16.9085 35.1399C16.9444 35.053 17.0231 34.9932 17.1029 34.9425C17.3907 34.7597 17.7414 34.6479 18.0741 34.7213C18.4057 34.7935 18.6788 35.0418 18.8586 35.3318C19.3577 36.1386 19.6252 37.214 19.9703 38.0987C20.3513 39.0759 20.7256 40.0553 21.0819 41.0416C21.3528 41.792 21.5102 42.8549 22.424 42.7263C23.4862 42.5762 23.0366 41.4331 23.0748 40.7132C23.1433 39.4302 23.0737 38.1393 23.0838 36.8529C23.0894 36.2085 23.231 35.5304 23.974 35.4469C24.7439 35.36 24.9755 36.054 25.116 36.6509C25.524 38.3864 25.6757 40.1524 25.6735 41.9353C25.6712 43.4654 25.6016 45.008 26.0298 46.5031C26.4839 48.0874 27.2561 48.4587 28.7724 47.8031C29.4996 47.4882 30.1583 46.9094 30.9069 46.7717C32.1613 46.5415 33.6742 45.7132 34.4666 47.618C32.2444 48.8096 30.0931 50.0915 28.4858 52.1114C26.113 55.0938 26.3232 58.2466 29.1759 60.7653C31.2407 62.5877 33.7045 63.6427 36.4033 64.1449C38.5288 64.7926 40.7183 64.9573 42.9225 65.1063C44.3522 65.2033 44.8108 64.7903 44.7974 63.3008C44.7265 55.6129 44.7648 47.9238 44.7648 40.2348L44.7636 40.2325Z" fill="url(#paint1_linear_257_5343)"/>
<path d="M123.834 52.5713C122.774 52.5713 121.914 51.7092 121.914 50.644V9.86507C121.914 9.75787 121.908 9.65067 121.89 9.54573C121.419 6.67164 119.424 4.44865 115.994 2.92528C112.775 1.49557 109.343 1.21572 105.909 0.842217C104.428 0.680853 103.832 1.06339 103.639 2.09251C103.619 2.19745 103.613 2.30578 103.613 2.41298V65.011C103.613 66.0751 104.472 66.9384 105.533 66.9384H128.268C133.796 66.9384 138.279 62.4393 138.279 56.8886V54.4986C138.279 53.4345 137.42 52.5713 136.359 52.5713H123.834Z" fill="url(#paint2_linear_257_5343)"/>
<path d="M51.9599 64.4964C51.8902 64.4964 51.834 64.4399 51.834 64.37V7.20304C51.834 5.3434 52.4657 3.76135 53.7279 2.45916C54.9902 1.15696 56.5245 0.505859 58.3274 0.505859H86.1241C92.0925 0.505859 96.9303 5.36258 96.9303 11.3545C96.9303 11.4245 96.8741 11.4809 96.8044 11.4809H64.587C64.5173 11.4809 64.4611 11.5373 64.4611 11.6073V25.119C64.4611 25.1889 64.5173 25.2454 64.587 25.2454H88.507C88.5767 25.2454 88.6329 25.3018 88.6329 25.3717V29.5232C88.6329 31.3828 88.0012 32.9649 86.7389 34.2671C85.4766 35.5693 83.9424 36.2204 82.1395 36.2204H64.587C64.5173 36.2204 64.4611 36.2768 64.4611 36.3468V52.4629C64.4611 52.5328 64.5173 52.5893 64.587 52.5893H96.8044C96.8741 52.5893 96.9303 52.6457 96.9303 52.7156C96.9303 59.221 91.6778 64.4941 85.1979 64.4941H51.9599V64.4964Z" fill="url(#paint3_linear_257_5343)"/>
</g>
<defs>
<linearGradient id="paint0_linear_257_5343" x1="99.332" y1="-13.5639" x2="174.244" y2="44.9113" gradientUnits="userSpaceOnUse">
<stop stop-color="#F9AE26"/>
<stop offset="0.99" stop-color="#E52A24"/>
</linearGradient>
<linearGradient id="paint1_linear_257_5343" x1="3.36869" y1="17.5761" x2="91.4265" y2="86.3139" gradientUnits="userSpaceOnUse">
<stop stop-color="#F9AE26"/>
<stop offset="0.99" stop-color="#E52A24"/>
</linearGradient>
<linearGradient id="paint2_linear_257_5343" x1="68.4734" y1="1.63775" x2="156.531" y2="70.3744" gradientUnits="userSpaceOnUse">
<stop stop-color="#F9AE26"/>
<stop offset="0.99" stop-color="#E52A24"/>
</linearGradient>
<linearGradient id="paint3_linear_257_5343" x1="51.834" y1="32.5011" x2="96.9314" y2="32.5011" gradientUnits="userSpaceOnUse">
<stop stop-color="#F9AE26"/>
<stop offset="0.99" stop-color="#E52A24"/>
</linearGradient>
<clipPath id="clip0_257_5343">
<rect width="184" height="67" fill="white"/>
</clipPath>
</defs>
</svg>
