<svg width="18" height="18" viewBox="0 0 18 18" fill="none" xmlns="http://www.w3.org/2000/svg">
<path d="M7.06641 18H13.7812C15.3321 18 16.5938 16.7384 16.5938 15.1875V5.66016C16.5938 4.1093 15.3321 2.84766 13.7812 2.84766H7.06641C5.51555 2.84766 4.25391 4.1093 4.25391 5.66016V15.1875C4.25391 16.7384 5.51555 18 7.06641 18ZM13.7812 4.25391C14.5566 4.25391 15.1875 4.8848 15.1875 5.66016V15.1875C15.1875 15.9629 14.5566 16.5938 13.7812 16.5938H7.06641C6.29105 16.5938 5.66016 15.9629 5.66016 15.1875V5.66016C5.66016 4.8848 6.29105 4.25391 7.06641 4.25391H13.7812ZM1.44141 13.4297V2.8125C1.44141 1.26164 2.70305 0 4.25391 0H12.0586C12.447 0 12.7617 0.314758 12.7617 0.703125C12.7617 1.09149 12.447 1.40625 12.0586 1.40625H4.25391C3.47855 1.40625 2.84766 2.03714 2.84766 2.8125V13.4297C2.84766 13.8181 2.5329 14.1328 2.14453 14.1328C1.75616 14.1328 1.44141 13.8181 1.44141 13.4297Z" fill="#000F46"/>
</svg>
