<svg width="19" height="18" viewBox="0 0 19 18" fill="none" xmlns="http://www.w3.org/2000/svg">
<g clip-path="url(#clip0_193_1132)">
<path d="M0.165318 3.99938C0.278118 3.5024 0.555412 3.05866 0.951783 2.74085C1.34816 2.42303 1.84011 2.24997 2.34708 2.25H15.7733C16.2803 2.24997 16.7722 2.42303 17.1686 2.74085C17.565 3.05866 17.8423 3.5024 17.9551 3.99938L9.06019 9.46575L0.165318 3.99938ZM0.109375 5.28413V13.2761L6.60208 9.27338L0.109375 5.28413ZM7.67394 9.93375L0.323076 14.4641C0.504695 14.8492 0.791345 15.1745 1.14966 15.4021C1.50798 15.6298 1.92323 15.7504 2.34708 15.75H15.7733C16.1971 15.7501 16.6122 15.6292 16.9703 15.4014C17.3284 15.1735 17.6148 14.8481 17.7962 14.463L10.4453 9.93263L9.06019 10.7843L7.67394 9.93263V9.93375ZM11.5183 9.2745L18.011 13.2761V5.28413L11.5183 9.27338V9.2745Z" fill="#1C2026"/>
</g>
<defs>
<clipPath id="clip0_193_1132">
<rect width="17.9016" height="18" fill="white" transform="translate(0.109375)"/>
</clipPath>
</defs>
</svg>
