<svg width="23" height="18" viewBox="0 0 23 18" fill="none" xmlns="http://www.w3.org/2000/svg">
<path d="M1.5673 3.9236C1.21274 3.68735 1 3.28984 1 2.86407V2.86301C1 2.1103 1.61025 1.5001 2.36299 1.5001H20.0916C20.8443 1.5001 21.4546 2.1103 21.4546 2.86301V2.86369V2.86407C21.4546 3.28984 21.2419 3.68735 20.8873 3.9236C19.1572 5.07725 13.944 8.55246 11.9838 9.85953C11.5256 10.165 10.929 10.165 10.4709 9.85953C8.5106 8.55246 3.29742 5.07725 1.5673 3.9236Z" stroke="#34224F" stroke-width="1.5" stroke-miterlimit="10" stroke-linecap="round" stroke-linejoin="round"/>
<path d="M1 2.8636V15.1364C1 15.4981 1.14352 15.8448 1.39955 16.1005C1.65523 16.3565 2.00194 16.5 2.36363 16.5H20.091C20.4527 16.5 20.7994 16.3565 21.055 16.1005C21.3111 15.8448 21.4546 15.4981 21.4546 15.1364V2.8636" stroke="#34224F" stroke-width="1.5" stroke-miterlimit="10" stroke-linecap="round" stroke-linejoin="round"/>
</svg>
