<svg width="34" height="34" viewBox="0 0 34 34" fill="none" xmlns="http://www.w3.org/2000/svg">
<path d="M30.2881 33H3.71186C2.2141 33 1 31.7858 1 30.2881V3.71186C1 2.21417 2.2141 1 3.71186 1H30.2881C31.7859 1 33 2.21417 33 3.71186V30.2881C33 31.7858 31.7859 33 30.2881 33Z" stroke="#34224F" stroke-width="2" stroke-miterlimit="10"/>
<path d="M1.20312 26.8305L10.7771 17.2565C11.8361 16.1975 13.5532 16.1975 14.6122 17.2565L19.7794 22.4237L22.2347 19.9684C23.2938 18.9094 25.0108 18.9094 26.0698 19.9684L32.6947 26.5932" stroke="#34224F" stroke-width="2" stroke-miterlimit="10"/>
<path d="M18.8984 9.13561C18.8984 10.6333 20.1125 11.8475 21.6103 11.8475C23.1081 11.8475 24.3222 10.6333 24.3222 9.13561C24.3222 7.63791 23.1081 6.42374 21.6103 6.42374C20.1125 6.42374 18.8984 7.63791 18.8984 9.13561Z" stroke="#34224F" stroke-width="2" stroke-miterlimit="10"/>
</svg>
