<svg width="17" height="12" viewBox="0 0 17 12" fill="none" xmlns="http://www.w3.org/2000/svg">
<path d="M5.43706 10.9387C5.42811 11.0278 5.43581 11.1208 5.46828 11.213C5.54757 11.4353 5.73363 11.6164 5.95403 11.6846C6.15882 11.7493 6.36258 11.7063 6.42439 11.639L6.85166 11.1806C6.97529 11.0484 7.00651 10.8372 6.93387 10.6322C6.75509 10.2896 6.51555 10.166 6.20877 10.1106L5.43706 10.9387Z" fill="black"/>
<path d="M4.86482 8.64617L4.11808 9.44702C3.96636 9.61206 3.92286 9.86576 4.00757 10.1089C4.09748 10.3657 4.31205 10.5746 4.56887 10.6527C4.81196 10.7255 5.05588 10.6689 5.20864 10.5064L5.90002 9.76482C6.05278 9.6002 6.09524 9.34775 6.01054 9.10466C5.92063 8.84659 5.7048 8.63847 5.44923 8.56084C5.24527 8.4957 5.00593 8.4932 4.86482 8.64617Z" fill="black"/>
<path d="M3.38344 7.32826L2.69393 8.06855C2.542 8.23234 2.49954 8.48688 2.58342 8.7308C2.67333 8.98679 2.8879 9.19574 3.14472 9.27379C3.38739 9.34767 3.63381 9.29002 3.71061 9.20865L4.47608 8.38719C4.62884 8.22215 4.6713 7.96845 4.58659 7.72578C4.49627 7.46812 4.28169 7.26 4.02487 7.18279C3.78865 7.10578 3.52725 7.17425 3.38344 7.32826Z" fill="black"/>
<path d="M2.03684 5.86894L1.27262 6.69081C1.11985 6.85544 1.0774 7.10789 1.1621 7.34973C1.25118 7.60863 1.467 7.81675 1.72382 7.8948C1.96649 7.96722 2.2125 7.91103 2.28846 7.82861L3.05477 7.00716V7.00632C3.20753 6.84378 3.24998 6.59091 3.16528 6.34824C3.07662 6.08934 2.8608 5.88122 2.60397 5.804C2.40771 5.73636 2.17025 5.72471 2.03684 5.86894Z" fill="black"/>
<path d="M11.9585 0.967529C11.4642 1.24392 10.7772 1.29345 10.1081 1.34152C9.60194 1.37607 9.07976 1.4127 8.70451 1.55131L6.61809 2.32116C6.60394 2.32677 6.58958 2.3301 6.57459 2.33219C6.47386 2.348 6.38062 2.36153 6.29696 2.37319C5.78893 2.44478 5.73024 2.46663 5.67176 2.61711C5.61848 2.75613 5.67696 2.95655 5.8214 3.1268C5.93919 3.26665 6.40019 3.70329 7.3486 3.47873L8.53677 3.32181C9.20213 3.23606 9.73555 3.66979 10.1616 4.01985L13.3569 6.576L13.3594 6.57475C13.991 6.31044 14.6491 5.96662 15.2085 5.29272L11.9585 0.967529Z" fill="black"/>
<path d="M7.5621 0.812232C7.37271 0.829714 7.15564 0.853648 6.92795 0.877374C5.66861 1.01182 4.97036 1.06468 4.61509 0.998917L1.3457 5.25439C1.466 5.36823 1.56569 5.48645 1.64602 5.61444C1.91929 5.33472 2.3322 5.23483 2.73429 5.35637C3.12889 5.47542 3.45835 5.7953 3.59613 6.19219C3.65461 6.36014 3.67292 6.53247 3.65794 6.69751C3.81923 6.67482 3.98969 6.68419 4.15743 6.73539C4.55099 6.8536 4.8817 7.17432 5.01843 7.5712C5.07775 7.73833 5.09648 7.91023 5.08233 8.07528C5.24362 8.05259 5.41407 8.06216 5.58182 8.1144C5.97455 8.23345 6.3038 8.55333 6.44157 8.94814C6.52815 9.19851 6.53148 9.45617 6.46114 9.68718C6.5013 9.69488 6.54251 9.70466 6.58351 9.71757C6.93586 9.82683 7.23514 10.1163 7.36397 10.4733C7.48676 10.8187 7.43348 11.1817 7.23181 11.4423L7.81185 11.9062C7.95379 12.0188 8.16066 12.0311 8.3538 11.9374C8.56317 11.8358 8.72134 11.6296 8.76796 11.3988C8.78752 11.3024 8.78107 11.209 8.75901 11.1224L8.0233 10.5338C7.92444 10.4545 7.90696 10.3082 7.98417 10.2067C8.06222 10.1059 8.20541 10.0872 8.30489 10.1665L9.18941 10.8754C9.27724 10.9457 9.52886 10.9644 9.75966 10.8558C10.0023 10.7399 10.1857 10.5009 10.2365 10.2343C10.2852 9.9823 10.2071 9.73796 10.0336 9.59811L9.23353 8.95792C9.13384 8.87863 9.11636 8.7319 9.1944 8.63159C9.27162 8.52961 9.41564 8.51088 9.51429 8.59142L10.6773 9.52152C10.8521 9.66054 11.1033 9.67969 11.3354 9.57147C11.5759 9.45637 11.7593 9.21787 11.8113 8.94835C11.86 8.69631 11.782 8.45281 11.6065 8.3117L10.4431 7.38285C10.3434 7.30273 10.326 7.15642 10.404 7.05402C10.4821 6.95371 10.6252 6.93622 10.7251 7.01531C10.7251 7.01531 12.4917 8.42783 12.4929 8.42783C12.5808 8.49693 12.8311 8.51649 13.0609 8.40661C13.304 8.29318 13.4861 8.05467 13.539 7.78599C13.5868 7.53353 13.5088 7.28837 13.3342 7.14976L9.87663 4.38277C9.47995 4.05748 9.07015 3.72053 8.59418 3.78442L7.42994 3.93635C6.64512 4.12491 5.90483 3.93843 5.47672 3.43228C5.21865 3.12738 5.13082 2.75026 5.24674 2.44703C5.40929 2.02642 5.72064 1.98292 6.23449 1.91049C6.31129 1.90071 6.39391 1.88864 6.48486 1.87428L8.54985 1.11255C8.68409 1.0626 8.83269 1.02805 8.98649 0.99746C8.45557 0.792044 8.07075 0.779765 7.5621 0.812232Z" fill="black"/>
<path d="M3.07364 0.00573402C2.69756 -0.0227787 2.35416 0.260683 1.85987 0.904405L0.595739 2.55107C0.138495 3.14505 -0.0327892 3.51446 0.00508902 3.82748C0.0354748 4.08472 0.21446 4.33717 0.391988 4.47953L0.991588 4.95842L4.24766 0.720425L3.82621 0.383059C3.5365 0.152044 3.29925 0.0232163 3.07364 0.00573402Z" fill="black"/>
<path d="M13.515 0.00139465C13.2894 0.015547 13.0501 0.141669 12.7581 0.369355L12.332 0.699853L15.5429 4.97239L15.9579 4.64959C16.3169 4.37113 16.5001 4.122 16.5336 3.86497C16.575 3.55279 16.4091 3.18046 15.9592 2.57878L14.7157 0.9163C14.2311 0.265918 13.8921 -0.0227475 13.515 0.00139465Z" fill="black"/>
</svg>
