<svg width="37" height="34" viewBox="0 0 37 34" fill="none" xmlns="http://www.w3.org/2000/svg">
<path d="M35.963 33C32.6901 33 33.6061 30.037 30.3333 30.037C27.0605 30.037 27.6802 33 24.4074 33C21.1346 33 21.7543 30.037 18.4815 30.037C15.2087 30.037 15.8284 33 12.5556 33C9.28274 33 9.90244 30.037 6.62963 30.037C3.35681 30.037 4.27281 33 1 33" stroke="#34224F" stroke-width="2" stroke-miterlimit="10" stroke-linecap="round" stroke-linejoin="round"/>
<path d="M29.1706 24.1731L30.0214 22.4714C30.2205 22.0731 30.3326 21.6237 30.3326 21.1481C30.3326 20.1188 29.8078 19.2121 29.0111 18.681L20.1222 12.7551C19.6523 12.4418 19.0879 12.2592 18.4808 12.2592C17.8736 12.2592 17.3092 12.4418 16.8393 12.7551L7.95039 18.681C7.15372 19.2121 6.62891 20.1188 6.62891 21.1481C6.62891 21.6237 6.74098 22.0731 6.94009 22.4714L12.1981 32.9874" stroke="#34224F" stroke-width="2" stroke-miterlimit="10" stroke-linecap="round" stroke-linejoin="round"/>
<path d="M9.59375 17.5867V9.5926C9.59375 7.95623 10.9203 6.62964 12.5567 6.62964H24.4086C26.0449 6.62964 27.3715 7.95623 27.3715 9.5926V17.5867" stroke="#34224F" stroke-width="2" stroke-miterlimit="10" stroke-linecap="round" stroke-linejoin="round"/>
<path d="M15.5176 1H21.4435" stroke="#34224F" stroke-width="2" stroke-miterlimit="10" stroke-linecap="round" stroke-linejoin="round"/>
</svg>
