<svg width="17" height="22" viewBox="0 0 17 22" fill="none" xmlns="http://www.w3.org/2000/svg">
<path d="M14.0409 12.5049C17.4271 7.80245 14.2156 1.14946 8.42266 1.0027C8.35229 1.00091 8.2817 1 8.21087 1C8.14004 1 8.06946 1.00091 7.99909 1.0027C2.20611 1.14946 -1.00544 7.80245 2.38084 12.5049L8.21087 20.5596L14.0409 12.5049Z" stroke="#34224F" stroke-width="1.5" stroke-miterlimit="10"/>
<path d="M8.21254 12.8836C10.8066 12.8836 12.9095 10.7807 12.9095 8.18666C12.9095 5.59263 10.8066 3.48975 8.21254 3.48975C5.61851 3.48975 3.51562 5.59263 3.51562 8.18666C3.51562 10.7807 5.61851 12.8836 8.21254 12.8836Z" stroke="#34224F" stroke-width="1.5" stroke-miterlimit="10"/>
<path d="M8.20998 20.9999H1.23633L2.7831 16.9741H5.59834" stroke="#34224F" stroke-width="1.5" stroke-miterlimit="10"/>
<path d="M8.21094 20.9999H15.1846L13.6378 16.9741H10.8226" stroke="#34224F" stroke-width="1.5" stroke-miterlimit="10"/>
</svg>
