<svg width="32" height="34" viewBox="0 0 32 34" fill="none" xmlns="http://www.w3.org/2000/svg">
<path d="M14.9474 2.91754L8.17653 17.3588L1.79429 23.741C0.735237 24.8 0.735237 26.5171 1.79429 27.5762L3.71192 29.4938C4.77097 30.5529 6.48805 30.5529 7.5471 29.4938L13.9293 23.1116L28.3706 16.3407" stroke="#34224F" stroke-width="2" stroke-miterlimit="10" stroke-linecap="round" stroke-linejoin="round"/>
<path d="M30.2895 18.2582L13.0312 1" stroke="#34224F" stroke-width="2" stroke-miterlimit="10" stroke-linecap="round" stroke-linejoin="round"/>
<path d="M27.5273 7.82784L30.2874 6.42371" stroke="#34224F" stroke-width="2" stroke-miterlimit="10" stroke-linecap="round" stroke-linejoin="round"/>
<path d="M23.4609 3.76007L24.8651 1" stroke="#34224F" stroke-width="2" stroke-miterlimit="10" stroke-linecap="round" stroke-linejoin="round"/>
<path d="M10.0958 26.9464L15.3268 32.1774C15.8196 32.6847 16.5091 33 17.2724 33C18.7701 33 19.9842 31.7858 19.9842 30.2882C19.9842 29.525 19.6689 28.8354 19.1616 28.3427L8.17773 17.3588" stroke="#34224F" stroke-width="2" stroke-miterlimit="10" stroke-linecap="round" stroke-linejoin="round"/>
</svg>
