<svg width="18" height="18" viewBox="0 0 18 18" fill="none" xmlns="http://www.w3.org/2000/svg">
<g clip-path="url(#clip0_192_2927)">
<path fill-rule="evenodd" clip-rule="evenodd" d="M3.4875 12.6C3.5399 12.5301 3.60784 12.4734 3.68594 12.4344C3.76405 12.3953 3.85017 12.375 3.9375 12.375H6.75C6.89918 12.375 7.04226 12.4343 7.14775 12.5398C7.25324 12.6452 7.3125 12.7883 7.3125 12.9375C7.3125 13.0867 7.25324 13.2298 7.14775 13.3352C7.04226 13.4407 6.89918 13.5 6.75 13.5H4.21875L1.6875 16.875H16.3125L13.7812 13.5H11.25C11.1008 13.5 10.9577 13.4407 10.8523 13.3352C10.7468 13.2298 10.6875 13.0867 10.6875 12.9375C10.6875 12.7883 10.7468 12.6452 10.8523 12.5398C10.9577 12.4343 11.1008 12.375 11.25 12.375H14.0625C14.1498 12.375 14.236 12.3953 14.3141 12.4344C14.3922 12.4734 14.4601 12.5301 14.5125 12.6L17.8875 17.1C17.9502 17.1836 17.9883 17.2829 17.9977 17.387C18.0071 17.491 17.9873 17.5956 17.9406 17.6891C17.8939 17.7825 17.8221 17.8611 17.7332 17.916C17.6444 17.9709 17.542 18 17.4375 18H0.5625C0.458037 18 0.355638 17.9709 0.266777 17.916C0.177915 17.8611 0.106102 17.7825 0.059385 17.6891C0.0126677 17.5956 -0.00710821 17.491 0.00227315 17.387C0.0116545 17.2829 0.0498225 17.1836 0.1125 17.1L3.4875 12.6Z" fill="#1C2026"/>
<path fill-rule="evenodd" clip-rule="evenodd" d="M4.5 4.49958C4.50008 3.63359 4.75004 2.78601 5.21988 2.05855C5.68972 1.33109 6.35949 0.754651 7.14882 0.398403C7.93814 0.0421547 8.8135 -0.0787707 9.66985 0.0501368C10.5262 0.179044 11.3272 0.552309 11.9766 1.12514C12.6261 1.69797 13.0965 2.44604 13.3313 3.27958C13.5662 4.11312 13.5556 4.99673 13.3007 5.82437C13.0458 6.65201 12.5576 7.38853 11.8945 7.94556C11.2314 8.50259 10.4217 8.85646 9.5625 8.96471V15.1871C9.5625 15.3363 9.50324 15.4793 9.39775 15.5848C9.29226 15.6903 9.14919 15.7496 9 15.7496C8.85082 15.7496 8.70774 15.6903 8.60225 15.5848C8.49676 15.4793 8.4375 15.3363 8.4375 15.1871V8.96583C7.34959 8.82877 6.34915 8.2992 5.62412 7.4766C4.89908 6.654 4.49935 5.59497 4.5 4.49846V4.49958Z" fill="#1C2026"/>
</g>
<defs>
<clipPath id="clip0_192_2927">
<rect width="18" height="18" fill="white"/>
</clipPath>
</defs>
</svg>
