<svg width="34" height="34" viewBox="0 0 34 34" fill="none" xmlns="http://www.w3.org/2000/svg">
<path d="M10.7754 11.6224L13.2683 5.07698C13.3193 4.95243 13.4956 4.95223 13.5468 5.07671L16.017 11.6224" stroke="#34224F" stroke-width="2" stroke-miterlimit="10" stroke-linecap="round" stroke-linejoin="round"/>
<path d="M11.5527 9.99219H15.252" stroke="#34224F" stroke-width="2" stroke-miterlimit="10" stroke-linecap="round" stroke-linejoin="round"/>
<path d="M19.6504 4.98334L24.3207 11.6223" stroke="#34224F" stroke-width="2" stroke-miterlimit="10" stroke-linecap="round" stroke-linejoin="round"/>
<path d="M23.9914 4.98334L19.3145 11.6223" stroke="#34224F" stroke-width="2" stroke-miterlimit="10" stroke-linecap="round" stroke-linejoin="round"/>
<path d="M4.98242 4.98334H8.64888" stroke="#34224F" stroke-width="2" stroke-miterlimit="10" stroke-linecap="round" stroke-linejoin="round"/>
<path d="M6.80859 5.19537V11.6224" stroke="#34224F" stroke-width="2" stroke-miterlimit="10" stroke-linecap="round" stroke-linejoin="round"/>
<path d="M28.2863 15.6058V1H1V15.6058V26.7261L7.27386 33H20.668H28.2863" stroke="#34224F" stroke-width="2" stroke-miterlimit="10" stroke-linecap="round" stroke-linejoin="round"/>
<path d="M1 15.6058H28.2863" stroke="#34224F" stroke-width="2" stroke-miterlimit="10" stroke-linecap="round" stroke-linejoin="round"/>
<path d="M7.27386 33V26.6929L1 26.7261" stroke="#34224F" stroke-width="2" stroke-miterlimit="10" stroke-linecap="round" stroke-linejoin="round"/>
<path d="M32.9997 15.6058H20.668V33H32.9997V15.6058Z" stroke="#34224F" stroke-width="2" stroke-miterlimit="10" stroke-linecap="round" stroke-linejoin="round"/>
<circle cx="24.8416" cy="28.7179" r="0.995851" fill="black" stroke="#34224F" stroke-width="2" stroke-miterlimit="10" stroke-linecap="round" stroke-linejoin="round"/>
<circle cx="24.8416" cy="24.7344" r="0.995851" fill="black" stroke="#34224F" stroke-width="2" stroke-miterlimit="10" stroke-linecap="round" stroke-linejoin="round"/>
<circle cx="28.8259" cy="24.7344" r="0.995851" fill="black" stroke="#34224F" stroke-width="2" stroke-miterlimit="10" stroke-linecap="round" stroke-linejoin="round"/>
<circle cx="28.8259" cy="28.7179" r="0.995851" fill="black" stroke="#34224F" stroke-width="2" stroke-miterlimit="10" stroke-linecap="round" stroke-linejoin="round"/>
<path d="M32.9999 20.4523H20.668" stroke="#34224F" stroke-width="2" stroke-miterlimit="10" stroke-linecap="round" stroke-linejoin="round"/>
</svg>
