<svg width="19" height="18" viewBox="0 0 19 18" fill="none" xmlns="http://www.w3.org/2000/svg">
<g clip-path="url(#clip0_193_1107)">
<path fill-rule="evenodd" clip-rule="evenodd" d="M2.86738 0.573942C3.06315 0.377391 3.29823 0.22492 3.55703 0.12663C3.81584 0.028341 4.09247 -0.0135214 4.36858 0.00381737C4.6447 0.0211561 4.914 0.0973 5.15863 0.227203C5.40327 0.357106 5.61765 0.537802 5.78758 0.757317L7.79592 3.35157C8.16402 3.82744 8.29381 4.44732 8.14836 5.03232L7.53635 7.49607C7.50471 7.62367 7.50642 7.75734 7.54131 7.88409C7.57621 8.01084 7.6431 8.12636 7.7355 8.21944L10.4845 10.9836C10.5772 11.0767 10.6923 11.144 10.8186 11.1791C10.9448 11.2142 11.078 11.2158 11.2051 11.1838L13.6542 10.5684C13.9413 10.4963 14.241 10.4907 14.5306 10.552C14.8202 10.6134 15.0921 10.7402 15.3258 10.9228L17.9059 12.9411C18.8334 13.6667 18.9184 15.0448 18.0882 15.8784L16.9314 17.0417C16.1034 17.8742 14.866 18.2398 13.7124 17.8314C10.76 16.7869 8.0793 15.0874 5.86926 12.8589C3.65313 10.6371 1.96291 7.94208 0.92393 4.97382C0.518905 3.81507 0.882532 2.56969 1.71048 1.73719L2.86738 0.573942Z" fill="#1C2026"/>
</g>
<defs>
<clipPath id="clip0_193_1107">
<rect width="17.9016" height="18" fill="white" transform="translate(0.757812)"/>
</clipPath>
</defs>
</svg>
