<svg width="20" height="20" viewBox="0 0 20 20" fill="none" xmlns="http://www.w3.org/2000/svg">
<path d="M11.373 1C15.5784 1 19.0002 4.42179 19.0002 8.62711" stroke="#34224F" stroke-width="1.5" stroke-miterlimit="10" stroke-linecap="round" stroke-linejoin="round"/>
<path d="M11.373 4.05078C13.8966 4.05078 15.9493 6.10354 15.9493 8.62705" stroke="#34224F" stroke-width="1.5" stroke-miterlimit="10" stroke-linecap="round" stroke-linejoin="round"/>
<path d="M11.373 7.10181C12.2155 7.10181 12.8985 7.78478 12.8985 8.62723" stroke="#34224F" stroke-width="1.5" stroke-miterlimit="10" stroke-linecap="round" stroke-linejoin="round"/>
<path d="M7.24834 7.3585L5.81764 8.78919C6.53272 9.72408 7.37426 10.7203 8.32696 11.673C9.27917 12.6252 10.2748 13.4664 11.211 14.1822L12.6415 12.7517C13.2372 12.156 14.2031 12.156 14.7988 12.7517L18.0347 15.9876L16.4168 17.6056L15.9141 18.1082C14.9012 19.1211 13.3279 19.2874 12.116 18.5237C10.5188 17.5171 8.26144 15.9221 6.16971 13.8304C4.07798 11.7387 2.48296 9.48127 1.47633 7.88404C0.712554 6.67213 0.878901 5.09881 1.89186 4.0859L2.39448 3.58327L4.01242 1.96533L7.24834 5.20125C7.84405 5.79692 7.84405 6.76278 7.24834 7.3585Z" stroke="#34224F" stroke-width="1.5" stroke-miterlimit="10" stroke-linecap="round" stroke-linejoin="round"/>
</svg>
