<svg width="23" height="20" viewBox="0 0 23 20" fill="none" xmlns="http://www.w3.org/2000/svg">
<path d="M16.4713 17.2857C16.4713 18.2325 15.7038 19 14.757 19H7.89983C6.95308 19 6.18555 18.2325 6.18555 17.2857V2.71429C6.18555 1.76753 6.95308 1 7.89983 1H14.757C15.7038 1 16.4713 1.76753 16.4713 2.71429V17.2857Z" stroke="#34224F" stroke-width="1.5" stroke-miterlimit="10" stroke-linecap="round" stroke-linejoin="round"/>
<path d="M12.185 16.4285H10.4707" stroke="#34224F" stroke-width="1.5" stroke-miterlimit="10" stroke-linecap="round" stroke-linejoin="round"/>
<path d="M12.185 3.57153H10.4707" stroke="#34224F" stroke-width="1.5" stroke-miterlimit="10" stroke-linecap="round" stroke-linejoin="round"/>
<path d="M20.8014 6.14289C21.3536 7.17223 21.6579 8.54216 21.6579 9.99943C21.6579 11.4567 21.3536 12.8267 20.8008 13.8572" stroke="#34224F" stroke-width="1.5" stroke-miterlimit="10" stroke-linecap="round" stroke-linejoin="round"/>
<path d="M18.6567 7.42868C19.0708 8.1149 19.2991 9.02819 19.2991 9.99972C19.2991 10.9712 19.0708 11.8845 18.6562 12.5715" stroke="#34224F" stroke-width="1.5" stroke-miterlimit="10" stroke-linecap="round" stroke-linejoin="round"/>
<path d="M1.8565 6.14289C1.30437 7.17223 1 8.54216 1 9.99943C1 11.4567 1.30437 12.8267 1.85714 13.8572" stroke="#34224F" stroke-width="1.5" stroke-miterlimit="10" stroke-linecap="round" stroke-linejoin="round"/>
<path d="M3.99981 7.42868C3.58572 8.1149 3.35742 9.02819 3.35742 9.99972C3.35742 10.9712 3.58572 11.8845 4.00028 12.5715" stroke="#34224F" stroke-width="1.5" stroke-miterlimit="10" stroke-linecap="round" stroke-linejoin="round"/>
</svg>
