<svg width="16" height="16" viewBox="0 0 16 16" fill="none" xmlns="http://www.w3.org/2000/svg">
<path d="M8.00961 0C4.28161 0 0.955671 2.6762 0.175824 6.32044C-0.213794 8.14133 0.0486724 10.0776 0.917914 11.7252C1.7545 13.3109 3.12602 14.5924 4.76694 15.3187C6.47379 16.0743 8.43331 16.206 10.2273 15.6907C11.958 15.1938 13.4926 14.103 14.5374 12.6388C16.7218 9.57778 16.4298 5.278 13.8598 2.53515C12.3536 0.927671 10.2142 0 8.00961 0ZM11.8525 8.42813L9.6687 10.6618C9.1158 11.2275 8.24187 10.3705 8.79252 9.80751L9.89443 8.68048H4.67245C4.30161 8.68048 3.9922 8.37126 3.9922 8.00109C3.9922 7.63092 4.30181 7.32169 4.67245 7.32169H9.8683L8.74455 6.19956C8.18615 5.64186 9.05192 4.77697 9.61033 5.33467L11.8474 7.56875C12.0846 7.8054 12.0868 8.18862 11.8525 8.42813Z" fill="#34224F"/>
</svg>
